<mxfile host="app.diagrams.net" agent="Mozilla/5.0 (Windows NT 10.0; Win64; x64) AppleWebKit/537.36 (KHTML, like Gecko) Chrome/134.0.0.0 Safari/537.36" version="26.2.5">
  <diagram name="Architecture" id="o_LpjA9Pbaf2BkH6FjoX">
    <mxGraphModel dx="1491" dy="803" grid="1" gridSize="10" guides="1" tooltips="1" connect="1" arrows="1" fold="1" page="1" pageScale="1" pageWidth="850" pageHeight="1100" math="0" shadow="0">
      <root>
        <mxCell id="0" />
        <mxCell id="1" parent="0" />
        <mxCell id="QO4F9BHPAcaRKNSe1WLH-31" value="" style="group" vertex="1" connectable="0" parent="1">
          <mxGeometry x="598.75" y="160" width="310" height="890" as="geometry" />
        </mxCell>
        <mxCell id="QO4F9BHPAcaRKNSe1WLH-7" value="" style="whiteSpace=wrap;html=1;fillColor=#d5e8d4;strokeColor=#82b366;" vertex="1" parent="QO4F9BHPAcaRKNSe1WLH-31">
          <mxGeometry width="310" height="890" as="geometry" />
        </mxCell>
        <mxCell id="QO4F9BHPAcaRKNSe1WLH-9" value="&lt;font style=&quot;font-size: 19px;&quot;&gt;Backend&lt;/font&gt;" style="text;html=1;align=center;verticalAlign=middle;whiteSpace=wrap;rounded=0;" vertex="1" parent="QO4F9BHPAcaRKNSe1WLH-31">
          <mxGeometry x="10" width="140" height="25.79710144927536" as="geometry" />
        </mxCell>
        <mxCell id="QO4F9BHPAcaRKNSe1WLH-23" value="" style="shape=image;verticalLabelPosition=bottom;labelBackgroundColor=default;verticalAlign=top;aspect=fixed;imageAspect=0;image=data:image/png,iVBORw0KGgoAAAANSUhEUgAAAgAAAAIACAYAAAD0eNT6AAAAAXNSR0IArs4c6QAAIABJREFUeAHtnYuNLTuSXcsEmSATZEFDFjyMBY2xoDEWDCALZIJMkAkyQSbIBJkgYfXc6I4bj2Qy/5nnLAKF/POzmMUdEWRW/fyYJCABCUhAAhKQgAQkIAEJSEACEpCABCQgAQlIQAISkIAEJCABCUhAAhKQgAQkIAEJSEACEpCABCQgAQlIQAISkIAEJCABCUhAAhKQgAQkIAEJSEACEpCABCQgAQlIQAISkIAEJCABCUhAAhKQgAQkIAEJSEACEpCABCQgAQlIQAISkIAEJCABCUhAAhKQgAQkIAEJSEACEpCABCQgAQlIQAISkIAEJCABCUhAAhKQgAQkIAEJSEACEpCABCQgAQlIQAISkIAEJCABCUhAAhKQgAQkIAEJSEACEpCABCQgAQlIQAISkIAEJCABCUhAAhKQgAQkIAEJSEACEpCABCQgAQlIQAISkIAEJCABCUhAAhKQgAQkIAEJSEACEpCABCQgAQlIQAISkIAEJCABCUhAAhKQgAQkIAEJSEACEpCABCQgAQlIQAISkIAEJCABCUhAAhKQgAQkIAEJSEACEpCABCQgAQlIQAISkIAEJCABCUhAAhKQgAQkIAEJSEACEpCABCQgAQlIQAISkIAEJCABCUhAAhKQgAQkIAEJSEACEpCABCQgAQlIQAISkIAEJCABCUhAAhKQgAQkIAEJSEACEpCABCQgAQlIQAISkIAEJCABCUhAAhKQgAQkIAEJSEACEpCABCQgAQlIQAISkIAEJCABCUhAAhKQgAQkIAEJSEACEpCABCQgAQlIQAISkIAEJCABCUhAAi8j8J9/fn7+8vPz88fPz8+///z8/PXX8X95WTusrgQkIAEJSEACCwQQ+//x8/Pzf39+fv7fws///GUU/KeFPL0sAQlIQAISkMBDCfzLz8/P/2kIPoYAQv/ffv2wX40Djv/20HZZLQlIQAISkIAEOgTw+Ku3j6j/28/PT8u75xwGQTUE/nfn/k6xnpaABCQgAQlI4C4CePRV/BFy5v+XEvdwb35eI2CJmtclIAEJSEACNxPAi8/izT5efcvr71WVBYE1j//Vu9nzEpCABCQgAQncSwCRryF8hPy/bqhWy5D41w35+IgEJCABCUhAAicTYH6/eu6sBdiSWsYEUwEmCUhAAhKQgAQeRuC/NwyALd5/NKuV38w6gnjerQQkIAEJSEACFxBgnj5HAJgO2JNaEYU9BsWeuvisBCQgAQlIQAIdAvXTv70L91pfE7gOoAPf0xKQgAQkIIG7CNSFe2EAINr10z4iBVznB6HnzwLHD6H/1h8Q4hnKMElAAhKQgAQk8CAC9fO9MABaXwbkqYI1+04BPKjDrYoEJCABCUggCGTPnX1SPrdG7Fv3+k+DfkF1IwEJSEACEngSAcL9Wbg5rlMD+fra/Se11bpIQAISkIAEJJAI5Pl+vH8+3TtiGoC1AiYJSEACEpCABB5KgHn67NljELQ+6cv3zOz7BcBDO9xqSUACEpCABIJA/SM+RAD2RAF41iQBCUhAAhKQwAsI8BXAjGc/c4+f/72gw62iBCQgAQlIAAL8Pf+8HmBG6Hv3+Pmf75QEJCABCUjgRQRYAHhEJEAD4EWdblUlIAEJSEACQYBFgHvWAGgABEm3EpCABCQggZcR4I/4bDUCNABe1tlWVwISkIAEJJAJbDUC+KrAJAEJSEACEpDAiwngzfcW+/XOEzlgUaFJAhKQgAQkIIEXE2j9q9+e+Md5/t2wSQISkIAEJCCBFxPY+pcBMRz4ssAkAQlIQAISkMALCfzLhmmAiASwJRrw15+fn78sTA2w5oB74udvPz8//15+uOZ/GXzhS2SVJSABCUjgfQSO/A+B2TDYs886AxYbutbgfe+TNZaABCQggZcQ4L8E7hHrM5+lbhoBL3mRrKYEJCABCbyHwBO9/2pQ+K+H3/M+WVMJSEACEngBAebaq9jWY0LxLBK8O0rwApxWUQISkIAEJPB8AjN/BIh/HkT4fc0iQQwGFgUSWeBvDPzrr/0tnxpmY8S/Pvj8d8oaSkACEpDAwwnMiD/iyz8OWvMfBBH+0Xw917ZGEjQAHv5SWT0JSEACEng2ATzy7FkftT/z1wH5VJD7tpQ5MiyeTdzaSUACEpCABG4mgIe+RXxnniFSwDf88YeB2HLMd/6E/7cKP2XzrEkCEpCABCQggZUECPmvCeXPCP6V92C4mCQgAQlIQAISWEGAkP8e7/tKoe+VRRtMEpCABCQgAQlMEGDOfO/K+54gX3ke48X5/4kO9xYJSEACEpAAIf+tq+2vFPfZsowA+E5LQAISkIAEFgictcp/VqzPuk8jYKHjvSwBCUhAAt9LgH+ec5YAPyFfpjScDvje99uWS0ACEpBAg8CZn/g9QfyjDqwJ4O8JmCQgAQlIQAJfT2DNn+oNIb1ie+bXB+TN3xiIvzvw9S+BACQgAQlI4PsIPHHBX/xZYObuz/4agb9xgDHAHx4ySUACEpCABL6CAHPiV3jza8uoi/aoJ+cwDM6MDFBPDALKCaPAKMFX/CrYSAlIQALfR+BsQV0r/ty/9M97+FSRRYtXRi/450ZEIzAM/vj5+aEOJglIQAISkMBrCeBZbxHpM5/5txU0wxi4y5DBMMAo0CBY0WneKgEJSEACzyCAEXCXgLYMCbz7LYl2XBkVqHWnbIwBPzfc0ns+IwEJSEACtxB40qeACOmeRAThToOGsv+2pwE+KwEJSEACEriKwNM+B6Q+exKL9+7+L4b+8aE9PeizEpCABCRwGYE7veYaTmdufW8iFH+3EUBkxSQBCUhAAhJ4NAFEtwrxncdLXwO0YLIYj3YQgicKQB53toGy90YzWu30nAQkIAEJSOAwAmf/0Z0qxAg1C/6Ys0ckq7fOWoC1C+rIK5eDB17zzdev2IerSQISkIAEJPBYAv+tiOfR4ogQU0bPs0fs62LEtSF0IgBH1/uI/NYaMo99SayYBCQgAQl8HoGjDQDWFOD98nneGgGs9eD5NenOTwF7xkLP6FnTLu+VgAQkIAEJnELgqH8JjNe+d94b0c9iusYIqFGEnM9d+xoAp7yyZioBCUhAAkcQ2LMIkGerp4/Xzz/Z4V/w8gdy8g+L9LjGT+/v7de5+1kjoBoPd4l+LjfauyYSckSfmocEJCABCUhgSABhyoI1u4+3nf8MLmKO0Ffxns0PQyJ+Ws/M/IGdJ6z8b9U9zsXUSHypMOwYL0pAAhKQgATOJEDIPgRqdpv/ZC+ePMJ/xd8SYF1BL2oAo7qGYKk9GBwYMjwXP1dOI1A+/2DIJAEJSEACEricACK0JJRPu45IY3jkxHTDkhGCAcHngkvz8ketiZjlxuJF6m+SgAQkIAEJXEJgi/c/K2pPuI/pCMR8SfAr7KsNgGCFMZanVWq9PJaABCQgAQnsJkAofcljDmF60za8/NFUwQgeayLu5oIB4qLBUS95TQISkIAENhFAXLYu1nuaMYBYMyVANOMI0bzL+69cmRZYG7nY9DL4kAQkIAEJfAcBQsxvF/+tof2lHn7iZ4QssDRJQAISkIAEdhHg87O7w9vV0505Di8fgd4a2m+Bqx72U9dEYPC4NqDVg56TgAQkIIEuAcLirDB/i9cf3j2f5SHIRwp+C1KdNlj7KeGMAXPUPUYDWj3oOQlIQAIS+AcBvEVEn7nxp3v81C/+b8DZYv8PQGmHKED1rqnPUaJ9dD6uDUid564EJCCBbyaAB0toH7F/yzf91JPv8avwru1HpgQiYlA9+dm8eA4jJNeFc0/8x0LZmIBhncKYbbP3SUACEpDAiwkw+D/ZU61iRWj9aMHKZWAIbDUCENNqBFDXnP9T96k70Z6tbX/xr4BVl4AEJPBdBBjon/KpWk8UEaU1go/3zV/2WyNiLYHGCNiSqG+0hahCpKdzjjrHlnawTgCW9S8lRpvcSkACEpDACwkgkIhcDPhP2UYYnkV7NVFnxChPU8y0gXuIcPBcDs9H/uTbaj+ivTZlA4A8Y7Fdr4xWuU89x9RQi99aRt4vAQlIQAI3EXiS+BMuR1jwlqlXTogNoo14HzmPTl7km8ujHi3hXTvVUA0A8qQ8/lHPjLHSqsPTztEOpwrym+q+BCQggZcQQHDvFBUEEe+6epOs3EdYEPyeIB9Zb8rAECD1mCB2a9IV9V7LAN4YJr0fpljqD31Q728ZMHDzvxCueUO8VwISkMBNBFrz3WsFZcv9CCNiUUWfY4yBlrhsKWfLM4jd6A/38JXBTMKA2VL+lmeyqId4x38npI/P/AySyAnl53r3jLoZbt4jAQlIQAIXEEDs8sB9xT7ingUpRL+KyBV16ZVBHUdGyMxUAELcy3/L+RB5DCTypg7VgLrglWkWMTIk4UhkJfd5MxNPSkACEpDANQTw3LYI0d5n8P4RMX6eJPpr2kUbRuIL263hfwQTw2wk8rCjvoTlWwskr3mDfi9lZDAFW9rFtI5JAhKQgARuJDDy2mLAdts3khD4nvj21hBknjyPgCPmLHqciSrwurQiC+RxdwqjJLext0/bW1NAd7fB8iUgAQl8BYGjDAC8eAZzRGw0d94Tg7efx6uNvzXAAjhEvdUmziPeMNoTDu9FFsh7KRGZ4FPE8Nbpu1EkYym/fL1lmLQ41HPUxa8IMkn3JSABCZxMYI8BgOixyCwLGcL21pB+FaW9x4h0MJr17Ge6G7Ee1W1UFs+2jIfRMzN1int4H0Z1W7pG3Ygi5Hcq8nYrAQlIQAIHEli7BoABmkGe53Iaeb1Lg/6nXM+Cf5RHnRnH/lKEhShDK7WMPe49Svwpc2sEoPUOYDwdWbcWE89JQAIS+GoCM3PVDNAMyFn42Wdl9zd7/ISuEb0rhWpGZKsBgkeNgZKNlDO8bN6RlpjvOXe0kfLVv+w2XgISkEAmgJDHfHBroK4DMN7+rNHQyu/N5xDQWOuQjaHM8+z9GQOAe3JCmOu5fP2offic1b+8h2cYLUe13XwkIAEJvJYAC/gQCgZaRC7m9xG6EP0zB/izhGNvvhhHzEtXr/qujl5rAFBvGJxtAPD+7GU98zx9cZfxdVefW64EJCCBywggGgy0o8jAzGD91nswhMIAugz6ZEFMNyz1SzZWYmHe2dMUV04FYYiyFsIkAQlIQAIHECC8yudhVw7kTzEQIrSPqKz1LuEW/yK3bs8MWZM34k60hqgNPxguVehpD8bcmSmMjKv7k/au7a8zOZi3BCQggVcRQEi+cU4fQwdhrILZ6zw4MRXCM4jtGkMJocpeea+MN56nXVdMDRH1gHs1Mjj/qWzf+D5YZwlI4AUEvlH4EZA1oX0YHTUVwhz5pyW876XpiCrYW45rBAPB51wYHmxnDblP6wPbIwEJSGCaAIM2of4tA/HbnonQPuK7JlSMwOC11/bi9WNEsKCOn9Y9+ZmIMmBIfFq6SvzhST+2vHzqQD+EIfCJRtanvTe2RwISuIkAg+ia0HUWs7fsh0C3BGMGO55lbStTJD0PExGKZ/CGuRch+kTRD35Xin/0xcjLp6/DCHBxYPSSWwlIQAK/CHyq149Bg+huWcBXX468FgIxZ7oAsTP9kwCGzRVh/xD+usXYavVJGAG9aME/W+CeBCQggS8hwGC5FKqug+yTj0Pwj/Sy+YuGJFj1PP1ft3z1BiMrPO36jmAUEH3JP71767Nrj8k3+ix3CNMB5EVdWkZCvtd9CUhAAh9NgEHwTm9t7cDeuh9Bwes7wsNvdTbGEYJi6hPA628ZkXBDdEdiy7MYa/Th0dNP5JenejDe4h2iXiYJSEACX0mAgfHoATcG17O2IfYIRh7Yz+xAwv6E+k1/JoB4I9wtTx7DkutrE8/A+yjDlHc8Ennnd3NL/SIvtxKQgAReSQCPrDVo58Hxzn0G7RBevLYzBmoY8Id5rjIkXvmidCodf/q5947wbo28/k62fzodxsBeQzUMOAzHXGfeMZMEJCCBryHAwHyUd5UH0737ES4+SuxpJ/PALSFCCLIBxD5icFTZn/QyYSD99denoURgMrden5+x0p56bJ0moM4scm29963345P6z7ZIQAIS+AcBBvHewH3n+SM9cQb7EKpWvqN2IjLfnvaIbQ65n8VxT/1q32MMmiQgAQl8PAHErQ6ATzk+anU9XjwL0jB0WnlyPYyDXtu/MTTMdMhWDztzjHD7Vb9MGAMs6Gt597ledR9DRfG/qpcsRwISuJVAXgFdB8Ozj5cEl/K5h1DzFQkjYEkwPn06gPbBO75yOOoduJsb7zkGAUYcRmBMW8Q+Rs4ZUxRXvLeWIQEJSGA1AeY59y6kmhEIBlkGWLxABuKYX50xACJ/8mh57qsbvfAAdWsZAdSVNnxawlNG8BHGs96FK8L/n9YvtkcCEpDAqQTwiEJgj9oilHiPiD3i0kt4W1vK3GsIYETEVADbXnQBj5V7rzA6eoyOPk+bCOmzFuJoD3/Ul5RlkoAEJCCBhxBADEaD9ppr4R2vCaHuNT4wBCKSMIsUo6TVLjz+kbEym/+T7kPoMW4Qe1itiba0GO05R1+bJCABCUjgIQQIZ+8Z1HkWz26N6Oem7zEAEGzEfI0BgCe/1N63Lf7CaAmPnv68SugJ6VMeTKkD21F/agDkN999CUhAAjcSQDj3eIRHfBs/EoyeUFPnrQYHxkov33z+SUZAhOzDk48FbHv6Lrd17T7ljvhgDLTq9knTKDf+2lq0BCQggf0EGMTXDv7cj4eJKB2RZjzyWkcEcEtaO92x1cjo1Q2DC0+dP0BESD6EHJ78YJxwPrz4sxbjVZ5rjqlnK+JSWXFc89UA6L0ZnpeABCRwMYHWKvc6aOfjPZ73qGlrhY56bJmrR7giVI3xgwC3PNVoM9f2Gjr8WVwEfS3rqMPVW+qJyBOZ4QchR7jjp9ePTMXURD65/q176jMeS0ACEpDAyQQQwzw4L+0jDEtiiNjFYjMGf37Cq8Xz7aWWt7hUH65T1t4Eh9E0BG1YmxDLJeNipn1n3oNxQ9tC5Jf6di0D7q/9SlkmCUhAAhK4mUAdnEdig/i3wr7RBPJa8uJjwVhPaLZOR5Av5e9N1AtBbHGYiTbAh9D+EodW/leco14YJXDu9cFehq3nc9s0AFqEPCcBCUjgYgIjrzcP2niKI/FH9PL9dR/RmRFQmo/nvFVAKeeIRJi6TguMhAsxJcRfn6kc7jjGoKE9Vwp+7YO86HJLNKXm57EEJCABCewk0PN2q1Ahyr00iiIgiKNne3lGSH6LoB41xxx1CGOklS+iitFRed19TJ3vFv3ct9nQ1ADIZNyXgAQkcBOBELeRYI0GbERyJNJbxL+iIFydPchRXanLbKShlrPm+KnCv9XgWtP2LfdmI3H0Pm3J22ckIAEJSGADgZGYxrWRiGfPLu6PLaJ9ZMLYQEhaq+kxZKgL95yZyJ/yo41P3MLiiPUQR3LkHcqsjszbvCQgAQlIYAOBPCi39vEoR2nk/Y/mzEd5rrmGsFzh8SP8fG0wam+L35HnWIS5pnw87Tvn/XM/wi+zyNfcl4AEJCCBGwjkQbm1PwrXVq+uPn90BOAGPH+PKNwt/ME1IjEYPMzvw3fGIDjiM8kj2Ec72JokIAEJSOBmAnlQbu0T7u6lUfifvAhFvzU9weOv/dFjOWMQzPz9hl7+R53P7bkianNUvc1HAhKQwEcSwMPPA3PdH4Xxl54lr9bK+SNBItTxZ3VZjU+dMDwQvC3z4ITMn+Lx575YE00JgwAecIh8iBbcmaIebCOacWd9LFsCEpDAVxNYEvGR8MyEn7ln7zw0RgSiHD9EJaj3UvncM5sQzSd+zheiuVcwMZT29sMsy9590RYNgB4hz0tAAhK4kMBSGH8konlAH+3jhSJAW9OSkdIrexS9oC7UiT9glL3kXl53nuczyE9ImeGntOkT+sU2SEACX0ogf5+dB+jY74WN8ZjjnpntHiNgyUjpld/yeDnHv9MlstF77ozztJ8IA9ELvHl+iGzQtohoYOjkH6612vDWVzVzXTLO3tpG6y0BCUjgNQTwgvPA3NpvzaUjYK17R+eYm9+y+GuLAYDYklgfgOBzTPmj+l11DaNqC4dfTXrkZqY9ma8GwCO70UpJQALfRmDJGw4xzVy2GAAhAGs/S1uqX+R7xRZP/ogpg9Haisz5DftEMGC/JOq5f3jGJAEJSEACNxNgPjYPznUfj7XO4e8xAMgfESWPpUS5T/HcQ7T2tp32t4yqJRZPvJ5Z0E+9xFRGfq9Ga0t6eXheAhKQgAROILC0or56d3ngzwP72n1EgxB9NTBoIucQyrV5nnV/GC1bFyVGvT5pCqCyaPUjfVnfFw2AE36JzVICEpDAFgJL8+ytKEAI2lFbRIHQOFMEbJeMkqPKvTqfT1kBX0UdjpxrpXqvBkCLkuckIAEJ3EAAz21JcGsUYCScDPAsHmRxGOHfI+bNR+W94Rp8ewJ5Q5fvLrIVncnty4ZONTBH0wW7K2YGEpCABCSwjgCfpY2EFAHLq7179yL2OWFcPGUev1fns88T0eiFxzOrN+1XZrwfkcLjj+NqAPCsSQISkIAEHkRgSaizuI+8esL4eP6I3ui+KiKfdkwkJHvFD+rqXVVp/f2IvLCRdmeRj+Pcv7sq4MMSkIAEJHAsgZanlgdt9mMqoDWo13uXphXq/Z9wTJsRwxwtObaX7s+tFf6PvxeB0Uc/5jB/ywi8vxXWQAISkIAE/kGgfq7VE+T44zq9659yHjFnLhtRY4qkZfRwD+cxjD7R2//Hy5F2WoIeUxwR/odJpNb78C2sgoFbCUhAAo8nwHx1a8D+tnMI+yd78VtfxPDw8/uQvf2IIkWkCIb53tjXANjaAz4nAQlI4CQCrfndGLS/aZtXsZ+E+pXZhoef34XW/H9MCcAx3xv7GgCv7H4rLQEJfDqBpcWAMYh/8vbT+3hr+1pfi4S3T57xTjCdRIo/FRznYxsGwq/b3EhAAhKQwBMIRBg3Butv3G7tB4SPfzP8qan1boSYR3SANQKRWusFeJ+y0RD3upWABCQggZsJzC4GfJphEIvxEJf8w/n6s1T38GC3dAXrKD41tdaIRDg/vg6I/5vQWi8Q3DUAPvUNsV0SkMDrCbQG+hi8n7pl4R5fKMwmBArvNYQrtyu82tm8vuU+DKnMif0wAODPcSyehGG9N441AL7ljbGdEpDA6wiMBu8YxJ+6RYjijxHNgke0QsBo1yd78bNMWve1DAAW+iHocMtfBLQMq3hnIkrQKsNzEpCABCRwM4EsiDFwv22LYPX+42DFW1es75kGqHl/ynHLAMjvRBZ25v97awDIxyQBCUhAAg8lMPLg8qD/hn2MGdoT4ekW8ljEFu3h/r2JaYZRmXvzv/r5pXcijCbaHakaVvDVAAg6biUgAQk8kMCbpwFCZBCaGsngXBaoQB9h7DAA2IagxT1btghgq7wted39TOszwOA1MphgHvex1QC4uyctXwISkMACgSqeeRA/c5+5ZAyQLJzsI6YzdeoJDF5+yyPnXKs9vXwWsP12GSMih8Z/u1gOqAfrD2j7E1OPE+xGxlKNAtCHJglIQAISeDCBpZBvSzSPOJeFv+Jpeeq1TARmJEg5T77bHxkVsco9P7N2H1GfySfPmbcMlbXlnnF/9eZhv7Sqn76ofXRG3cxTAhKQgAQOInDXNMBIvGc/UUTUEfeeMcHiwJaYVaHKK9u3YoUj+fTqQr51DcJs1GBrnbY+R99kQ2UU+s9l0P7MNl9zXwISkIAEHkggD9pX7SMwLbGsoeSZ+mAIIFJ8Goiozoh+zZdy9ybqsSTqOeJyxPTD3jr3nqdvWA+wZqqicu/l7XkJSEACEngIgVmPu4rm3mMEM/6wD4KTxXFv3mufPyIKEBwxAlrGTXR3THHMetbx3NO3tDtzn5kSeXqbrJ8EJCCBjyawxevOA/3efTzHGj6OPMO7RzT3GAgzz+6NAuQV9LRnJIAjA+GtL1sYNtF3o/a/tY3WWwISkMBHEUCMYtB+2rauFZgR8lYb6LCekRH348HvSXWOn3wxbmob9pTx5Gc1AJ7cO9ZNAhKQQIdAnb8NUaxbvOQlIa3P7DmmLKYJEFEMFSICW/L7Y+JZytqTWgZA1HVpWmBPuU95trZ/zfqBp7TBekhAAhL4OgLVewvhqlvAzN5bn505RoTJ/0ojI+q11wBY+qKC/J/66d8RL3w1AOhHkwQkIAEJPJzA6A/AhECyxZPl07t87qh9BDLmxu9Yl7BXsGamJ/YaGUe+RkcbIxoAR/aOeUlAAhK4kMDW8PpRBkAW4ComR5XRywfDZm/CeMnfz9eyWGPwpLB45r237Txf++zo/I+oo3lIQAISkECDQMuDRRj5qWJ2xnGs+Od7fjzlM8po5XmE+AdOjIAWR849LSHYRxok1QDYu6jyabysjwQkIIGPJdAKu3PuKgOgJc5XnDtSBOPlIM8aUXmiEcCni0elagCwsNQkAQlIQAIvIID3eoXg3l0Gwow4IciI1lmpFQ14mhFAHY9KGgBHkTQfCUhAAjcQGM1h3y3ca8pnCoHIBZ44wnSk0K3tFhbb5c8sn2YErG1P7/5qADxpwWOvzp6XgAQkIIFfBN4e7seAOdOrBxOCHuF9RA5xZ93C0qp66hV/LvjsOq55oY/6Q0Us+qtG2pp6eK8EJCABCdxIoHpxdUB/8nHvHwwdgbNGEDhG8OpixYg8LBkDNb8j6rg1D9YBHGEEaABs7QGfk4AEJPAQAk8W+V7d8MjPEtX4G/+U0Vo3gHjGYslsEGCQ8FcMz6rXUa8L9T9iwV7LADjCsDiqneYjAQlIQAILBM5eBxBeMoKBoOb58Z7AL50/8lO+iicMgFwH6twL43M+M8RwYIrgyYYAUxO99lQeveOWAbA3z15ZnpeABCQggRMInL0OoPd9OAv2MAiy0M7unyk0CHfM+df6YAi0wv08A8f83JMNgWC/53VqGXJn9sueuvqsBCQgAQk5xF5TAAAgAElEQVQ0CCAGVeiOPsYI6IWH8yK72XJ7eTWat+lUKwqQ64bY9zx8pgeyOBIBgfHTElGLPRxzG4PNE9v5NO7WRwISkMBjCCBkMYCfuR15xLFafrb8vfAQvr8sZNISuFw/2jMSPMrAkIjpgad9DojhhbGyNeX1D8GFaQGTBCQgAQm8iECIVAzkZ24RTjxoBAjjg/nypfIQY8SF5xCevSk8fPLqzdcj4Ev14jrGSy8aEPUkL4wFtp+SWmw0AD6ld22HBCTwNQQQ1taA/oRzvTUEezsnRx0iOlHzxEOeYYAh8U3z372o0dOiHLU/PZaABCQggUIA73RG6O645yxhRcRq5KMl5JTP+Zm2E034hgSTFg8iNSYJSEACEngRgZ5HVwd5BJN7I4Rer/eO8bDxDnmOMPGsoJLfWQYA3dMyAiizFdbHSKINS3VvPfvkV2HLtEQvMqIB8OSetm4SkIAEOgSqN9wS87zoDTFs3dM61/p0bvb5PQvValMxJmp+PSNgtMgP0SSf3kLBMJRq+U88bvXNUj0x4lr9zDmTBCQgAQm8jMDMOoDsjSOCPRGo53solrxp8sFQODLhobfy7BkkcBklOLSefZMRMGpf61rP8NEAaNHynAQkIIGHE+iFdbOY11XeeSFdvq/utwQXHDNl4onjpR+VyAvDoyXQLSGnLa17a33IN3/2F8/V+z7hOCJBrUjAkX31CaxsgwQkIIHHE5jx6BFj7os0I+BhDCC69W/lIxZxfbSlnC2J8Haub+QRi9io09/KX/fbYwRE/pQZ6x3i3CduW/2Xo0Sf2GbbJAEJSOAjCcyE5PGGY954xmhoCTvlED2Y+RsAPL81ChAGSutb/zrlQVg72tUzAlzk9ufXnvch97EGwJ8ZeUYCEpDA4wn0hC8P8LHPvX+Uv38f187YUt6WFPPVGB1ZnPBeMSxqXSPawL2EuHk+7iMP0+8E6jRQnSb6/W6PJCABCUjgkQTWft5XxbN1HIKKd73GwGjlRbi+JoQ8PPd6jWOu58gGnj/nSK05bMqNOe5ft7kZEKgMNQAGsLwkAQlI4KkEENKW8O45h/fM3H8kygiPeku+eJwxr882QtCIPOLeMgZqmTGNgdC36kD9wkiIerttE6gGAP1jkoAEJCCBFxLYI84tMY1zCDQePKJd59/jnqO2hO1zuJ9uqEbAUllEQ0zLBKoB4DqJZWbeIQEJSOCRBOqc7pJQbrl+lpFR64LRkSMCsSiw3tc61pOdez2rAQBzkwQkIAEJvJDAGesAWgJ75bn8N/pnjYAlT5ZpBKcJ2tGcF772VlkCEpCABAidXynOR5WFIDO1EGsCar75K4IZIyAbANxP1CIvDuT63UZArIU4862tUym1LDhU1hpGlZLHEpCABF5CoA7oVx0jsmu/FOCZKlIct6YZ1hgBeQqA58gvC24YSvm+q7t3tmwEOU+FzNaT57IhxHNV3An51/ej9sdsed4nAQlIQAI3E2h5dXWQj2OEsSUCcX3NlnxYKDj7DGX3hA2xbhkBePORRsZG9va5vwof54JTvTfyP3tL+TNiG/WcuTfXmft5NhLsiLLk1Oqru3jkerkvAQlIQAIbCNSFXa1BPs4hEIhjL/Qe952xXRK01sp/jIws5i0jgLbMJIwMvPAskvFcLiPOHb1FjJe+VqCOwT5HQGbqwnuQ28bz+Ri+kXfe8pxJAhKQgAReSABhzQP6aB8vm9QTg9Gze65lT/5XFZobvNFaThVN8kLYMA4QuSPEu5bRrNzOkwjtktjmRZ3RV7PFYmBkwQ8+8XzOOzNea2hEfm4lIAEJSOABBPKAvrQfc+OI0dK9R1xfKzAIWS531sPf0w0IZ3DZk8/o2RkDgAhFbntvyqRVDm3IrMknGxw17ygnGw2tfD0nAQlIQAIPJsAgHgN63o7m1fGc8RLz/UfvbxXvOkVxNnrE8ewoAJGLpfn22u41deIdCMGPqFBEXujrXt/yDpgkIAEJSOClBKrXHIM9QoAIxDHb7CXWa/m+vfuI2dbwfJ2iWFo/sLfbEM4shDEXn/8mwd4yZp6vzOnX2UQbQvDDAIgIwlI/z5bhfRKQgAQk8DACrblzxCQEIQtAnVs+IwpAGSE+a1H95efnh58c1Yh2rM1r9n7EE17Z0IjoCfXYasjMlh/3VQOAsjFG4LE0RcH1qCeRg9zPuV3cVyMNW/sq6u1WAhKQgARuJFDFg+Ps7bMf9+RQdDYO4vqe7Vbxpx4hurX8CG2fhTc8ZqYCImVee6IZkd/SNupQ256Ps5CP8oNXbku9txqMs/nWfDyWgAQkIIEHEMgec4hG9gLxDsPbr6HlOB/P7dluEWu80lGZS3lmg4auIL96btRFuXz2SfkcdTvbCJgxAEai/qvaf9/Aaylqknkv8c15uy8BCUhAAg8jwCCeB/XYz0IYIoNhEOFimnF0FKAaGEuoemsYog0jgaJ9GD85EQJHsNekMIJ6URPqcqYREH0TbW5tazt77YNX7t96XzVucpvrvR5LQAISkMDDCfQEpA7uIbbVQ+yF31tCNHMOsZydW25FL3IZLQOAv0JI26h3FUbO8/xIBGt3xjM814sCcO0sI6DXf5lDbWdtQxwvca8G32y+kb9bCUhAAhJ4GIGWiFdvH1HkXPWQexGELEBb9mdW0q81AOr9NTQe1xHV2ZRFMRtN5F3bXcubLWN0H6Jdy6nHLUNolGfvWqtNvXs9LwEJSEACLyDQGtgRkertEyLnfHi6NK2Ghav47DnG2MhlVZQRleiVkacxWkJZhTGMmSUDIHvKtf1RX8pu1SsbCbU9W49b5eRztZ2z5dDOiIbUdkb+cX02T++TgAQkIIEHEQhhj0E9ttXbp8rMeVfDIIfB49mjtkQdeoKcve9Wefk59us9tLsmjIos8PV6tJX7IsEp8s4CH+sD4lpstwpylFe3kW9vmznUZ3vHwYu2IfLR7lrGlrx7ZXpeAhKQgAQuJtDyjmOgz1401UJ0ayi75+1GHkdsq9FBXXpeaZSXxSkELa6xzddnkNc8wlCIyEHkHfmOIhSt9szUoXVPTF1E+XUb9Wk92ztXjZqaZxy3jKhenp6XgAQkIIEHEuh5q5yvYd5eZCBE4axtSzR70xfUIQtfFW+uh4DPdgcGR14vEeJXDSgEmTQyUMhnbfm/sv3TpuedRz9kDn96uHGitifyaW1zxKORlackIAEJSODpBEYiUkPWCHEVlZG32xKOLecQTUQ1p5awR965jhgxcT62OZ/Z/Txd0psGIP8wVrInHeXGtmVczdYj30dZkWdrG3XJz4z2cxvJjzZgFMCwGoph7Izy85oEJCABCTyYwCiMj/DWKEA1CtZ4jS2Rmj1Xpx9A2osCZAOA+2oZW7sjjKXs/VbRDGZ1eqDW4QgBbRk3uZy10YY8pRDtCFa1nZRjkoAEJCCBlxPIolH3s9jRTISgpuod1jyWjhEe8kW4+enlV8tFABGqmn+9LwvbGuGN6AbPRNgeYY99ymmF+zFMaEetVz2uxlSt98xxzwjKZdU+7OWbWeY2cn/L0Kv39PL1vAQkIAEJPJTAkojk8DuDfvWwwzPOorNmH4H968/Pzx+DVefk10otoa33bTEAaptG3nSL32gKILOpLGvdl45b7c/5sz9jaORoQu/+mu/aKYaltnhdAhKQgAQuJrA0l5znvKlaPV56vgrHluORF8s0RnivrYWKCFqUORMByPfHc2wpo06JwGM0jZKfb+0T7dibqrFSy6F+SykMiRa/eDYbUpTRMxTifrcSkIAEJPBwAtn7q+LBcRU+Bv7subbCw618tp5D4FrCm7FynTq17suCvmQALBkzePut1Ju2mGlzZtnKe+ZcKwoRZecITi+vMABGYf1axhLLXlmel4AEJCCBBxFYCllXb6+KcojNkVsE5ghxzAvYRqLFnyGeqX/Lo14yHHr5YlzNCPTMq0LbajmzEQb6N7OhPTVlQ4pyqLtJAhKQgAReTiCLZBURjquQIFoIRnjcrWf2nENc8DgR5ZFXOoM9vNtWO+L5pTB6bgssot3xPNs1UQDa1zIkcn5r91tTEbRrJiHueWqn9Vwr/6OMl5k6eo8EJCABCZxAgIE8i1xrv3qFCAJCxn/aa91/5DkiFCwU7KUqTtyPAUHdav2yQYGQL0U/Wu3gmWoErIkC1IhKr11rz1cjZDaCQn3iXrat+rXekfpOrK2v90tAAhKQwAMILAlhDhFHdeu8cEssjzxHHbOARz2yl79UHnnwxQEeLwbM0v296y0veZZHS2CjLXu2mUOrv3p5h/hznf0WY65VA6PFoFeG5yUgAQlI4KEEZjzYGvLleI+I9sR1dJ7yWp7nrPiO8l57rQo5UYEWj/j7CYgrIrpGnNe+LkRDqFeNUKzNp3U/RlNmhDFlkoAEJCCBlxNAMPLg3tpveXyITeverecQFcohX37Yr54neVcjgPrz7NZytz5XvWWOsxGQ59Z5RaKeZwj02a9gjjAErze242xO5i8BCUjgdQQQ2xjYW1uErQ74HGfBaz03ey6HojO8lvBQZhVf6rJkBHD9yGgBedVEvTiPAdNKRE6qAdO672nn4Fv7stdnT6u79ZGABCQggQGBupiuDvYct4TrqCgA4sz8fE4s/usZGNxfUxgBLaHPBkwvz1abiUD0IhHcX6dGap1ax9V4ad3zxHOVW8/IeWLdrZMEJCABCQwItMLtWRR7oluFIT+zdp+8mCefybNlkGAE4IHXtnAcifxn60WbMUQoq/VMqw5Rzpu2cFsyTCq3M9czvImddZWABCTwegJ1oVdL8FoisTR90MrniHNZ1DP8MAJqGRgGf/llYNRrtAGxr+eXjj/FCyacX0P6cMyp9X7k6+5LQAISkMBLCRDOXhI8hLKm1jz9Uj5HXR954GsMk/Bmya9GD0Z1HZVfOT35uE5lYOjVtnFcWVSj4clttG4SkIAEJDAgMOMFV8+Q7NaIZhWRPcch3L0mrVmjEJ/skRdit8SC6y0Wvbq86Xx8Upjr3DIQPyUCktvpvgQkIIGvJNDy8qpAtwb9Vni4PnfWcfVea8fNtIm6se6gTnGQN4YB0wcYG7FGAQafKv7wo32tfq6GHkaQSQISkIAEPoAAorYk1K25d4Rz6bmzrmfPvdcFeLQzCwtbRkAvz08+34oA0F4ModqPn2wIfXIf2zYJSEACfyIwM3eOV13TjMBW8TjiGFGaSRgpM3XUCPgPmq3ICsZW7TOMBZMEJCABCXwAAQb0OsjX41bod8ZwqPkcdTzrha4xAlzg9ueXubUOoP7Fwz8/5RkJSEACEngNgTrX2xLqKpAzhkMrnyPOrfFCZ40A6sV/FDT9TqC+G60pod+f8EgCEpCABF5DgAVgS8LcWoE/E2JfynfL9dbniSPYa4yAtXmPyv2Ea60Fn63pgk9oq22QgAQk8HUEZhYDItQ1CnDXNMCMF0qUILxX6sk6hmqwcB3jh3uz0H3yJ39rX+5WpGdmIebacrxfAhKQgARuIjAj5lV4MQi2ePBHPINX30utxWuIfxZ56sC5vJ4gf0JIW0dl9Mr+xPO1v1prQj6x3bZJAhKQwFcQmBXz+kVAeNlVJM4+7nnpWcRbdeC5fL5+/85UR1zHQNAI8HPArxgAbKQEJPDdBKo4hhDm78Gr19zytuO5s7fUNws0i/i2lJnntGvIu7b3G9+QllFVDcFv5GKbJSABCXwMgdZAj6ASHcjX8kI5QuiI5BbhPeoZDIE9kYj8aVtrPQT5f3NqfQ44+/cYvpmbbZeABCTwKgItMQ+BzHPoeUFgPn+UqF+ZT/Xy8zRA1KNOFbyqUw+obCs6dEC2ZiEBCUhAAk8h0PokMBb/4R2HEGTRxENsGQ4hnmdsiUJQLnXCGGEqoiXcs2XnkHbPoMlTBU/pr6vq0ZrqycyuqoflSEACEpDASQRa4V5ENOba2Yao5r8N0DIc4r4ztj0x5jx1WWuQ5JB2nu7IdY9IyEnoH51t7vdgkpk9uvJWTgISkIAE5gi0PgnM8/5Z7OP81WsBwiDptYj6IOSzawMwGCL1voiISEjc923bFks4myQgAQlI4EMItAQwh/wZ9LMYhBHQChOHt3j0dk34edYQyN3Xq28v8pCf/dT91tTImn74VC62SwISkMBHEcgCH2KYB/v6uVwYAbFGIJ45a7tlZT6GDfVsTQ/k6Qw6stV+2kIeS4noxFKEYimPJ15vGYZb+uGJbbNOEpCABCTwiwBiX8UbUcypLrpjTrglEjWfo44xQrYm6slUBj9ELmoom7a06jljAGBk8OzMvVvrf9dzLePpm6Mid/WD5UpAAhI4jQCC2Brss6i1FoZhJFTDoCWkR5yjrCrcRwHJ6xxyXXP7e2UhiDxDHlsShs1TIwgtwwgDyiQBCUhAAh9EoCWCdeV3eLtZJK/cP2tlPkLfasest4uIz95bX5lYY/FEI2AmMlTb47EEJCABCbyMAEK0JILh7bbuu+rcnqmAUZe0IiCj+4+8BleMq7MiHFvr2uvvJxorW9vocxKQgAQk8EuEqpBXr/vuKMBZC9Fa7TrL2HjTy9ZaIFnfiTe1x7pKQAISkECDQMvjwzPOnmnrnmo0nHl81hx0axoAo+Bb0r931iK0DCPeCZMEJCABCXwYgdaAnz8JpLmte84U/Zo35WOIHJ3qgsZq/Bxd3lPyC+OH9tbwfmsdAP1hdOQpvWc9JCABCRxEoOXh108CEYkqynccI9h/PajdZEO7EMHclmr8zBYHxz9mb775vtyfMM0pX8tcMMJMEpCABCTwYQRan3/VT+Ku+iNAWXR6+xgofzsoKoBnm42ArVGA8KqpMzyXDBVC8HemzBbRzylfi/2tXHK+7ktAAhKQwMMIZPGKAb96hlf9KWCEhkVnfKY4Y3RQz72eN957nuaon0PW7sprJOJa67NK2tITeoyYO71quEVf179pkK/FPWy3RkeCkVsJSEACEngggdagn6MAramCLA5H7ecyMQRm80VQl7zuJey5PHhkz5h9xDyMknyNfFsGQNSdZ+r9YVDdZQRE+dSRtuaUOUQb2C4ZRjkP9yUgAQlI4CUEZqIAramCLBBH7OM1Uw5iy/7aPPcaAiHwS+UikjktsaEt2QggihDtqx54zves/WzQ0eacqFuPA8+ZJCABCUjgwwi0ogA57NtbIb4klndc32oIIHAhzKN6k39OHI/u5xr5ZgHNUYPMOed75n4YLdSrpmyg5HbdYazUunksAQlIQAIHE2gJfBa6nihkgXjaPvVf+wlbDo+P2hPTFdmbHt3PtRxur89Ffgd3aze7iPrkOuWb43puE8YC74FJAhKQgAQ+jEDLk83eafZaszA8fR+RWyOwrWhIbSNhcsQwLyCs97SOcz3ys4hrnia44tWinUQCeqk1FWAUoEfL8xKQgAReTOATowBZhGcNgeqd5zz27mfBreVgBGSD6+xXifJ7go4x0mqrUYCze8X8JSABCdxEoBUFICwe6a1RgCxmiDDiN0rZO8/PHrGfy465+Jzv2mmLUTvWXiOqwSLMXJ+63zMa1pbl/RKQgAQk8CACrShA9voQiJaRUEXiDceIfA7J526o3vmR7clefm+u/erpANpOmTN9yz0mCUhAAhL4QAKtud/86Rse6pGCeHdeTA20/qDQWfXK0wC8Pi3RvXpNAOJPmbNtzkbMB/4K2CQJSEAC30mg5ZUiDDl0PbNQblZMnnIfAkhUgD8qtBQG31vnvJq+9+VBLDS84i1sGX2jNhoFuKJXLEMCEpDADQRaAs+5SBgDazzGkZh847XsQY+mG2q0IPgfue0ZfEv9kttwZH3MSwISkIAEbiTQEwXOR0IAlkRizXUMDKYaWiHxNfm84V487pxGHvjZiwK3LuzEAMyRjNwe9yUgAQlI4MUEWlGAGvptrWLfKsDZ290qSlvLPuO5vFoeL7+yysZUvZbrA/MzhbbVz7n80X5eG/LiV92qS0ACEpBAJtD7FjwLG8I08l5H4tG6xhx8pKMjDK3yzjyXP5+MNmWhz8K+9NnhmeF26okxQqQBQV87tZPXhkQ73UpAAhKQwMsJ9IQpD/prV5AviS4iGR7vmZEAhI784wdPeK34LbWFxYTRFl6F1nz/zJRHnTI487Wivr1+b7UXbiYJSEACEvgwAi3BQgTqoH+0t44Q45EiRkeLcohYT1QxaPCKMUSOKpu8+LqgxzPqNNpmQ+KK12xNn569TuGK9lqGBCQgAQkUAj1vsIalCR+PBGzLNQyNI6cYah1aYfrS/L+Hx5+wODGvGah1POt41gioa0POqo/5SkACEpDAhQR6XivecfVK8xx3FdsnHFM/hBRhi7pWQ2aEFhYYDWcaJT1OdxgAsJg1AvLakBFDr0lAAhKQwIsI9ObiiQ7khEFwhzj2RLOer2F/BJ22rTECor20ledgMDOPX+uy5hhj66oEjxrSn4nuUEd4miQgAQlI4IMIIHa9+fDqmY7uXSN6vXuZFkCkthoaLZGizq3zs1046yX32rR0nvZelehnBD8n+MwYOXVtSM7DfQlIQAISeCkBQt8toUIYEIicjv4yIJeL8Ed5GB+ITr6e97kX8eSeMGCOFFPqcfafDc7tzYzP2Icn/FpCXo2c3tqQmXUVZ9TdPCUgAQlI4EQCPS+weoxUoQpGFua9+9QjRx56xkmdosAw2ePpB1rKJu8wKva2p/d8i2vU4YwtbKhL5RZlRf+zfoKEMVXrDpMjGP8qwo0EJCABCTyBQHiIddDnOAty1LUlEK1nt55DqEJselEHDJGjEnPjIYJb67z0HB4/Bk2066i6z+aD0dFjFkZdjqJQ39qmVgRhtnzvk4AEJCCBhxLohdwRxgjN56rHavsqEkcehyGAQLfy/Vuu0Mb9XpShVd7oHJxggojyQ74YTy0DamNVT3uM/qVteZEghkorEpKNhNMqZMYSkIAEJHAdAQb8nsC1QtaIRstL7OWx5zzC2iurF9aeJXeUARDtw5AiavG2BONqrERkINoW2ze27239YX0lIAEJXEoA7y4G+bqt4kDFEIJ6Xz1GEM8Or+81Ani+1nvv8RHRiSs7PyIWtUyMv8oCY8wkAQlIQAIfRACvvhX2RQB6UwFLHjRiQb4j46IKzJbjvUbAGesA9tbpylcLA49+aqWWgeRUQIuU5yQgAQm8mEAv7Iso9wStF54PIY/nRnnHvXu2ramKNV0RhkrPCNpSN0LrPWFdU7ez721FeHKZLSNg6Zn8vPsSkIAEJPACAr0FgQhgXigWTZmdCkAIjzQCiEoQgcAbpc7sr0ncz3Otny1i33smoiBr6nb1vTNGSo3iYCjNPHd1WyxPAhKQgAQ2EsCz64lZb9BveYg1jxBCvOJ6besx9dm6KO1IY2Sp/tH2jV3ymMdgnSM+GE8mCUhAAhL4IAIjQUfAa5qJAiCSCHbvs74lER1dR8y3JJ6jTqO8j7qGcG41Vra07axnal/vnXo5q57mKwEJSEACGwgQ2h0JY0tws2e4JJqjvJee7V3HaNkSkuYTSDzZXr5HnqfdnzB3Xr8OaE0NbXjtfEQCEpCABJ5AoM75ZiFEyOpftRvdn589cx8jpNZrliVrAs4wTFrt5X8NvDlVA7H1Pry5fdZdAhKQwNcTGHn1df53tHagJYJnndvjZWM8HLlGYdRG2L45GlDXUNAekwQkIAEJfAiBOt9bBa2uvCcUfJUXnevS+mNDe/4YD+1o5ZnLPGof4aSuT1ofQF1mwvp16oRpGJMEJCABCXwIgTrfW4WvChfh4au86KgLdcR7r4sXtwoSed1hyNAeRJUf6r51OmPvq4f4U5elBX4tA7G1PmRvfXxeAhKQgARuIICgj7zhXuj3yjUB1C8WAFZDgPrFtVl8V9Y9jJje9o71AvCK+iwJestArEbhLHfvk4AEJCCBhxFYmt9HMFupzhOHqJyxrUKfDYF6rVXXfK7l2Z5R59k8iQisNWJye7bs52jKSNCpV42WcHx1fbe00WckIAEJSGCCQBaElnD1ROJKI4BIQF1YhxCxVqGeX2rylfVu8azn1hoxS+1buo4BFXXAABmlFqur6zuqn9ckIAEJSGAHgZanFwLBNofhazEIcL737P2j5s9bwnZ23Uf5Xy2qRHbCu699Wo8xEmrd6QeTBCQgAQl8AIFYHFYH+jgeLRprCUQ8d8YW4WL+fG8omshBiOAZ9Vyb59VGAK/tDMPetEn9UuQDfg1sggQkIIHvJLC0wr8Xal+KIKwVwtn7jzAEELcnGQFP9ax7iyd778R3/gbZaglIQAIvJcDc8EgMnzQVkI0E6hyfC25B/zQjgOmJpyWMPPo/c2cf9r01Ik9rg/WRgAQkIIEBgaU5/dFUQEsgqmCcfbx1jcDSFMjZ9c75I6ozoflBN55yCW8/1zP2R4bhKRUxUwlIQAISOIfA0px+L+z7pIV1WwyBUfQDsYsvDmgn0yW9+zlPyJw5/RDJtdunTgX0poloq0kCEpCABF5OYGYqgLBvDVXftRZgJK5ELGa96SXBbi3SI3KAWOc6RJQERvn82n364epU+7SWP+rjpxottQ0eS0ACEpDAgMDSVADXW14f4rdW6M6+H4+8F7UIBPnb+FF9aHNrzhthxOuPaRDuW4qkjMrhGvldnfDwl9JouoT3wiQBCUhAAi8nMBIwRBUhqGK41+tdEsU910fRgOrFj8qh7aN/SIQXHYbAKJ+lay0D6+xXasYAoA4jXktRhLPbYP4SkIAEJLCTwCjci3j1PNQjxG9JHLdeR7z/2uBCW0ei1ioPA6kaQDnrIwyBnN8V+9R5KVpCPeDV62cYj7hc0Q7LkIAEJCCBnQRG4V4GeoSgpidOA1QBR7xbQodRU+9dOh5FFmBDnrDK+cwaHK06Vt5HH7f6tFUGdcttyvu9d6OVj+ckIAEJSOChBEaC3lr4NTIaskg8YZ/618V2eMFr64bg8dcJa17RpZzPUyrhIfe86Cg/7ot8nrYdGSuGXjgAAB/RSURBVExMYcwaE09rl/WRgAQkIIFfgziDeYhS3bZEqnq89ZmnHVdDgDZtbUPNK79E2ZjCIBgZAJR/d6KOLSMv16v3aSB9PLumIOfnvgQkIAEJPIgAgtgTbUSiJkSjd/+Tz1PvCLtviQTktsEl8sp8iAbgOY/En3wo/+5EG6jLyAjAyx+1ZfTs3e2zfAlIQAISmCAwCvdWsbpzGgAxQrj4GQlTFuu6H3nU81uOyau18BDkGFZ8OodIRp2zETLRLafekiMW9GkvLUVM6vvRy8fzEpCABCTwUALhEVYhROTqfO/WEHrNe+1xS3DxxGe87rVlrbkfHkf8F8MrX4280I/6I/S9tGT0taIhvbw8LwEJSEACDyNA+Lon7AhsTniyawTy6HupJx5sFi32MRC2lsXzMMCjHc19L+UPm1yvzO1p+5nXkhEAl17bl559WrutjwQkIAEJFAIjTw9xjMR+TwzOPo/YZOE6qry6sp027oksEFHpTQ8Ex7u3deoHrjXak+tY78/s6ZfRszkf9yUgAQlI4IEEet49gpZT774sCmfsx3z1khGAF84P9xMtWLqfulYjINqL9zvzfKu9PMdfF3yiOFInhDvXG1ajNOr3Hr9Rfl6TgAQkIIGHEEAUep8GhvhS1ZZ4ZCE5ax9BRYR6axaiXIStzsszV10FL+6PLdcRwb80+gNDYOn5yKdueY5650hKo4jLT7VC+0t1XDICLm+EBUpAAhKQwDEE8JxbQse57MnmhWRV8J5yHMKLoP8xMG5a9Y1nCeWHKNL+PWsEKIfnn7RwrhpTCPxSGhkBM88v5e91CUhAAhK4iUDLM0S86uDeMxZagvr2c0QfEG8iBEe0hUjLE9YJtKI5YfCMXr/Rf5as78koH69JQAISkMDDCPSErnqviEX1Io8QyFEeCAxTEtQl/2C4sFgNoV4zb7/m3lG9tlyj7LvXCVRDbmktQLyqo4WB9IVJAhKQgAReSqC1HgDBylMB0TQG/CsMgTXeJcYJ9eKZkcjTztH1LcK+9hmmHOq6hWB7xRaDKupMXWYTbOO5utUImKXofRKQgAQeRqAVHmaQH3mIYRyw3TtfXgVlqewlfHi61H2L2PMcHu+skcN98Uw8N/ssojoThl9q79rrCHYwh9VMop9bhmLkoxEwQ9F7JCABCTyQACH2GMzzNn8VMKr2rOjlvEf7vQjEqA6ta7Rr5L3WOjDnHQnRQ9h6bUMQwxCKZ/IWcSW/JUPkDkOAfiUCAJ/ZVKcQKjuNgFmS3icBCUjgYQRaC74QiZHIRRO4h3urKOw5RhiPSnjaeOozdSREXxPi1zIkyI/zrU8Kcx4I7RMNgVzHmf3RegD6WiNghqL3SEACEngggVY4Hw94JrUMiD0GAM8eaQREGxBjhGwU0oZDy/DBkGgxinZS39ZzlM35UZk5jzumBoLPaJvXEER961YjYETQaxKQgAQeSqAnUjk0Pqr6kpdbxWLm+AwjINqA0PbC9Hj3vRD5yKOHwejTPxiHEULbWswo+87FgsEnb9cYeBoBmZz7EpCABF5CoDXXiyBxfinNeIgzol/v6XnkS/VZc70ncEwdtLx6znGt1jWOYcb1GW7khWhiEMTzbJ9kCPT45Prm/TMNtzX96r0SkIAEJLCCQEvI8VRbQliz7S2ay+KwZZ/yERW+p58R1VqvmeOeyI2mQRBuriPWvXZxDSMGr571AqP6Ex2o+fD8KKow07a999D3rWhFrWs+1gjYS93nJSABCdxAoOXdjoQwqtgSsCwKR+0jRpR1ZBotckPMlgwgphQwCEbrBGr7EXe48lOv1WPuObrNa/i1DMNax3pMnZe4ramD90pAAhKQwAUEWovWMAyWEmJZheCsYwQG73iPyOCRz9QZsZ4N6y8tGNzDg7retVBwZKjwvmAk1PeG47vqu/Suel0CEpCABBoEGLQRvSpWS4u8EOPWczWfo48RJwSaaQJC7TXcTr3iPPcgpGvD2lFnRG3G8FgTDYi8Z7bwbX2y2OjGQ0/13gnqHEYYBlVtA/UdTX0cWkkzk4AEJCCB/QRaYd+Zwbz1XBWFTznGGMCYiDn+bGScbQjdEWLHAKx9B4Oc6vU4XjIecx7uS0ACEpDAzQRa6wFmjIDWcyEEbv8soluZzPTF0a9Qa8oEYwQjaCnqcUfk4uj2m58EJCCBryGAh1cFinMR9u2BaAlFzcfjP7PdwoRpjasS/d56J2brjZGw9O5c1RbLkYAEJCCBAYHe3O+MEUDY9+xQ+KzwnHEfK/P5hHDPmoKj6kUdrkoI+NY1FLSXZ10XcFVvWY4EJCCBHQRai7sYyGeMAMQCkSRMzMCPQcD+Urh4RhhDSDBSKGOPKFFe1G02nyq6cGL64y6jp9ZnR5cvPkpb97bzysjFYoO8QQISkIAE2gRaC8BmjYCaYy+vGdFv3YNBwcp8DAH2W/fMnMMoIa0Jc1Me5dZEG/fUZaa+rXtmjLJa163HRxgBTglspe9zEpCABC4k0PuLeWtFZ6/n2BK+OEddYn/rFuGejQJQBu3pebNME6zJa2ud83Nr+2PPK3SEEQAf8jFJQAISkMCDCRBmzmIT+2tE50wDIOpzx5Z2weeP0n9758y3tGVNf5Tqrj5EvEdGDtMiJIyhkYHWM6J+Pe5GAhKQgATuJtCbv5/15L7pM8E7jZ0rjYDRtEkO8zNdMjJoelMqd7/zli8BCUhAAgtz5AjeUjh3JBYjcfDaWDxbfK40Avjl6EWIqBt1QeCXjCKuGw1wqJGABCTwUAIjEWcAZxHcKI2ebwmZ59aLfzC78usA+py+XxL5qNtoazRg9BvkNQlIQAI3ElgScUL93NNLS8+PxOHTr9X//kdUBWFFzEfz6D0uVxsB1HdLPWv9MST489ImCUhAAhJ4GIElEUcERlMCPI+nVwf+bz5G9JYS3BBG/pXxTFgdnlcbAbRh9K+Wo4+5b7SIkPtYR9D63HKJk9clIAEJSOBEAktGAIK2NKeLOIUgvGFLdCP+CuCacPessbNG7LiXv4Mwk/fS1MwZr8mR0YCl9+iM+punBCQgAQkMCCwZAeHFcV8vvckIwLPNiZD9qP4YCbnto3thxfWlhLD2vsgYGVF3GAG0BYNpjbHUa8NSVGmJm9clIAEJSOBgAjNGAIN3FsJahSPmjXvCcfT5lpDijWMctIQOUY/pEBgs1SfurYw45vlWGUt5xvW6xqBVxhnnqPeS8RN1XNourTE5o/7mKQEJSEACHQIM8EsiPjICeH5pPnhJGI64jkghkvww194TrZYRABra0TMEqN9MuB5OvYShsaedGA8jA6NX7lHnqX+P6Zp20Q4XCR7VK+YjAQlIYCeBGS9vZAQgumtE4Ix7ESfakVPPsEHMmYNvpRkWo/rXqYZcBtdGzy5du9sIoC0YIUcYAvQBRoVJAhKQgAQeQGBpYGfQHiXEE2MAobsrKsAcO+L+7xNiSx25ryVEtGNrG3pRBtjh/W7NNwyEUf6j/jny2lERAacFjuwV85KABCSwgwADcghNa4uRMJsQu54X3sr7znPUE2PgL6lxGDRbxboVkUhZ//1vBGxZEBiMePYJCUZ7DT4iG34t8ITetA4SkMDXE8DDDKFpbdcYAcAkPwb5Vl5PPYfwE/HYU2+e7UUY4iVDQDGUEFHKGxkcGCmwhyfPPS1Rrz1GDW0n8mKSgAQkIIEbCSyJ9lojAMFC4J4q+FvqBYNZA4F7mZpYI9zcu+b+G1+X34pmeoBPCEfGzIg370lrWua3QjyQgAQkIIHzCLDgayRwGAlr096FcCPheMs1BC6mG94o8Gv6nHeIaaUtxgBGk4bAGtrb74UzBioRnGyoR9Spt2h2e4k+KQEJPJ4AAjWax99iBPDMW8T6inoijmEUMBfOOoS8FuHxL8lkBSMyMHqfWrwxlj7dUJpEePhtTLlgaLW413O8p37CeXgXmKEEnk2AwXc0t8sAsjYx8NQBxuM2E6IwGAjxg0eNKMYP3hkGw5u8Zd4pxIR3ZyY6EOspNATW/qa17+ddmRF+jDWiOPl3k/fPJAEJfBmB0RcCDCZrB2cjAb8PrHmQ3bL/5gV0CBLvw2jKCSYYC4aj9w08M5zj/UP8SdlI0wD4BcWNBL6NwEi0w1tYw4TFYjHYuN3O4imfBa7p+7iX6EUYj7ORIQSJ6ZJ4LvJy2ycAq1Ekr/X7F3zzNcYAkwQk8KUERosDt4Rq86KjPNDM7FMe0QcMCcRjZKDM5EddWKjID57OnrrNlHfEPTB4U/i//togSnlueY1RGO/bm9tfeZxxzO/s2rUXvJsYWvV3IKICZ9TTPCUggRcQwDMYDSgMzIRqw4MYNWnW66tiiUjX/GfmNWs+cUyd/2hUdGv9It+zt1k8G9V/5akt/cgzitOfu3tksK99NzEGTBKQgAT+TmBmoMbDWzIG1g5E3I+HHivm2Y4MkjX54/XQLurMT57/XJPPFfdiBH1qmnm3WowRKfrNtD8iVvka/vetkoAEfiOwJuzO4ByfuuG988NxHWiefozxkaMPhKAR4yvr/eZ5/99eoM4BfPcYdUR06KdvnR5Y83s5897SFyYJSEACfyJAmPHJnvLMALfmHrzTVkJw1uSz514+A/z0tNcICL7fFhU4Wvzh6PTKp/+22T4J7CDAYM1AG4Pup28xeBDh7GGeMfDCEa78YGCwzcYW+0QDcj12dOPjHj3KCIBjRAU+WczOeAc/earpcS+8FZLAmwlcHQqfMTTw2LfOKc/kjwgjzntC1rUc8uoJFQv/4n7EH5H85ET7ju4/+ozpp08ynM4QfwxOkwQkIIFpAggU3laI1N1bPPWjBeTsNlHfKuwc05Yo+9sG57OmWDC2lhaqTr/8N92I+GPUsI33Zq9BSn6R103NslgJSOCNBPBe9w5AIXTfvEXkw4CpRhXfzH9bQuAqhyPfj/hq5U2RgfD82Uai/ns48WwvAhVluJWABCTQJYD3cIbnzbf5pDV/NOZIkXhKXhhY3+ihXWVcwvfp0wSwiPcR0cZY5Pdjr/H9iX9f4tew4UYCEriSwBlCjWFBiDIGv2/dMuh/63fvrDfZ4+WueWcQVMT1SV4xdTmj/TmScOU4YVkSkMCHEjhrsFoziH/yvbGo7dsiAoS6CdvnvmXahPNnvXOILgbonesGzmob6yxMEpCABA4ngDgxOOfB+qx9BukrPcSt7aCeeJbxL30Z2Anh8kMYljbwA7cZb497cvgWkUIgOc8P+XxixABuebppltfWfsvPRXSAPrwinSX+vCcmCUhAAqcSOGs1dx6Uw5O5oqxc7hH7iFf9WTuni1ExmiIh/6OiBeRDeUflt+flow5MOa3ldUS/RR6wDaNuT1taz9K+GUMw6jK7hdcT+q/VZs9JQAIfRuCoTwXx+hD5KnYMwni69fzsgPgN9x0x6BOpgPET540RNN4z3o8wqOr7EOe5hzbwU+/Z+y6EQcA/m9ojsjx7lmFDVMEkAQlI4DICDGg5bLtloOX5GFSZ993j/TG4Mlif4WFtadsVzyB8WxNeLnWkD3qJPmElPffANotrTElwnvDzWV5zr271PHW9ou9hAA+4zAov950l/nvegcrQYwlIQAKrCIQXuVXwGBjrQBrGQBacUf75eQyK2edGeb7lGvzXJgSM9vXmjYm+7BEsnkWYrppXp/2stbirzzCCaC/capt5N880TPK7v/Y9uPP+MPzvrINlS0ACBxDgl5kBcGkARqwI0zJg1nvxIFtpZjFgHQS/yQCgrWsG0xB/RLo+R8j9aHaIH2USQj8zXRUBqO9t7xi+sYCzd88R52sfnsn4qLzDKHri1NNRbTQfCXwdAX6xlzzH+KVnwA4xioGQZ1seLYNcvTeeYYvIYEAs3Zef+aR9jKSZFAzhBf9I7LeMsqMZUS6GYi476nDEdub9O7pNd+eHkbGFJ78rRCtqxOKIfhjlEeIf3HqG/ygPr0lAAg8mwFw+g338ktctg1Z4LgxeIUxxH8dxPTeTweMKoYp6vGnbMpwyu8w4PjWEMQPwHe3E2Dvrk8YzFgPewWhNmTENQX/GVEQIPNEXzvMOjCI8XON3k3vPMAx4R1vjAuWe9S7k3wH3JSCBiwggLgwmvUGMgYCFVJEwBPL9XGcgaqUzQtW9er7lPLwwkGqq/YDwhvC3BuOt7SUvIhHhjdJHM3lFP8dztf57juFBxGEkejN1/OZ7+J1EnPf2D7/LSxzpJ/pr7xcXvDPUNwygut3blj3vpM9K4KsIYPWPBmA8l+y9sp+nEUbewTd6eqNBFDGNv3/PIMege6TI01fZSIu69CI2OeoQ94623J/fhSN/UTAGiEwZQVoW4l4f8Xu5NjqA8TD6/e+VFefpr/jh3aP8OM7bPGbEs0tbnjlzSurI99e8JPBqAkuL+Rj8s2Ve7+eXvScOGgLbB/WlQZLrDOCwR0SzQcF+TCe0Xs7ZKECtA319dkiY9vCOUVYt3+NlJvQ97BDQMArC0+YYsc7vytOZ9ozY1nvtOQlIYAMBBL7lQcbgwIDB4EGImsS2epEaAsuDc/Cc3cKdgbx1P+fphyr+eE/ZYPvVZb9tuN7Kc/YchgcRjXgffsv84IOrDIIQTt5rDJDeD78nvOv8vElIZ/v2iffB2iQBCZxMgMF2FLJj4M+eJUJSDQEGyJ4AGRFYJ7yIEH1SB2U4whijLF9b4y3l5/I+/U9IPvdh751AACkz33vyK/p3HnDp1Sm3ZWmf+te2bqk/7aef6BfqBpM3Ggj87h7BdYn7luuwNUlAAhcQ4Jdt5N0wuDHgRWIAZODLz4yEASOCPLYMBN/0DJzqgAzjeg4m8F+TKkfyzH0aeeHl536tz8Ux/cn0wBVRgahbvHdb5rLXGEtR3tYtXOnLI40D+mSmX6J/lraIP4l6Lt17x3XeT5MEJHARAQZyBqzRL3sV+XgmD8gMLC1hoRmEr8ljVIbXlvmsFX/YZ670QSvRny1jIz9b9xEljIH4YariiNXqrfrFOeq5xqAMsYvn79zyO8DvR0QPwkioXPMxfUKbiV7k83v2EX7SrAFAHaKPqXP+oT3xQz1JcVy3tIF3ZMaY+ZWVGwlI4CoCeFlLIl0NAerGgJbFg8GCX/5WoozZQWDPIPeJz2JsbUnBoieGW8Q/8uxtqSv9fPRfH1xbV963J6el37eoP6LbY732PH2zZETxrmCwHJXIC+Nwqb3Rlt74cVR9zEcCEugQ4Jd1aYBoiTy/tPkXnIGmt4CMgbwaDvHLjzGRBx88lRmvIZ7/1C28coIhvHvCzr08EzxCTHIecKaf4p4ztvQd9dxjDPAseax9D3j/WBkPq1aCSaycZ9ti1Hpu7znqQ78t8Y7v8Zd+H5fyWXsdzhhw+fdw1GbaExxhHl8hbK23BsCIttckcAEBfgmzZ98aRBCPOh/MYIDHkoVl5FFUw4FBow7YWweSVp3fei4PighV7psI6+bXIos/ba5MGahnWCAG9GeIYy535vl8TxgDM1MFlIeQ5Pco57Vnf00bePf44R2mPvxQ/xC8yjX3Qd5HTMMLXmvI7Gnr3mepazDI2zUM19Yhv+uZofsSkMDFBBCSpUGYQQKPIUQiqljFnXt6AybnmSeMsmLAxQtaO4DceT8DYxXoI+oDGxgh3FVA4JpTFX/KR8RJ1I2BnHPkw/naT1HfaMuvR//uEday494tW/IKUUFYaQfH8Q5syfMJz8CNdpwpkk9o51l1iPfNrQQk8BACM4YAAwLCXS14hIvnucbgvhRaxKPN0wlnDTRn5BtGUIhsLeNIAY28yRPG/MA4ztct16L8aoy16pv7if23C3Pl4XH/XbmLDe+nSQISeCiBWUMAsajTA9GkLCxxrrVF0HJUoDcoPcXjwmgh9dYtcL7lnffaddZ56pATjGtZ0Rbu67WnPhPHPPtWAy7a4PbP78QVTDBETRKQwMMJICItr7EOElj0eJvhGW9tVi9MTXlhbETe3IuoIUJXeq1hiFQGcYwHPsMs7j9jC5ecMMYiKpDLY2qA6ZcaUYj+bBky8KafW3nSD7wH5JvLcV8e+R2Iqar8jrovAQk8lABiW0Ui/0Lnfe5DVPakmE5oza9WQyDKQZTwYhGg1nO5jp++D79IcGmJf48BAh/PI/JxH9xj2qeKPwZPXKPcluEQ+bj9J9NvZcH7Y5KABF5GADFBIGYEBcFg0VeIydamMli0yqQOo/wpF1HC27jbI796oIcNbYYb/TBbfvbM4BeGFFuO6X+YR36UU6MNiv8/+QQnt//BpBqKW8cEn5OABG4kgBggFrPighBlD3Fr1XtTEuSPOC0l6oBgEaWYrfs3Dd7BMIs/7ccACGMgeCD+1ZPLxkHc51aDQOFfGpm8LoGXEkBUEeCZgT6iAiE0W5vM84T6EaFc7trpB4QuogQ8y0CF0NV8cxmfvE/7WdQ5YxxhjEWCI/w+mY1tW9e/vEsY23t/1+MdcysBCTyYACLAL3z1FHsDJ4KB2OxNragAAo5R0vtCYalM2tLKt9eWJ56HL2sizqpbeP9rvx44qz7me15fL7HFYETwiQpiUPP7Y5KABL6UAOKAhz7jSYZY71042IsKMHhhlFAfylg7OJHvbIRjaaC88jp15uesaAZ56/XfJ7pXvktRFr9HIfQYyIr9lw7wNlsCswS2GAPhXc6WUe9b8t4ZyBAw/uLebFkYAgredwleCN+3bTEaQ+iJ8Mz+jtTfQ48lIAEJ/IPAGmOA6AFeO3+PfWuiPIR+ZgDHKEDgWcjG1EHvH8fMRDVmyvOeuX6R0zWcePeZwlPst442PicBCUwTwKOeXTOAR8IAhTDz3NpE2H/NVwuKzjWiI+d7OWP0Ei1bOy229vfP+yUgAQl0CawxBhANBi489S3RAQY8ogKEOM+aH1fY7hU2+Y/58+4zf2+SgAQk8CgCYQwwSM0O5BgEschvS4SAwRDDgCgBkYY1Zc/W0fvm+1NWv7PifeS95P3kh8gZ72wc8+5zz5JBy/SVwv+o4c7KSEACPQKEJhFmBr81osBAxzNECVj5v3Vek/IZMBlwGWwZZF0DsK4v1vSb9/6HiBOhCpHv/W70zvfW2WAkmCQgAQm8lkB4PVs9dMSbZ/NCv63znwy0rJDGMIgpBSIRd4nYkvd3V70sd/md4L1EoHmfjkzkhyGMEW2SgAQk8FEE9hoEWZwwDCJqEF8BbDUOInIQBkKEaCmDnz1RBIwM8iBPjA8YxLQH5eI57sk/M3F/Wby3MgrR3xqd+qhfZBsjAQlIYC+BIw2CPLAjuHj5MaWwZfHhUtsQcerf+ll6tnU9QsF3RiUyQ/f/Gd4/2tNv9b/nJCABCXw1AUQwFvch4keHyckvvPH4KuGJHl1EJGItA5EO6j36weCJRWZsEa1snIxeLBhw75ns32JQ8I7AUtEfvTFek4AEJHABATztCM0jhGeFy8m3GgdnRA4uQHZYERgGGBM95ogl18OIwnB5i9DnetI+Rf+w18aMJCABCZxHIHvIMV/fE6k80G/dj8hBTCvEmoMQvvNa+oycMcKImFR+GEw50Rf1nice865gTBJh+ZY+zP3kvgQkIIGPJMCATjgbz/QK4wCBCwMhFiXmtQdvEhgiHvxQf4wdBH5JwMN7pu1L955xnfIjchN15pgfjnkP+InP9DAeTRKQgAQk8GUEsnGAKIRgXLXwLsQqBAuhjZ+IKoQIx5cCe7qIPCI/tvwzpSjv6rbvFf8s6EwJvcmw2tOHPisBCUhAAhcRiIVzsQAvoggIEJ7+XiHz+T7D+GRSj/2il91iJCABCUhgPYEwFGK6IULNGArxo9j/U+yDSQ7LB0PD8uvfP5+QgAQkIIGXEIjpB0QvPrfDaMgRhjdFGWLdQwg7awDCCIpPEA3Tv+TltJoSkIAEJPAsAszhh5ccn0KGyCK4Ib6sLYhoQ4TR49rMNot35B8iHuUfsSbhWXStjQQkIAEJSEACEpCABCQgAQlIQAISkIAEJCABCUhAAhKQgAQkIAEJSEACEpCABCQgAQlIQAISkIAEJCABCUhAAhKQgAQkIAEJSEACEpCABCQgAQlIQAISkIAEJCABCUhAAhKQgAQkIAEJSEACEpCABCQgAQlIQAISkIAEJCABCUhAAhKQgAQkIAEJSEACEpCABCQgAQlIQAISkIAEJCABCUhAAhKQgAQkIAEJSEACEpCABCQgAQlIQAISkIAEJCABCUhAAhKQgAQkIAEJSEACEpCABCQgAQlIQAISkIAEJCABCUhAAhKQgAQkIAEJSEACEpCABCQgAQlIQAISkIAEJCABCUhAAhKQgAQkIAEJSEACEpCABCQgAQlIQAISkIAEJCABCUhAAhKQgAQkIAEJSEACEpCABCQgAQlIQAISkIAEJCABCUhAAhKQgAQkIAEJSEACEpCABCQgAQlIQAISkIAEJCABCUhAAhKQgAQkIAEJSEACEpCABCQgAQlIQAISkIAEJCABCUhAAhKQgAQkIAEJSEACEpCABCQgAQlIQAISkIAEJCABCUhAAhKQgAQkIAEJSEACEpCABCQgAQlIQAISkIAEJCABCUhAAhKQgAQkIAEJSEACEpCABCQgAQlIQAISkIAEJCABCUhAAhKQgAQkIAEJSEACEpCABCQgAQlIQAISkIAEJCABCUhAAhKQgAQkIAEJSEACEpCABCQgAQlIQAISkIAEJCABCUhAAhKQgAQkIAEJSEACEpCABCQgAQlIQAISkIAEJCABCUhAAhKQgAQkIAEJSEACEpCABCQgAQlIQAISkIAEJCABCUhAAhKQgAQkIAEJSEACEpCABCQgAQlIQAISkIAEJCABCUhAAhKQgAQkIAEJSEACEpCABCQgAQlIQAISkIAEJCABCUhAAhKQgAQkIAEJSEACEpCABCQgAQlIQAISkIAEJCABCbyMwP8HBjy886LoWKwAAAAASUVORK5CYII=;" vertex="1" parent="QO4F9BHPAcaRKNSe1WLH-31">
          <mxGeometry width="51.59420289855072" height="51.59420289855072" as="geometry" />
        </mxCell>
        <mxCell id="QO4F9BHPAcaRKNSe1WLH-26" value="" style="group" vertex="1" connectable="0" parent="QO4F9BHPAcaRKNSe1WLH-31">
          <mxGeometry x="50" y="680" width="200" height="190" as="geometry" />
        </mxCell>
        <mxCell id="QO4F9BHPAcaRKNSe1WLH-18" value="&lt;div&gt;&lt;br&gt;&lt;/div&gt;&lt;div&gt;&lt;br&gt;&lt;/div&gt;&lt;div&gt;&lt;br&gt;&lt;/div&gt;&lt;div&gt;&lt;br&gt;&lt;/div&gt;&lt;div&gt;&lt;br&gt;&lt;/div&gt;emit(contactUpdated)&lt;div&gt;&lt;br&gt;&lt;/div&gt;&lt;div&gt;&lt;b&gt;Actions&lt;/b&gt;&lt;/div&gt;&lt;div style=&quot;&quot;&gt;&lt;ul&gt;&lt;li style=&quot;text-align: left;&quot;&gt;create&lt;/li&gt;&lt;li style=&quot;text-align: left;&quot;&gt;update&lt;/li&gt;&lt;li style=&quot;text-align: left;&quot;&gt;delete&lt;/li&gt;&lt;/ul&gt;&lt;/div&gt;&lt;div style=&quot;text-align: left;&quot;&gt;&lt;br&gt;&lt;/div&gt;&lt;div&gt;&lt;br&gt;&lt;/div&gt;" style="rounded=0;whiteSpace=wrap;html=1;fillColor=#e1d5e7;strokeColor=#9673a6;" vertex="1" parent="QO4F9BHPAcaRKNSe1WLH-26">
          <mxGeometry width="200" height="190" as="geometry" />
        </mxCell>
        <mxCell id="QO4F9BHPAcaRKNSe1WLH-19" value="Websockets" style="text;html=1;align=center;verticalAlign=middle;whiteSpace=wrap;rounded=0;" vertex="1" parent="QO4F9BHPAcaRKNSe1WLH-26">
          <mxGeometry x="82.02247191011236" width="35.95505617977528" height="37.99999999999999" as="geometry" />
        </mxCell>
        <mxCell id="QO4F9BHPAcaRKNSe1WLH-25" value="" style="shape=image;verticalLabelPosition=bottom;labelBackgroundColor=default;verticalAlign=top;aspect=fixed;imageAspect=0;image=data:image/png,iVBORw0KGgoAAAANSUhEUgAAAgAAAAIACAYAAAD0eNT6AAAAAXNSR0IArs4c6QAAIABJREFUeAHtnQ/kntX7x9++kiRJkkwmySSTZJIkySSZSSaZJEmSJEmSRDJJkkySJDNJJkkmk0wySSZJkiSZTDKTJEl+P+91P+vZs+fPfd/P/edc57wO83z2PPefc17nOtf5d53rkkgQgEDqBM6RdImkLZJulrRT0sOSnpH0iqR3JH0k6eBA//ZL2iPpRUlPSrpf0u2SbpB0haQLUwdK/iAAAQhAAAJjEzhb0pVVB/qYpFclHZD0laSfJf1f4H/HJX0v6ZCkfZKeqwYLN0naODZ43g8BCEAAAhDom4BnxNdKukvS09Xs2Z3i0cCdexcDk78kfSvJKwovV6sa2yRdLunMviuF50MAAhCAAAS6IuDZvDt6L4nvlvSJpGOFd/JtBwr/SPquWjnwoOk2SZd2VVE8BwIQgAAEINCWwCZJO6p9+Pck/SDJnVbbDo/76rH7XdJnkl6T9FBld3Bu20rkPghAAAIQgMAyAp55evnes/rP6eSTHOQckfSBpCck3SjJqzEkCEAAAhCAQG0CZ1WzyscleWb/Cx1+kh3+qhWTvyUdrk5JePDG9kHtJsCFEIAABMog4I7Bx+o8u3eH4Y5jVefC7zEZeTD3frVK4COLHuyRIAABCECgEAJeGt5e7SH/RGdf9GDHpxDsO8HHL+2/gAQBCEAAApkR8LGyRypnOVb6zOBhME8GPCC0HwYfRcSGIDMlQHEgAIEyCHhp99ZqWd/W+fOUPd/BZZkM/Fk5ZLLHxcvKaDaUEgIQgEBMAhdIelDSh3T4DHh6kIEfJb1UnTCI2ULINQQgAIGMCJwv6QFJH2O8R6ffQ6e/aIXALprtufD6jNoSRYEABCCQPIHzKk97Dn6DxT7L+Is66aG+t/8BrwzYAyQJAhCAAAQ6JmBPb/dWe7J0+nT6Q3XuTd9jI0JHSLymY/nncRCAAASKI+Dz+ezp0+E37YhTuN4rA45+iAFhcWqLAkMAAm0JOEzs83jgY09/wD39PgcMjg/h7arbJZ3RtlFwHwQgAIFcCfyvcs7j2T4BdZjx99khj/lsGw8+I2lDrg2ZckEAAhCoS+AiSQ716uXSMRUz74b/kDJgOxbHmbi5bkPhOghAAAK5ENhaxXnHoI+Od8iON8V3fV+5IvaRVhIEIACBLAnYtarjt1vhpaiIyRP1MrYM7JG0OcvWT6EgAIEiCVxcGfUdp+Nn4IMM1JIBByhyPAISBCAAgZAEtkh6G2c9tRT+2DNP3p/m6odXy+zemsBEIVUgmYZAWQRszb9D0iFmenT8yEBnMuDVMx+N5fRAWfqU0kIgBAF76ntUkgOmMJuEATLQjwzYaNaral5dI0EAAhAYlYD98r8g6Xc6fgY+yMCgMvApkQlH1X28HALFEjinOr//G0p/UKXPzLqfmXVkrgckXVWsJqLgEIDAYATOrJb6f6Xjp+NHBpKSATsWumIwTcCLIACBYgjYh/kDkuzKNPJsibxTfznLgN1o75V0STGaiYJCAAK9EbBV/92SfqDjZ+CDDISRARsLvirJrrZJEIAABBoTcPSyb1D6YZR+zjNbytZu5eZPSS9Kws1wY/XHDRAok8A1kr6g46fjRwaykQEb6z4h6awyVRqlhgAEVhHwvuE+lH42Sp9Zc7tZc87cfpK0c5Ui4HcIQKAcAnbi42XCv+j86fyRgSJk4EtJXukjQQAChRKwZf/DkjjSx0wx51kvZVss317x48RAoR0AxS6XwG2SvmO2V8Rsjw5wcQcIm39X/uzN0yuBJAhAIGMCdhRiF6IoPhggA8jAtAx4JfAhSV4ZJEEAAhkRcDjRlyXZUch0o+dveCADyMC0DPjo75UZ6T6KAoGiCdwo6QgdPwMfZAAZqCkDdiTkbQG7/iZBAAIBCXhP782aDX56BsDfzAiRAWTAMmAPoNcH1H1kGQJFE7hV0i90/sz4kAFkYE0Z8Lah3Qo7AigJAhBImMCFOPNB4a+p8Jn9M/ufJwMOBLY1Yd1H1iBQNAEH7TmG8mcAUMmA/cDbBaytu628f6yOfn4t6bCkzyQdlHRI0ueS7BzGBmDfS7LHuKOVPP2OTCFTUzLwFrEFiu5nKHxiBC6W9NFUA503eue7uLO6P6oO+0NJVr67JT0j6ZEqUuM2SddJunyA6G9eBt4o6SpJNi7dIen+ys/885Jel/RuNbDwgAO5y5OBtxcdLIwEAQiMSGC7pOMo2vAdjevQAZjelvSspHsq46vo4Vx9pnyTJNuk2OukBy8eyHiVwZbmDBBiM7CRsY8YkyAAgQEJuNF5toUCjcXAS+vuAD1bdid/raQLBpSb1F51maRbJD1WnVjxVgRbDrFk2oO5LakJFvmBQK4E7KTDjY7OP00Gtpr28vf+6iy1O3oHXmGmVL9FepvBA4NHJb1R2SjYngGZT5OBA4l5EEeCAAR6JGCFSNS+tJSgl7I9c7XjFG/J4FO9vwawWdKD1VaJDRsZEKTF4GNJPolEggAEOiTgRnUAhZeEwrd1/SfVXr2PRZ3VYT3zqGYEvIVwb7V9YKc1DAjGZ+BTJxwXbCbHXA2BhQS8FErI3nEVmzv8JyXdsLCW+CEFAjaa3Fk5rmGFYNw2Y4NPEgQg0JKALahfIoDPKLM6n4d38CRbr7N331KAE7jNJxAc4e79yicCKwTDDgrsc8J1QIIABBoQ8Nl+O2tBYQ3DwOeafQTPBnvRj941ELOiLvWA2n7tfczSNhtExhymbdmPBT4DimpqFHYdAjfj0W+QgY8jJO7iCNM6ohr6XhtrervApzUYaPfP4JXQ0kLmITAAAXt4Y2bSnzKyLYUDmxDhbABhDvSK8yU9IOlT2l+vgyGvvGwIJBdkFQKDEPBsBHe+/XT8dixjF7p2metlYBIElhHw9tsTkrx/zcpA9wwcrwRj2mUSyG9FEbBfdXuIQ9l0y8Ae9+7EiK+ottR1Ye10y14bvV1E++yWgQdZJAgUTcCBVHyuHOXSDQN7SPRxPQz5im5WnRf+f5Vnwn044upUV9n+wgGmSBAoisCZ1bI0Hf/6Hb+tjPdW0emKEiIKOwoBx26wR04fFaX9rs/ADpwcyZIEgSII2AjGsddRHusx8DFJu4XF9W4RzSbJQjoMs4NyeRBKe27PwKug3q4jQSBrAldL8plzlEU7BlYUtuK3T3gSBFIh4GXs+1gVWFuvPZVKhZIPCHRNwF7l2O9v1/EflWTlcF7XlcLzINAxAfvBtwEqg/x2DOyQi9M6HQsljxuXgPcMOd/fXCH4KJaDvdhmggSBSASuqIIUEb2zebu3Pwa29iJJO3ldSOA1ZgONZ0P2ieAgSCQIRCfgEyn2OOnz76wK1GfwnST7ZCBBICQB7wsSwrd+g7dytDW/z16TIJAbAQeVstHqjwwEag+EbC+1JTdBoDz5E7Cl/1c09FoN3Vsj9tTn2O4kCOROwPvbdjuMc6F6kwPbTdl+igSBEARsoW6jNZb7VjN4V5L3SkkQKI2A7Voe4VRQLT3pScJjpQkI5Y1HwBbAnAle3fF/IMkukEkQKJ2AtwbsvfI4k4aVgwEfASZBIEkC23ETurIB27r3miRrj0xBYFwCtnp3NNDfGAgs1SM+JmjXzCQIJEPgDhrt0kZrz4dY9ScjrmQkYQIOTfwC+mSpPvHWIQkCSRC4hzP+CxuroxzelUQtkQkIxCJwiSQHH8KWaD4Dn7DCP0gsmc4ut7bmpYGezsDLmN7XPCu7GqdAEBiWgLfMiB1yuo6x3j2IjhlWGHnbfwQepvM/bfDztyQ7PnLENBIEINAdAQfL8YoaE45TGRwipHB3QsaT6hGwZy8a4qkM7P98Uz18XAUBCLQg4BW1JzAUPE33eoWEOCEtBIpbmhPYTed/SgP8XpKPP5IgAIFhCNhQ0GGImYT8x8BxQy4cBj9vKZXAGzS6k0rHQU6exRCn1KZAuRMgcL0k+8xnIPAvgx8k2QsrCQKdE9hDQzupaL6QdHnnhHkgBCDQlIAt4T0QJ+rgf4MAbJCaShHXLyXAsv+/jcvW/Q8tJcWPEIDAGAQ8IPfAnNUAydsBhBMeQwozfOfTNKoTSsXuex3alAQBCKRLwAN0vAlKn3NEMF0hjZIzh+8sfUT9s6QdUSqMfEIAAif2wT1gL1132U+Aoy+SINCYgD3Yld6A3mcprbHccAMEUiFgL6W/F67HPBAidkAqEhkkHw7s4xCUpQ4AHNHw/iB1RTYhAIHFBC7FNuCES+XFhPgFAlMEbpJkj3aldv5fSbIfchIEIJAHAS+DP1/4pObNPKqSUvRJwH63/yy08/eKx4vsmfUpXjwbAqMSuFGSbXpKndy8NCp9Xp40gc0F75f9IslORUgQgEDeBOwyt2QDQQcpI0HgFAIbJf1a6MjYPvztWpQEAQiUQ8CRTG3rU+JqgI0jSRA4QcAjYvuzL60h2M7hMWQAAhAoloCdB9l9bom6j/glxYr9fwW3ccxnBTYAL/lf+x8G/oIABAolcI6k/QXqQB+PxJ15oUI/Kfa7BQq+PWQRNWsiAXxCAAIm4DDDpR19PoIuLFf4fSymtKUvW8HiGatcmafkEFhG4AZJxwrTiz72fPYyKPyWH4G7CxNyL3dty68aKREEINAxAYfTPVyYfjyAt8COpSjhx5Xm6Mfxwi9LuD7IGgQgkBYBhxh+pbBBwBtpVQG56YPAVYWd9bdxj418SBCAAASaEvBxuZK2SW0HQcqUgJe2jhYk0K9lWo8UCwIQGI6AV0xLCi9853BoedNQBM6SZGOPUkaznO8fSrJ4DwTyJ3BlYZMnjkhnJtPvFdL5/yXptszqjuJAAALjE/AK6teF6FH7SblgfOTkoAsC3tcpYebv4zsOZkSCAAQg0AcB2xMdLESf2kEcR6b7kKIBn+n9qxKcW/xECN8BpYpXQaBcAu4U9xYyCHi13GqOX3LHtD9egKB+QTCf+MJKCSAQjMAzBehWrxwTOCiYYDq7Nvr7tgAB/agqa8AqIssQgEBwAu4cc19htV0VW6vBBLUEoz+XkT2qYIJJdiGQGYGdBQwCMAoMJLQlGP29E6g+yCoEIJA3ge2SPFPO2dgao8AAMlyC0R8uKwMIIlmEQGEErHv/yHwQgFFgwkJdgtGfIxiSIAABCKRI4LoCvAbemyJ48pR/BKunqGQIQAACiRPYnPnpqz8lXZp4HRSXvaczXnqyle0DxdUoBYYABKISuFySDedytQnw0ev/Ra2c3PLtCH85H0W5L7cKozwQgEBtAmcHdfLlEOS/ZjwIsB8E0sgEHLf6h4yF7MmR+fJ6CEBgPALuRN8a7/Vrv9lBhHKNJOhJ59VrE+IBaxF4JePOf/daZLgZAhCITOAWSY7vEX2/2ZH1vG+e43bA95I8CSWNQGBrpkLlhrJnBJ68EgIQGJ+A95Z92sd64PHxs9NJDqyr/85UX3sSShqYwHkZG5m8PTBLXgcBCKRBwHptEm3vyzSy1Fkubs/YVuvmzijxoFoE3s90NLkf69Ja9c9FEMiNgI2Zj1R6zbNlW9Lnlu7OdBDgEw8evJEGIGAhynE/6RN8+w8gPbwCAukRuH9mn9zHmnNNLmuO+tuxWUg9E9iYqbtJnyv1cR8SBCBQDgEH87KV/3SH+E0Bq4C5hhL25JTUI4FPZxrLdMOJ+reX/c7vkRmPhgAE0iOwQad7L/XRMh+dKyHNDnyi6u/pfB+XdGEJlTdGGe0QZxp2Dn/7jOymMWDyTghAYDQCN1RH/GZ12K7RcjT8i736MTF4nOUQ+f8fDI8y/zdeIOn3zAYADp95ff5VRwkhAIEpAnbuNc9zqc+Uu1MsKZ0j6bvM9LoHL3eUVIlDlNWjqsijwnl5R0iGkBzeAYE0CLiz8ymfebrAA4ItaWRz8FzYris3l8EuD9u6HYnSnQsazbyGFOU7/Eh3JBw8BgIBCPhI3zKX5S8GKEOfWbRL3dy8Be7tE1gpz/bZSrvDjNKx18knjn5KkV7KCQFp24qTSz/iTvaEmOToKMgeEElrEMjNUvSzAvf51qh+boVAWAJ26euZ/apJwXVhS9h9xh+rwWsVz5R+9wkvjne3lJNbMxMGLwHiLaqlMHAbBAIRsNHyoRr6Cz/yp1fqGzW4pdTJr8oLdXx6Ha/8xqOmiVvMVYAj/P6HpM0rS80FEIBAdAI25jtaoxP7mdnh3Kr2SYjDNfhF0PuTPF4zt6R8uZDAa5kJwG0LS8oPEIBALgTs5tbHeyeKf9nnjbkUuodyXJSZ7ZePOpZ2xLO1WHhPbFnDifZb6Ra+rQWBGyEQhID3+x3Cu65u8jI3aTkBO0uqyzPCdZz8Wl7fJ391GMwIFVonjw7wY+VAggAE8iTg/X4b99bRB77GkePsE4C0mkBORoE+5mifB6QlBO5p0JDqNrixrvMeH0Z/SyqbnyAQnIDPr7udN9ExtwQv89DZf7ch3yZ1MfS17wwNL9L7zqpGx0NXSh/v8z6g43uTIACBPAnc1WC/f6JjfKyZ1IyA+4VvMxoEYBC4oP6fy6iSvZJBggAE8iNgYy4f7Zp06nU/7dCMFcF28nBpRrFgfMKBNEPgkhYNqm7DG/o6DHxmKpf/QiATAk33+6d1z45MGIxVDJ+kmuYZ+e+7x4KY6ntz2eexW08vWZEgAIG8CLTZ7590Ug4CRFqfQC7Hw20ISj9RyYND4k4aSuTPvyVdub6M8wQIQCAxAo7cWfd8/6wO+02SVw5I6xM4MyN7gF3r48jjCd9kMgB4PI/qoBQQgEBFwEd4X15TP9lYkNQdAXtUbTsYmx2cjfl/jgVKsuesMSuhq3d/2p188yQIQCABAo7nbj8e6+iIjxMoR45ZeHTNelmnTru8d1+OlVO3THaG4b2QLoGO8azjki6sW2iugwAEkifgrbx1Y5H8LskubUn9EDiQQd/h/qrYY4HPZlKBOPbop4HzVAiMQcD7/V6eXXcycd8YmS/onbaryGECaS+SxSUvr3mEvG4jG/t+Qj0WJ7oUOFMC3u933I4udApbgsMIydaO6quLOl/nGduGwZXOW17IoOLsnYqjHOnIFDmBQFsCXez3TzoAjLva1kK7+9o4ZZrUVSqfX7Uresy7vF/exRLb2JVX7N5NTLEj1xCYS+CKDvb7p3XRQ3Pfwpd9EThb0tEMJpTFOIranUFlvdqXNPNcCEBgMAL2LvdHh/ro88FyzoumCWzvsA6nB3ND/u3j8NmnizM4w+nRpkedJAhAIC4BO2LpUsF7VdMuzUnjEMjBm+zOcdAN99bXO250XTbgus+6fThcvAkCEOiYgAfvH/agh3w2nTQeAW8tRzcs/16SjVGzTB4d211u3Y42xet89pQEAQjEJLCxJ1eyLP2nIQ8PBu9f3OfdmwbK7nOxN3jleHS5oXssPBECEBiAgGOO2GlX1xMLu6V1uFpSGgQO9VDHXcvMsuf9JMkhp7NKmyT9E7xisO7NSiQpTEEEHulx9ZEYIGkJkvua6CvNXsnIKtnn8bJRT+q/Hc6qNigMBMog4P3UPT3qni/LwBiulNG9zP6c0yrA5T02wKEGDo5ARYIABOIQsHMfu1ntS0d4lmndRkqTwI891n1fMjX93AfSxNo8V28Er4jXmheZOyAAgREJdO3cZ1oxT/5+csTy8erVBOxYZ1JXET9/WF3E9K9wwIbI+zF2EuIykCAAgRgEbu3Yuc+8zoOl/xiy0OcK0Dy56Pq78EfOnws+CsPAJ0ZDJ5cQMIEh9n5Z+o8ja1cF739CHy91oJzfAldAlscx4rRdcgqB2gSsaz4YSNc8XTtXXJgCgT6NQLue8c97no+vhkz2jDWvQFG+C7/8ElJqyDQEmhGwb46vB9I19teerae2ZtjDXH3RAFtCffZp74chPZVRNxIfZegTTJ/P9t4RCQIQSJuAI3L+OpCesR+TK9PGQe4WEPCqTZ/9RZ/PttyFizFxV3DgNPQFLYmvIZAIAeuYIQ2MbV9AikngzOAT0nAn0YZakutj5OVjiyQIQCBNAl5ddDjuPtr+omey9J+mLDTJVeRJqd1NhzmNtnXgxrmo0bb93ntGJAhAID0C50r6ZGD9wtJ/enLQNkf26Nq2Xxj7vmfaFnro+z4KDPn5oWHxPghAoBYB+3gfw7ubjzKT8iBwS+C+6Zgkn3ZJOtkD19gjpbbvt9Mfuw8lQQACaRHYPlKs92/TwkBuOiAw9ApS2/5o3n33d1D+Xh/xUuABAOd7exUNHg6BVgTscneMSKJ+55ZWOeamlAn4XP28zjXCd1+kDNbGOVEd/3h55eyU4ZI3CBRGwJbb74yorF8ojHdJxf1wRLlad6CR7Am1OwNDtdMiEgQgkAYBG+KOabD1fU7hWNOo0qRy4U503Y54rPt3J0VyKjNRjf+O0tinapE/ITAuAS+7/zKigmbpf9z6H+rt744oY+sMHo5L8upYUunikfbp1gE5uTd5w4qkaprMQKA/Ajsl+czzpG2O8Wk7JlL+BHyqZAzbki5k2u0kqTREFK4uwM0+wzGX8e2dlCiRmUIJ+AjubPsc+v8+Zpjc7KpQeRii2HsTkLk2Mv7xEHCavCOq3/+7mxSSayEAgc4J2Ph2fyKK+LrOS8cDUyZwaSJy12YQ4LwnkbYFheh9Rmb/SYgQmSiUwEZJPmvfRgF2fU+yxlWFysZQxX4vEflrKs+7hgK06j1RAfp8MQkCEBiHwA2SfPy2qeLr43qW/seRgRTeGtUvgCewoyd7zotoSGGvf+eNTo8MQKBMAg8OHMlv1aCBpf8y5XBS6i8TGYiuktPZ3736Pmp6Iig4lvtGFRteXigBb7k52uasIhvz/44sSCqbQFQfNu+PXW12mDFm423zbq9YXDI2ON4PgcIIeMXtUGL6wsbLeAAtTBAXFPdIYrJZp2/7e8yV7KjelOwAggQBCAxHYKxIfquU6I3DIeBNiROwN9hV8pLi76P5sbEVYopAVuWJ/b7EWyLZy4qAQ7D+nqCueD0ryhRmXQLnBI1lM5pPgJ8SbNSrOv/P15US7ocABGoTGCuS3yo94KV/K3wSBKYJvBiwT/OW9oXThRjib/vrXtXIUvx9xxBweAcECicwdiS/VbqHpf/CBXRB8e2XYpXspPj7QwvK09vXEUdKv+L4pzd54MEQmBDYIMlxy1NUlM7Tm5OM8gmBOQQ+SFh2F7WpT+eUo9evHEFvUWZS/d6+xkkQgEB/BLwymLJbcOft3P6Kz5MzIHBbwL7Nfe5g2wBRPSc5YiEJAhDoh4C31/5MXHnaIJEEgVUExgxH3XYC7VMMg6RXEm/k8wB+MggZXgKBMglEOBG0p8yqodQtCKQQmXJeP7bsO2+79Z7sySsV/93LYMz+dlfvZHgBBMojcFZCkfxm2/z0/z2jw+q/PPlsW2I7ipuWnyh/977KvTUgmN+I8d22HXAfBBYSsLL5Oog+YOl/YTXywwICXjWO0vFP8tl7gLvXAkLB7/8CCedrCLQkcK0kn6qZKJ6UP1n6b1nJhd/mVeOU5Xpe3hzUqNcUpdFPw7miVyI8HAJlEbgnsUh+02199m+W/suSzS5La18WKXqwnJXx2f/3tg1wVcAR0eEuJYJnQaBgArb/eTmYDmDpv2CB7aDoEQ3e7+ug3HMfETH0r+OOkyAAgfUI2IDuo2Cd/971iszdEFBEj7f7+qq3aEYRo4ZK7KsSeC4EBiZwqaRoYb9Z+h9YSDJ+XbSYN9628Gpdp8nHfdyhzu43pPz/A50S4GEQKI/ATUEjpLH0X56s9lXiZ4P1e+6T7ayv0xTRPaKNlUgQgEA7Ao8EHPRb+bH0366+uWs+gc0BBwAetHSaoh3/+wvHH53WPw8rh4CXD98IqPTc+bP0X46cDlnS74K1h869AqYc4GPeNsT7Q0oH74JAJgTOl3QomLKbbv8s/WciiIkV4+mAbeKCrhj6HP10I4vw986uCs9zIFAIgU2Sohk8Tesilv4LEdQRinlZwD6wM/f3jjI03dBS//sPSTZaJEEAAvUIeOYc0enJRBex9F+vnrmqPQF72ZvIW4TPzgbEtqaPUOBJHt9pX8fcCYHiCNh/+KTtRP3cVlytUeChCUTzg+NB8drpDEk2qIukGG5fu9Q8AAL5E3Db9mA5Utuel9fOZjr5VzklXIOAXezOk7+Uv7t6jfKeuNXngFMu4GzeWP5ft8a5vwQCNvb7PFjbnm3r/j9L/yVIazpltHX9PDlM9bvH1kX3TLACf7hugbkfApkTiG7sN61ssfrPXFgTK96uYP3h2qfhovn/fjgxgSE7EEiJgFf0Ihv7TXf+b6UElrwUQeCGYAMAR+9dK/0ZrMCe3ZAgAIHTCfg0zz/B2vN0hz/9t5f+zzu9iHwDgV4J2ElWtAH05W2JRIuEdKRtQbkPAhkTiOzZb7rTn/6bpf+MBTbxor0XbBDdOjywfYFPN7rU/341ccEhexAYmoBnyZE9+83TOSz9Dy1FvG+awAPB+sU3pzPf5O93gxXUAYtIEIDAvwQcxvfHYG14Xoc//R1L/0j32ASiHQd0KO9W6Vgg5eFQxWe3KiU3QSA/AjZW+i1Q+53u5Jf9zdJ/frIasUTRggP52G+jFM338cFGpeNiCORLwGGwPSBe1pFG/I2l/3xlNlrJXg7Wvho7x7MSiaQk7KaRBIGSCdjYb3ewdltXx7D0X7Jkp1f2W4O1s5eaIowWD3xtl4dNAXE9BBIi4O2vaD476nb+vo6l/4SEjayc2G5uIr9jX2uvn41SpD0O+yogQaBUAhslfRtsRtJEIbL0X6pkp13uzwK1Ofv/qB0h10eHmjTQsa91tEISBEokcK2kSMa6TXUFS/8lSnWMMr8QrJ+0YXCtFM3d4dO1SsVFEMiLwM5Mjf2mBwks/eclszmVxoZ107Ka+t8P1oX/ULCC2b85CQIlEYg2+2ijHN8uqUIpazgCPlrXRq7Huue1uoR94ViZbPpe722cWbdgXAeB4AS8j7c/UPts2p4n17P0H1xQC8m+nexMZDb1T3sErZUiGTccrlU6xX/BAAAgAElEQVQiLoJAfAL2QPZlIIWzjkLcHr+6KEEBBPYEao8OYlQr/RGoUHbIQIJA7gRs7OfQnut0qlHufSf3yqR82RC4P1ibvGQVefsPj6IonM87VhWI3yEQnEAJxn4TneMTDYT5DS6wBWX/imD95bZVdeOAOpPGGOHzolUF4ncIBCVgz3724BWhHXaVRw92SBCIRCBSzI0nV4F9KpDC+WFVYfgdAkEJnJO5Z795A4YPgtYV2S6bQCSj3JUna/YFGgA4XDEJArkR8DZcJOvieZ150++OS7ogt4qkPEUQ2BWoz/xmVY1EcgH8zKrC8DsEghHINYzvqgHBvcHqiexCYELAdmir5DuV331s/oxJxmc//YMvSCWzq/LROMThbIH5PwQSIvBwAZ795rVpBzEiQSAqgWiGgFcuAr0lUOdvRXLZooLwPQQCEbCxX7Tom/M68jbf+WzyhkB1RVYhMI/AX4H6zrvmFcDf2QK3TSMe4x4DJ0EgOgG7E7WHrjHaUArvrO2fPHpFk/+sCURy0PXsopqIdAKgcXzjRYXmewiMRGCTpJ8K7vw/HYk7r4VA1wQieQTcu6jwkZYhX19UCL6HQAACjnLn5e8UZuFj5MHeRjcGqCeyCIE6BB4L1JYXxgT4OFAhbDBFgkBEAk8EM7btY4DwaMSKI88QWEDg5kB9588LyiA71umjsffxzBsXFYLvIZAoAUettJ/7PtpDpGeyfZeogJKt1gRsyBqlDfqknw2PT0n+4u9AhTj3lNzzHwikTcBObhy5MoqS6CufNt61oyMSBHIj4DgWfbWbrp9r+6NTkqMEdf2Svp539JSc8x8IpE3gKkleduurPUR67kpf5GlXJbmDwEICnwRq41tnS+El9SiK5LPZzPN/CCRKYIekPwO1rT51gI9Knbb0mGi9kS0INCVg6/o+20+Xz35gtnB2xdnlC/p81sqABrOF4/8QGIGAz9v22Q6iPXuhB7IR6oZXQqBrApHa+3OzhQ+d+dnC8H8IjEjgLEmRIoQNMZAgbseIAsmrByEQaRJtY+RTUqTli/tPyTn/gUA6BC6W9DUz/1NWPhyBjKX/dGSUnPRD4KZA7f60kziR3JH6zCUJAqkRuFbSr4GUwBAzf58sYuk/NUklP30Q8OmWIdpUF+/4ZRZAJCtlggDN1h7/H5vAPcGO0XahROo84/mxK4b3Q2BAAnXaRCrXnD3NJVIYYJYTp2uOv8ckYFl8OdDIf0jl8/2y2ONjVhrvhkBPBI4E0gU++n8inRco0wvdGE4KwycEBiJwjqSDgdrOkJ2/JxQOL06CQEkEHOBqyHa2zrtOtk8vqa/zoCHvXRjIoCQpo6yjE/B+n2e4Q8p+pHd5VYQEgdIIRDKmd0CyE8nGS1GUy1uTTPMJgZEI2Nr3t0BtZui2/aMkH4UkQaA0ApGO0981qZxtgZTZC5NM8wmBEQg4il0ke5mhO3+/77oR6oVXQiAFAvawN0aba/POkxF17w6U6cdTqGXyUByBMyRFWt5roxC6uOe14iSDAkPgPwJ3BOpLTzrn8qymi8Y/xDPsbYkEgSEJOJKfHWcMId+R32EL6FOOFg1ZSbwLAgkQiOQM6JUJL/sFjqJ4bptkmk8IDEDgCiL51dYNVn4kCJRMwE6vovSlJ90Bvx4o09eXLF2UfVAC2yX9EahtjKl49gxaM7wMAmkSsCvwMdthk3d/PEH4bqBMXz7JNJ8Q6JGA98cw9qunzOxW9Nwe64JHQyAKgTMD9aUOz30ifRIo096PJUGgLwI+vvZeoPbQZMTf17W39lUZPBcCAQlEWTW0zc6J5GhdfSmHLp/rGRkJAn0RIJJfcz1wch+xr0rhuRAIRuCnIP3pnxOuR4Nk2JHWSBDog8D5kvZJsqfJzyR9IemwJC+TObyvB8nfVt7/fpBkZzdu6HZN7fbjZfBjko5XToI8C3AD63IAnNqzXF5W5PqQRp4ZmYD1RmptdVF+TjjsstJadEFK338XWSrIOwSmCPi4nGMJeO/cgw93pBdKukiSVyI2SnKwDrvp3iTJti+bq9C6V0m6WtI1kuzF0453bpB0oyQbyfp7/26LZJ9i8DP8LD/Xz/f7/F6O7E1VCH9CoCMCHwXpT923W+ecmLWk1NEvygtxADqSUB4DAQhAAAK9EHg70ADgRETAKH7NHXmNBAEIQAACEEiVgL1hLprEpva9VxX1e5AMMwBIVeTJFwQgAAEImMCLQfpTD0a8XRjG2clJxwXIGQQgAAEIQCBBAvYhktpMf1F+bDcUxlqZAUCC0k6WIAABCEDgJAEHrFvU4ab2/QkfHn8FybCtK0kQgAAEIACBVAk8GKQ/9WDE0QsVZQBwINUaJ18QgAAEIAABSXcHGgDc4xr7O0iGGQDQviAAAQhAIGUCtwfpT70C4NWKMEFPPky51skbBCAAAQgUT+DmQAOAx1xbqRkmLMoPA4Di2xYAIAABCCRNwJ45F/VhqX3/tEmmlqlF+dmfdLWTOQhAAAIQKJ2AXXAv6sNS+/55V1ZqmVqUnw9KlyzKDwEIQAACSROwe91FfVhq3+82ySinADgGmLTckzkIQAACxROINAB4xbUVxRXwJ8WLFgAgAAEIQCBlAo7emdpMf1F+7Lb4RBzzRRek9L3jtJMgAAEIQAACqRJwgJ2U+s1leXnOEI8GyfDhVGucfEEAAhCAAAQkbQnSn3pg4LgF+jFIhr9GvCAAAQhAAAIJE4h0DPBJc/wuyADA+SRBAAIQgAAEUiXgCHvLlt1T+u1RQ/TMOqVMLcqLVypIEIAABCAAgVQJ3BKkP3U/+5Ahem99Uaeb0vc/p1rj5AsCEIAABCAgaXuQ/tR9+/2uMVvXp9TRL8rLMcQLAhCAAAQgkDCBHUH6U/ezjlwon69f1Omm9L39FZAgAAEIQAACqRLYGaQ/dd9+pyE6zG5KHf2yvKRa6eQLAhCAAAQgcE+g/tShi2Uf+8s63ZR+OxP5ggAEIAABCCRKwJb1KfWZy/Jyqxm+GyjDFyda6WQLAmMR8LGjgwn/+7haZXQ4b0823qt0zjuS3pK0V9Kbkt6Q9Jok+yd3kJKXJL0gyRHLdlVOSxy+1GeXn5DkWOaPSHpY0oOSHpB0nyTPwLy36aXYOyR5T/Y2SdskWeE5XvtNY1UW782egGV1Waeb0m9bXRt7AmX4quzFhwJCoD4Br4hFceSViuJz8LO76iPmSgg0IuBBbCqyviof17hkDgiw6sJUfmfk3kgWuThzAi8Harsp6JBfJF2duUxQvHEJRFpRv9SovJyWQuOskwcv6ZEgAIF/fY7/E6jt1mnffV7zpaSLEBwI9Ewgyqk6t7VzzcL7Zn02vC6f7b0+EgRKJ3CGpO8DtdsudUCbZ3lWhgFx6a1mmPJ/E6RdevJwIvkoQJtGNcY9T00yzScECiZgw7gx2l+0d1rJnQh4UrCsUPRhCXibKUI7cRTgE+mGIBk2VFsGkyBQMoErJbH0v1rJ2nGYLf5JEBiSQJS2eTK67hWBBgA+MkSCQKkE/icpyhLjmLMgn4zYVKqQUO7RCJwXqC/10eET6cJAmfZZYhIESiXwTKC2OtYAwEZYJ4ybShUSyj0agcsCtc9905TGaqxN3/vFdKb5GwIFEbhc0t+BFEzTtt3F9XYg5FUSEgTGIHBtoPb56jSg40EybgMLEgRKJOBjbF10kjk+wwMjnPuU2CrSKrOD60RpX89Oo4t0pOis6YzzNwQKIGBL9iiKZeh8elJwwqNZAXJAEdMmEMmnjl1on0yfBVIwNlokQaAUAvbWZfe1Q3esEd6Hc59SWkGMckZyA+xYGSfT+4EUzC0nc80fEMifwOeB2uaQgwac++Qv+9FKaCP1IdvAOu86EQhoAtgGAes8bMh78QY4qTU+cycQKbToUDrA56xxCJa75Mcs33eB+lEbFZ9MjwfKuL2gkSCQO4GNkv4M1C6HGADg3Cd3qY9dvkindE5xje0gO0M04C7e4TjiJAjkTuDTQG2yi3a96hk498ld4mOXb0Og9nraaTpb0a5qgKn87j1REgRyJuBtrlTaWwr5wLlPztKeR9muC9RmbfR/SorkDfC00cspJeE/EIhNwCFrvdSdQsebQh5w7hNbnkvJva3qU2gvdfLw9rxK+SNQAfAFMK8G+S4HAh8Haod1lE3ba7yfek8OFUoZiiAQyVfHc/NqJFKQkc3zCsB3EAhO4F46/xOzqF8l2a0qCQJRCLwRqO3ePw9qpDOMpzgxmFcYvoNAMAIXSPotkBJpO7NfdZ/DlF4crO7ILgQOB2q7c8NkR/IFMHcJAxmEQGAC+wMpkFWdeNvfzYDtvcBCXHDWI3nrnBsqO5IvACsKEgRyIRDJgKht577qvlOCk+RSsZSjCAJ2qrNKvlP6fW7EzEi+AI4UIVYUsgQC50k6FkyBdKnM7OxoRwkVTRmzJRCp7/x5US1E8gVgBXT2ooLwPQQCEdhXcOdvZXRVoLoiqxCYR8CrV10Oivt81qF5BfB3NkLq88VdP/v6RQXhewgEIbA9WJvrsg3boZd1DgkC0Qm8F6gdv7UMdqSlSIICLatJfkudQMlL/3slnZF6BZE/CNQkYDfVXQ6O+3yW/RUsTJGckPjUAgkCUQm4E+yzoaf4bEfyeyxqhZFvCMwh4FMrKba1RXnaNqcMJ796KVBhFu5lnCwNf0AgTQK3BGpnixRJ0+/t4+CmNKuDXEGgNYFIMQDcZh1ldGGy682mDXus661QSBCIRuAcSY5nMVa7GeO9XiK9NFpFkV8I1CBgr3pjtKk27zy+qjxbAhXGAK5YVSB+h0BiBF4P1sbaKJrpew5Ksr0DCQI5EngzUHt2VM2lyYY53qebbsAp/z3Xp/HSEvIjBMYjcGOgttVFu39Z0lynI+NVAW+GQKcEvg/Uph1Zc2X6NlCBPPoiQSACAfut8Ln3LjrW1J9BJL8IEkke1yVwfrD2fF+dAr8TqFAefZEgEIGAR9+pd9xd5M+R/GwYRYJA7gRuD9am7exvZYoU19gKy6MwEgRSJnBDMEXRdiDwFZH8UhZD8tYxgReDtetavjd8TrCtAhjjvts6rlQeB4EuCZwpKZKjkLZtmEh+XUoNz4pA4LNAfeV3dYH6nGBbJTDGfS/ULRjXQWAEApF8a7Rtv7tG4MorITAmAQ/sbevSts0MfZ9jjtROvwcqmEdhJAikSMDHaiOdqmmqlIjkl6LUkachCETb1nuqCZRILoGttOyOkQSBlAh4vy3SEaGmnT+R/FKSNvIyNIEnAk2S3bbtfbR2ihTe0IUjMmDtquXCgQh4a6pppxrl+sNE8htIinhNqgRs8xKlvTqfPoZcO0XzVf507ZJxIQT6J5Dz0r+PCXv/kwSBUgnYuVWkbXKfzmmU7K880t4lgYEaVS8X90gg16V/6wMve5IgUDqBaPv/r7SpMI8aoixxWDmd26aQ3AOBjgk8F6jd1G3fnu002kPsmCmPg0BKBKK18Z1t4HnUUFdBpHDdjjaF5B4IdEjgymArZ3Xa7U+SNnXIiEdBIDqBL4P1jUtDAC+qjDuDFdJR1kgQGIuA9wW/CdZmVg0AvLWGp82xJIr3pkjggmBt/GhbiBcHK6hnKiQIjEUg2smZVZ3/G0TyG0uUeG/CBO4O1i++tQ7LI8EKe8U6heVeCLQkkNPSv72bPdySA7dBIHcC7lBXDZ5T+v3BdSokWmEfXaew3AuBFgRyWvr/TZItnEkQgMB8AseDDQA8OWmdPHpIaTSzKi8HWpeUGyHQjoB9UKySywi/22vhpe0QcBcEiiDgcLoR2vIkjz69s1by6GHysAif9k2Ok5K1qpybGxC4PFhAkEVt+CNJ9v1BggAEFhOINti3t8K1U7QlD4czJkFgCALRjgPNGwA4prm3MUgQgMByApHC/7qtd+K4y2EE5ymOVL/bu7wO+RUCnRB4Mli7mNde7+mEBA+BQP4Eop2Kc3u/qotquTeYorMhk92xkiDQF4HoS//HJF3bFxyeC4EMCUSL/vdrV3UQzfGBRz63d1V4ngOBOQQiL/1/K6mVZ7A5HPgKAqUQiOQa333gni4r5utgqwCOWEaCQB8EHg/WFqaX/m3s1ygsaB8AeSYEghHw6ZjpdhThb3vy7SxFi23+h6SzOis9D4LAvwSsCP4KqAyssF7G2A8xhkArAs8Ea/OdB8fbGgyAFV6nI6BWYsNNuRH4PGA7sGc/jP1yk0TKMyQB+8iIMOuf5NF6qtPks/U+Yz95QYTP9zolwMNKJ2AvkxHkfjqPePYrXWop/7oEbEk/3aYi/O0Vi87TB8FAeKkW5yadi0GRD/TSf7QBMJ79ihRVCt0xgeeC9XseoPRywuehgCAcuYkEgXUJRFv6P8jgd90q534InCDgKLMRZv2TPNpxXy/psmAgDMRWzyQIrEPAkfEmjSvCJ2F816lt7oXAfwSuD9b2rZ/e/i/73f8VbTRka8hLusfAEwsh4PPyUZb+CeNbiFBSzMEI+Cx9hEH/dB57NfjdHRDIs4OJCy/KjcCnQeTdUb9uyg0+5YHAiARsPxZl8D89ALioT2Y3BlGI00B+7hMIz86WQJRQ2D9K2pRtLVAwCIxDIEr7n+7rPGHpPR0NOAi4tXcqvCAnAl7696x6unGl+PchSeflBJ6yQCARAtG831o/2VC/92SPYikqw2V5widA72KR1QsiLP076iVhfLMSOwqTCIGrA/Zxtne7cAh+1wWF46BGJAisInB/4vLthu54BCQIQKAfAq8krgPmTXYHPfEW7TSAgaE0+2ksOT3VBjQpL/07xsUtOQGnLBBIjIC93rqdzetkU/7uviE5RgsO5Ir7YUhAvCskAY+iU23kRyRtDkmVTEMgDgE7j0tVByzKl48AD2oLFHGPxPDs2IEEgXkE7k244dsT4fnzMs13EIBApwQ+SVgPLBoA2E3/4CniNsC+wSnxwggEvPTvwDmLGtiY39vY74wIEMkjBIIT8ArbmG297bvvGoP7roCw8Aw4hqSk/86PE5RlL+s5AiEJAhAYhsBbCeqBVYOC0YLeXRkQlmH6GCMJAhMCKe75eTUCz36TGuITAv0T2CDJg+5VHW5qv7/bP5rFb/guIDBbeBImeHGdlvSLj4amtvRPGN+SJJCypkLg+YB9mQcjO8YE+FRQaBwJHFNq0nn3/sTk16cQGJymIx/kpAwCZ0lyGN3UZver8uPJi/M+WrLxlPfVV2U0td/tzhgvaqOJTRIv3pmY3L6ETCYhF2SiPAKPJKYL6vaXr6VQVR8GhecOgFQmAS/9H0tEbr3v2GsIzzKrmFJDoDYB+9io2+mmdN2W2iXs8cLbg8L7skcmPDptAqks/f8q6dq0UZE7CGRN4I6g/ZeDFSWRfEb5l6AQHd6YVBYBG82kMIp3A764LPSUFgLJEfgqEX3QVCcNEvmvbm1FdA1s4J4JksohYHeZKSz9OzrlqMY75VQ5JYXAQgKeADbteFO5flDXvwsJVj9sCgzymlWF4/dsCLw9spzaYPaZbGhSEAjEJmAX26l06E3yYYdFyaUIMdTnQT6QHEky1AcBR9GbV/9DfWf/E9v7KBjPhAAEGhPYOrI+WEfvJLl1bUvmdQo15r2sAjRuP6Fu8Nn6Me1UfpZ0RShiZBYCeROIOvt3DJ4kk+MopxxLfdkAw77gSfkScECdZfXf529WND52SIIABNIgMPZq4Dr65ok0EM7PhR0TrFO4Me+9YX6R+DY4gTEbO5H8ggsP2c+SgI+Aj9nXtH23bYiSDgvupfS2hRv7vs+yFPWyCzXW0r8bKpH8ypY9Sp8mgW2B+6j300R6aq4OBwacpHHFqXj5XwMCb44gi/bPfXODPHIpBCAwHIHI/VMIvXLnCEq3q9UDVgGGa4h9v2mMM75E8uu7Vnk+BNoTuC1w3+TIu2GSLRW76pSHfo73jEmxCZwtyZb3Q8qODUmJ5Bdbbsh93gTsfXNIndDlu+6OVDVRoyu5wjyLI1JgJGk7Pa+vD9zQieR3eh3wDQRSIvDAwDqhy87fk5lQfZLdnHovtEsIQz7LAxhSTAJDLv3/JcnBREgQgEC6BM6VdDxwf/RYumgX52xXYOAevHB2e3HdpvrLkEv/dix0daogyBcEIHCSwCvB+6KQW4vuQB3rfMiZe5fv8jIyKRaBVweSN58jvigWGnILgSIJOE6Nj+V22TcM+SwH2gub3ggM3kJzZVjy5WX8uoFk7V1J9npJggAE0icQNUaNBxmeQIeeaEQffXEsMP0G7hy6Q/6x5wGAB4RPxsBBLiEAgco+Z8jZetfv2pNDLX7Qs2LuGvrs8+7KoRIyL8PunmXMMS5COOHIvJ4pHgTqErAh+tBHgWf7jnX/f1ndwqZ8nX3srwtizPstRBYmUpoE+l7698qCV7JIEIBAHALPBu93PoyDenVOo4ZenAw8nl9dRK4YgUDfS/+fSPIRIhIEIBCHwKXBO3/3O1kFp/Py6aQzjfhpYwziuaenAOyApy958rZCKOcb6VUPOYLAKAQ8cO9LLwzxXOc/u2SDuiHg9fWOL7KrkdgF2tLT8R4P9rD7iC0b5L5cAvcE72fcf1m3ZZei2wK4YvAQmIZYnlG5bO56sPerJIe0JkEAAvEInB/c45/12f542Ovn+KPgo7M/JG2oX1yu7ImAnWN03fk7UAh121OF8VgIDEDgrR70Qtd6ZtXzsvY949nVKgCp/56VdeYAjbLrV/QhQ+9LshthEgQgEJPA1gz6FjsZyz55iSP1Tn5V/ggAM56YftOx/Dw1XlF4MwQg0AEBH9M+0rFeWNUH9PF7EceNr+rJeKuPCln0zKMcD+ug2TZ/RJdne3Hu05w/d0AgRQJ9bAku0v19fe/ti2KSlzr6AjnUc18rprbSKKj3xroKLvU9zn3SqFRyAYE1Cfh4dld6Yai+Y/Y9djN+yZocQt1+eQarAK5E7zuR+ifg8/hdLf3bhiNkeM3+MfMGCIQiYEdgNt6d7VCj/d9B84pLOVhsOia8wx6T+iXgffp1G7VH2c/0m02eDgEIDEig7xgg6+qcOvd79eLiAZkl8yoHOqgDKPVrsj63mYC0eLVo3SU+7/ffmkBZyAIEINANAbfn1PuGOvnzIKbY1Kcr1zrwu7rmoWJrsN+Ce+n/yzUbOvv9/dYRT4fA0AQuzMDhj/ue3ySdNzS8lN7nvdhjayr4rjrxdZ7zl6TNKYHNJC+PrSkb7PdnIggUAwJTBD5dUy+so+u7vBfPspIezKQyv5VkoxRSNwQc0csDq7YNblc32eApEIBAQgTWnRS01Sdd3+eVSYKNVRC6svDuupKaPu+VhBpK9Ky0DSFtd83s90evffIPgdMJdHkUuKlu7/p6dNRU/eYQKGgiINumysWf7QjYpmLCs8nnj4RtbgecuyCQOAF7+3P7bqIPUr32QOKsR8me/bGnWmFN8uWIckUe6+hIajZK8iy+CXNf+zHeGTuqAR4DgfQI5HBsfKLTinD521SE1t3zncBN4dPL1+zvNJWAf69vY+DzHLzbweYuCAQgcF+LCUEK/cC8PLwcgPdoWXwxo4r2EUdSMwJNG7pXCm5r9gquhgAEAhHw6ao/M+kXfOINL6RLhC+XY4GTkd/2JWXlp1MJbJBkhz0Tdqs+2e8/lR//g0BuBM6V9FMDnbBKZ4z9u0+8kVYQeCCjCrejB29tkFYT+KhBvbPfv5onV0AgOoEmOmHszn3V+33SjW3hmhJ5uEFnsAr82L9/JckWrKTFBO5qUN8O/UlDWsySXyCQA4FczvtP+p8bc6iUocpwdQf+3yfgU/jcMxS4gO+xW0+vlKyqJ+8D3hGwfGQZAhBoRuCaTKLFTnRakdH+mlX56VfnZBBoQbj39CLyjaQPanT+P0hyUCASBCCQNwFHV3WU1UnnGf3Tx8Jty0BqSMDL5jkZgFiQr2rIIPfLd9Ro6N4HxHI2d0mgfBD4l0CbY8ApDxLupGLbE7i5RgeRcuXP5u2oJFu7k/6NgrUsENQ/kp4GFAQgUAyBtzPT93j860B0cxMKW4Oe3QGX6I/Yu6SxH5d0U/QCkn8IQKA2AQ/2ZydMkf9vHyVM9mpX/+ILz88k9vO0MHtkWLIluwNhTPOY/tunJnClvLg98AsEciNg495pHZDD34T67VBKbUCXg1BMl6FUy1AbxCwy8tlHSOUOWw2PgkD6BK5fM+z3tE5N5W8fYy95gteL1B3McBDweC+k0n7o63Pq8S9JjgBIggAEyiFgJ2l1jgCn0rHXycffRCTtR4Avycgn9ESQbOh2ez+4knyq9/UnZZ982jByS5K5JVMQgEBfBLy1m0t434ku8+fzfQHjudKTczqQafgR/7aDm2sLqFwbPh6Zqb9DknzulwQBCJRDwEe8v5jRBRF192ye7a8Er689y7E7jVnw0f9vZxG5O7rZPVNvjpbIPlnPjYXHQyBBAu/P6ILo+nuSf3swJPVMwBbiTaLGTSon9U8bxl3WM7uxHn/dVIP38ZiStj3GYs57IZAaAQ/4c+388VkyoLQ1CR6Tesc/nb+fJdnWIafkJbHJXh8ufXOqWcoCgWYEfMpnWt/l8vdnzTBwdRcE3slUmOz+OKdz8I7e54a+H5e+XYg9z4BASALLHH9FHgj4FENO+jqMcNk/fG6xAiYNwTPli8LUxOKMek/Mx2KeWnwJv0AAApkTsM+TiW7L7ZPtzBGFN7ewkdON47vgFvJnVpa+W0eUD14NAQiMSyDnzt+rGqSRCTyb8ejScQPOG5lv29c7CtbGtjdzHwQgEJ7AKxnrZq8+E9MlERH9PGNBs298O80gQQACEIhCwA5xplc0c/ubI38JSaIt53M8GjhpNN4OyMEmICGRISsQgEBPBHKe+Vsnc+SvJ8FZ57F3Zz7i9FG63I4IrlPf3AsBCKRHYE/mevjT9JCTowmBnA1OPPK0n4BcnQVN6pBPCEAgHoEzJL2XeedvZ224Lk9YNi2EdsowWTrP8dNugzcnXAdkDYbcUNgAAA9rSURBVAIQKIuAnX19lLnedcRSgpYFkGuP0BbFm89lQGDnExihBBBGsgiBzAnYH0vuky73G95iJgUh4M7RI7ZcOvx55bBP/euD1AfZhAAE8iPg00k+pTRPP+X03Wv5VV3+Jbq/AMF0I9uef1VSQghAIDECGyTZT0lOHf28suDnPzHBa5Kd3I0CLbD/SHqgCRSuhQAEILAGAYcuP1pA54/R3xpCksKtJRgFTkatL6YAnDxAAAJZE7gxc58rE32K0V8mYlyCUeBEaH0Mxz74SRCAAAS6JuAw7A7uNdE3OX9i9Ne19Iz4vBKMAieN8VDg+AEjigivhgAElhDYVUjHbz366hIO/BSUwD0FCbBdB18atJ7INgQgkBaBtwrSnQfTQk9uuiTwQkGCfEzS1V3C41kQgEBRBM6VZNe3k9XF3D/tbj1q9NWiBHOdwr5fkEDbV8DOdWBxLwQgUCQBuxwv4ZjfZFBj52q4WS9A1B3DuQTnFRPB9uduST4RQYIABCCwisC2Qiz9JzrSFv83rILC7/kQuLCQc6wTAffn55JcbhIEIACBeQT+J8nHiaf1Rgl/3zkPBt/lTcABdbxEXoKAT8poxxaMdPOWa0oHgTYEfFzaJ4gmuqKUz+fbwOKePAjcWnnSK0XYXU6f4308j+qjFBCAQAcEri1wRdS68IMO2PGI4ASeLHDUa+HfL8mRvEgQgEC5BB4tyLnP9ETPdmAOY0yCgPYWOgjwsZcrqX8IQKA4Aj7it69QvXdE0kXF1TgFXkrgk0Ibg0fFjywlw48QgEBOBLzk/1Oh+u53Jj05iXJ3ZfHxwC8KbRQeBBzglEB3wsSTIJAgAVv5P1Pokr91nI2+r0uwXshSIgS8LFaaj4DpfbFfJW1NpC7IBgQg0B2BjdVR4On2XtLff9L5dydMOT/JriBL8oA1qwT+kfQSUQVzFnHKVhiB2wpz7DOr0+zox2GMSRCoRcBnYh1QZ1aQSvr/15I21aLFRRCAQIoEfMpnT+F6zMeeb06xcshT2gRsJfpD4Y3HA54H064mcgcBCMwhcH3Bhn7TE7Udc9jwFQRqEbiYRnRiFeQzSZfXIsZFEIDAmARsx+R49t7Km+4IS/vb5b99zIrg3XkQuETSz4U3JisP76PZgvjMPKqVUkAgOwLu8NBV/w5+iIKanXiPVyCHibQf/dJG0fPKa9uIa8arCt4MAQjMEPB2pd3azmuvJX53zwwf/guBtQk4eJCPyZXYoOaV+RVJXm4kQQAC4xGwjY6d28xroyV+9/B4VcGbcydgq/ijNLaTysbLjeyz5S71lC9FArbJKdlx2ezgxnv+zPxTlNTM8mSbAPvQnxXAkv//kSRzIUEAAv0SsMfSFyqbnJJ1znTZ3fmz59+v3PH0KQIbOCJ42gDIRoLPSbKCIkEAAt0T8AyXFchTJ18+57+9e9Q8EQLLCVwo6VtWAk4bCHhbgNH4ctnhVwg0IeCInSz3n9rxewXA7n1vaQKSayHQJYHzJX3JIOC0QYAbp30HXNElbJ4FgcII2CPp65zpn6tfHNjHzo5IEBiVgN1tfs4gYG4j9d6cTwt4oESCAATqEXDUPofoPo5ematXfuMocj1B4qphCHgQcJDGOrexejXgmKQnsQ8YRhh5S2gC3j5ja/H05f6J0Z8HRVeHrmEynyUBe8g7wCBg4SBgMhB4Cv8BWco/hWpPwDP+u+n4l+oO6w87Y8MleXs5486eCZwh6W0GASsbskfxdivs0MskCJRKwPriXknfozNW6gx7IHVsFhIEkifgWe5kyYrPxSzswcxHB7ERSF6kyWCHBNzxP4A/kdo68lNWDTuUPh41CAHv5dH512Pg4zy7JdmnOQkCuRI4qwqvTcCeenrB+vPNXIWBcuVP4LrKAI6BQL0G74GAQ5luzF80KGFBBBwzw0awBBSrpwcm+vLpgmSEomZKwC5yf2A1oNFqiL177ZXk2AskCEQl4HP8uzjO16jtu/O3V9E7olY6+YbALAEbu9kxzmRky2c9FvYj8J6kq2aB8n8IJEzAxmovS7KzGtp6MwY+Mky48YSFm6y1I2DDn3dRCK0Voo9Y3tgOPXdBYBACl1V71p7B0vE3Z+CVUoKKDSKqvGQsAs+iHNZSjva6eB9OhcYSX947h8A2BvdrtWkPlmzpz2mgOcLFV/kR8P6WDd6YJbRn4COE9pN+bX7iQYkCELi02t/Hor99G57ovz2SvEJKgkAxBBzh6wiDgE4GQd9IepQZRDFtZ6yC2tvnXZXbb9unTDowPtux8FaJ/SGQIFAkAS95fYIi6UyRWqHsq0KE2r0qCQJdELDveQe1IjhPu45+3gDJRyIx9utCOnlGaALuqGwxPK+R8F17LkcrpW3DQQYDoZvIKJn3yRPb6xCYp30bXKS/vsDp1ygyzUsTJmC7AKyHu1c2VkKebbwmaSuDgYRbwPhZ21K5psY3fz/t0G2R/f7x5ZwcJErAS40YFfWnfKyAfpX0RrVNgOFRog1hwGzZiPQF/PL3vgLpyc2DA9Yrr4JASAIXVkdiFi2f8X13A4TfKo+DdxJsJGRbaZvpW6vYExjhdteWluklD7rtFp0EAQjUJODgOMsaFb91z+egpMckba5ZR1wWg4AH1fdIeh/vfIPrFPvt2BBDTMglBNIicHO1ZE1n331nv4qp94FfknQTZ5TTahQ1c2ML82ckHWYgPXin77bleB7mzzZbTYHlMgjMI+CAIh+gxEZRYpNBgp0OuQ6eqAYEZ8+rKL4blYD38h+ujoF6yXlSd3wOz8IufTniN2pz4OW5EbD7W3dEKLTxGdgJzFfVyYJ7JV2Rm7AlXh77i7fdhldoHGSL0zPjt4mJXvJpGwbIiTcgsheTgN2PElUwHWU3UXr+tEHhR9Wy5+2SXFek9Ql4/9hGe09We/g+0jnNnb/T4OF6cT2RIACBHgnYqc1T1R4byi8N5beoHuw5zoaFL0q6uzIuxCnR4saxqYoD/5ykDyXZmdMitnyfDhsbVxLIZ7Fc8wsEOidgpyU4LElHCTbpkOwJzYGMHL9gR7VfelHnEpLmA23TYn8Xt1V79vaCeYjtrZADHW9JeguMBAEIjEDgrOo8c5POh2vTHjTYgOrjymOaXdHa9sOnQdxpeu/73BHkrM4rz5G0UZJd6PrkhI/dPV05XfLWyHccwQvZyS/SFx60WR5JEIDAyARukOSOY1Fj5fv82NjS3Z2qbUK8XP5WNRj00avHK69r3nbwCsMtkq6vOmcvs3tffTKQ8CDSs3Irc/s/sDW9O3DP0B35ztHa7BvBz/Vsfa+k/dWs3X7y2ZPPT7aW6Ys/JD0ysr7j9RCAwAwBhyq1S1Ofv13WgPkNPsgAMtBGBrwyhVOfGcXLfyGQEoErJX3DIIBBEDKADHQkA8eqLZ2U9Bx5gQAEFhCw9y3vv3I+mplem5ke9yA3ExnYJ8mulEkQgEAwApdL+rKjWcBEIfBJ54AM5C8DnOsPpuzJLgTmEfC5cx83s/EOihsGyAAysEoG3pwyEp2nU/gOAhAIRsCe6YgpgPJfpfz5vVwZ8UmircH0GtmFAAQaEPCRQYwEy1XydPDU/awM+EjpQ0Tua6BFuRQCgQl4W+B+XK2yJcK2UNEy8Gd1dHjiEyKwSiPrEIBAUwKO2rUL+4CiO4HZ2SD/L2OF4B1JFzdVGFwPAQjkR8DOPezhzWFu6QBggAzkKwOOQ2G30iQIQAACpxCwEyHCDeer/OnYy63bHyXdeUpr5z8QgAAE5hCw/3giDZbbWTBQyKfuHZLasRxIEIAABGoTsKGgI7p55kCHAANkIJYM/FYFcMLAr7bK40IIQGCWgN0KP8iJAQZBDARDyMDEsv/82YbM/yEAAQi0JeCwsQ4z68AgzAZhgAykJQOO+/GqpIvaNnDugwAEILCKgJcUHRv+dwYCDISQgdFlwCd39kjauKrh8jsEIACBrghcIOlFSV5yZDYIA2RgeBl4V9Kmrho0z4EABCDQlIB9CLyEMyEGQQwEB5OBtyX5yC4JAhCAQBIEvDXwlCSHEWU2CANkoFsZ8Eqb9/gd1IsEAQhAIEkCZ0p6QJIji9EJwAAZWE8GfI7f7rqx6k9S3ZEpCEBgHgH7EbhD0mEGAgyEkIHGMnBE0qOSHK+DBAEIQCAsAccY/4hOoHEnwOx5vdlzRH4O1W0HXPa/QYIABCCQDYHN1ZGliIqZPJfXGQ9Z5wck3Z5NS6cgEIAABBYQsMGg7QTYHqBTHbKTTe1ddrP9tCSfpCFBAAIQKI6AVwV242GQ7YFCtohsze9jfN4WI0EAAhCAgCSfHtgp6WNJ9m6W2myN/FAn68jAV5IelnQerR0CEIAABBYTsFvTZyXZEnodpcu98BtTBnyEz2f3tywWdX6BAAQgAIFFBG6U9AoOhhgIBRkMOkaGl/ht0OdVLRIEIAABCKxJwH4FbpL0mqRfg3QGY84+efdwqx9/SHpH0g5JjppJggAEIACBngh4MGAjqtcxHmRlYKTBoDv9fZWzK5z19NTQeSwEIACBZQQ8GLhF0huSvOfKzBcGfcmALfjfk3QnHvqWNUl+gwAEIDA8AXtPu0HS85K+ZjDAYKgDGfipMuTbRqc/fIPmjRCAAATaErhY0v2S3pdk46y+ZoY8Nx+2f1VHUR+TdEVbweM+CEAAAhBIh4Atsm038JKk7xgMMBiakoGfK3sSW+6fk47IkhMIQAACEOiDwCWSHqoMufA3kM8Mvs5qzDFJ+yU9IemqPoSLZ0IAAhCAQBwC3i7wMa4XJX0myUvBdToTrkmb09+Svqz28e+WdFkckSSnEIAABCAwBgFvGVxbxWT3cS9WCdLu6CcDMfuI+EDSk5XfCJb0x2g9vBMCEIBAZgTsonh7FcHtXUnfs0ow6iqJLfS9lL+rOpp3eWbyRnEgAAEIQCBhAvb8do2k+yS9LOkgzok6HxT4BMehygvkg5Kux1gv4RZB1iAAAQgUTsA2BbdKerxyUuSBAdsIy7cRjlYd/R5JT0m6TdKlhcsRxYcABCAAgUwI2LbAS9UeHDg8rFcNvGf9rSR7mpvsZef4aYM8b5scqAI8PVp18pvxoZ+JdFMMCEAAAhBoTcB2BvZm6BMJD1TGbPZdsFfSh5K+kPRjQo6N7BPfe/GHq479rWpQ87QkL9ffIckRHZnJtxYJboQABCAAAQicTmCDpCurQcPN1cqCDRU9gLDPeh99u7fyiGi/B49U2xK2kncn7aV2n4f3bNwrEh502J7B9+2snuOleK9Y+PkenPjsvLc4SBCAQGAC/w+tKFs8xaVW9AAAAABJRU5ErkJggg==;" vertex="1" parent="QO4F9BHPAcaRKNSe1WLH-26">
          <mxGeometry x="10" y="12.666666666666664" width="29.64086956521739" height="29.64086956521739" as="geometry" />
        </mxCell>
        <mxCell id="QO4F9BHPAcaRKNSe1WLH-10" value="POST&lt;div&gt;/users/&amp;lt;email&amp;gt;&lt;/div&gt;" style="rounded=1;whiteSpace=wrap;html=1;hachureGap=4;fontFamily=Verdana;" vertex="1" parent="QO4F9BHPAcaRKNSe1WLH-31">
          <mxGeometry x="70" y="51.59" width="160" height="60" as="geometry" />
        </mxCell>
        <mxCell id="QO4F9BHPAcaRKNSe1WLH-5" value="GET&lt;div&gt;/users/&amp;lt;email&amp;gt;&lt;/div&gt;" style="rounded=1;whiteSpace=wrap;html=1;hachureGap=4;fontFamily=Verdana;" vertex="1" parent="QO4F9BHPAcaRKNSe1WLH-31">
          <mxGeometry x="75" y="140" width="155" height="60" as="geometry" />
        </mxCell>
        <mxCell id="QO4F9BHPAcaRKNSe1WLH-29" value="" style="group" vertex="1" connectable="0" parent="1">
          <mxGeometry x="280" y="160" width="280" height="890" as="geometry" />
        </mxCell>
        <mxCell id="QO4F9BHPAcaRKNSe1WLH-6" value="" style="whiteSpace=wrap;html=1;fillColor=#dae8fc;strokeColor=#6c8ebf;" vertex="1" parent="QO4F9BHPAcaRKNSe1WLH-29">
          <mxGeometry width="280" height="890" as="geometry" />
        </mxCell>
        <mxCell id="QO4F9BHPAcaRKNSe1WLH-8" value="&lt;font style=&quot;font-size: 19px;&quot;&gt;Frontend&lt;/font&gt;" style="text;html=1;align=center;verticalAlign=middle;whiteSpace=wrap;rounded=0;" vertex="1" parent="QO4F9BHPAcaRKNSe1WLH-29">
          <mxGeometry x="92.95460740740742" y="3.8" width="72.5925925925926" height="40" as="geometry" />
        </mxCell>
        <mxCell id="QO4F9BHPAcaRKNSe1WLH-24" value="" style="shape=image;verticalLabelPosition=bottom;labelBackgroundColor=default;verticalAlign=top;aspect=fixed;imageAspect=0;image=data:image/png,iVBORw0KGgoAAAANSUhEUgAAAgAAAAIACAYAAAD0eNT6AAAAAXNSR0IArs4c6QAAIABJREFUeAHtvU+INcuSH9aYQRgzmMsgjBZiuAzCCK8egzDCmMu3EEYLcbkLG8ZYun2+++yHGezLh1Zv9XizMA+vGi0HLz4GL8xgzIcWYpjF8GG8GoRpBvNgTp9+NGKQYQyPXmgh1HUux0RWZp2oPFn/KyIjq34NTdXJ//nLyIjIyMisuzv8AQEgAASAABAAAkAACAABIAAEgAAQAAJAAAgAASAABIAAEAACQAAIAAEgAASAABAAAkAACAABIAAEgAAQAAJAAAgAASAABIAAEAACQAAIAAEgAASAABAAAkAACAABIAAEgAAQAAJAAAgAASAABIAAEAACQAAIAAEgAASAABAAAkAACAABIAAEgAAQAAJAAAgAASAABIAAEAACQAAIAAEgAASAABAAAkAACAABIAAEgAAQAAJAAAgAASAABIAAEAACQAAIAAEgAASAABAAAkAACAABIAAEgAAQAAJAAAgAASAABIAAEAACQAAIAAEgAASAABAAAkAACAABIAAEgAAQAAJAAAgAASAABIAAEAACQAAIAAEgAASAABAAAkAACAABIAAEgAAQAAJAAAgAASAABIAAEAACQAAIAAEgAASAABAAAkAACAABIAAEgAAQAAJAAAgAASAABIAAEAACQAAIAAEgAASAABAAAkAACAABIAAEgAAQAAJAAAgAASAABIAAEAACQAAIAAEgAASAABAAAkAACAABIAAEgAAQAAJAQBmBw8vli/un6qv6/+37+1P1s8H/4/lbSn94uXyp3FxUBwRUESAad3ODaH7M3Hh6+z7MJ5pbqo1FZUAACACBLgQOT5cf3T+9fX94Pn88nKrPh1N1WeX/eH7x5T3cH8/fUj1dbUA4ELCIgJsbRLun6sHRck3T68wPmmvP549u7mFuWBx+tAkIbA8Bt3ohpnasPh1O1esqwn6a0vC5XjWdv94euuhRyQjcn85fE22uqgiPnxuvNCedsgwrWslkhLYDAVsIOJP+VeivtYJZpxxiemSBANOzRTQ7aE1tyn/73ivD69DzeIHfX99VGcCWwQ5oEV0EAqsjQAzOmy9zrPT7GVyKUdYm1gdsF6xOCijQI0C05ebEuub86bSeov90GM3dByjIIGEgAARGIeAEf72nL8mYpMt+hGVg1HAj0QACzUr/VD1m2PJab57QnIalbGC0EQ0EdooAmfq9M996TCe9KtEu/5H2Rnc6rOj2TATcfnrpQj81/2pFAFsDM+kC2YDA5hA4HM/fZHLq01QGXp2TFlZBm6PftTrkrF+1134Z214pAT8u7JXm/Fq4oRwgAAQKRMCt+muPfk1BnL+uus/vChwyNFkAgcOpemfSmW+cMF8ynz5jW0CAoFAkELCOwE5W/UPMEdsD1glVsH3OzF+OQ98QLc+NfyV/GUGYUTQQAAKWENjoXv9cBng5HM8v8BOwRKGybYHgT1zYBd8AWaJD6UAgNwLO5L/mjX3yJsr5Qn1O26AI5CZR0foh+BOCvz1PHolHiA4CCgcCQEAfAX+GueyjTG1mJaccQBHQJ1DBGiH4BwU/n0uvuEtDkBhRNBDQRsAL/617NnMmts57vT8MZ0Ftgl2pvtq5z31XYh160FJALdSDUwIrUSGKAQIZEYDwn7T66RIU9KEjKAIZ6XhK1U7wY6uri5bHhsMSMIXokBYIWEMAwn8V4X9lmHR8EPcIWCPzpj3uHP8ej7XKWQygBDTUhRcgUBAC9Rl/mD8Frm91FwoVRAq7aKr/Eh+2udZXBqAE7GIGoZObQcB7+8Phb31myKwBTrnCtkDmWePus8BZ/itdytD8KyxfmQkd1QOBsQjs9FYzaSbYVT5uUxtLmCumc+Z+7PN30aRE+OOKw4eigAAQkEDgcHr7IGD2lmAomyqTTNAS44kybxHw5v5N0U8hc/bhdjQQAgSAgAkEvNMfGKOMGXQMro80BiaIYYON8PSNra189E23ZuIjQhucW+hS4QjA6W9lj/8FTNZ/dRA3qq00p4i2seo3Q9/wB1iJrlEMEFgNAdzvb4ZB1pYCXCK0Cm3jMh9jdF0rxp9XGVwUAgSAwHIE/MUnY0zUWmnoONbn98fqD+jft+/dzfPpfGBp6LKdLZp3H2gFu3yU91WCP8nyUMje+JR5RTR+nRtP58PNvKDPE5+qd9HcsHXE8el82BdFordAwCgCRgTno3NAXOGiHOfhTYyRvlC2DaUAvgET5s6G9vpJ2D8ciJbXmhe1k68FRZm2AqDYTqBrJAUCqyOQ2ev/1a3wV2BufcC41eDx/I1XCGythCb4CuCkQN8o13GF7/W/OholWhUWjqRQeOtazvmAUwHDJI0UQEAGAX8WOgsD8II/ywrAm0wfDmVeAIN7AxLTwdMybQNNMafnT1vT4EOu0x+kaHhFIA8WOPWSoGYEAQEFBDI5/pkyZ7ub4OqtgjwMcJ7AeiWzsAKJFFGFM5GfqiyK7GyFo6Y5MzdBZtw2gUNgEbMMjdwUAn7FpCr0aKVhFUS3TUD7oyVZBUiICJuKrY4XtcuNWVnK26Pfz89i+RozlpmsAWYUoTEYIQ0QKB4B9dV/QStWv0VQijnZlEVFa2JkXLHOUZqL+hy0t6jM6ee8PM/nj1p0g3qAwO4RqFe7aibT11Jv/3JCpowV5q62BIox+dcWmi9LZDhua0xzW0XYEbjEMUCbgYAIAqpmvg04+bjtkhIUgVrgmDUvLyXmYkz+BQt+PkbeyjJvVT/VtwVWAA493oGADAKqq/+CzP5j0C5EEdjklkARJv+NCH4+F1S3A2AF4NDjHQisj4DihN7sGV+nCByrT7M9wKeujqanL3bbJUXx5k3+GxT8fBzcZUTTaXCy5cCykzDHA+9AoFgElG7G28XRHu8saOFWtSSz3cLFQVrCZ6YyV5Rz3xKmRdcPz8QoSZvJso7nlyVtRF4gAAR6EFA7+rczU57pFSpZKgo8Kui3quSFzryV7a6cLomlqPGOU4UjgT08HFFAYDYCGqupvZrxSGCpOldOE1xF+QW4/X6j9zG4MS5QoZrNNFhGFfqGMyBDHK9AYEUEFC65eVyxuUUWZdhZrQi/AMPWFFzBTJYAecUMHwkqkvOh0aYR8Od6x+/HTVthhnJhvvNU4D+yZO56Wst+AUY/5PNKY2l6cis2TsWJeGOnhxSHB1UBgTQCCub/XTj+pdFNh5o9LWDQzKp+M+UYBbdQ/4k0Na4XKu5IbJA+10MPJQGBDAgomO6w+u8YV/Vb1cYIt1P1aME50Dv7WTtJUcR2SQe5iQf70y/B6ifxfBXvBCoAAntBQOFGr93v/Q/RkkmvdtrPzXhTo0lnP6z6h0jZxYtbAXAaYNQ4IBEQGETA70dLaOp1mdizGxyDkMCgbwD5Kahbb/wq0pKPxO6O9gWanPNU8AXY7EVic/BGHiAwGwHhSzzgtTtxZPyZaltn3BWVOAXhMVXZhYf/dBr+InmZz7jtpzHjA6vixDFBciBwg4A3PY+ZcPPSwGHnBvOxASrnqqcxZPFVl4Iz6iQ6pjEYO15I10ZA3HFzZxeKtdHFLyCwAgIKDjvq5uMVYDFThDlTuKBCJy4wpig7mf0fzBDggoaI85bj+ZsFzUNWIAAEhFeZ8NZdgcTMOQiu7Ajn+kdlThHQkmlX7t8KJFBsEYdTJenHIW6RKhZ4NBwIjEFAdP9fcLU4pm9bSyPurDlNqK5yTNArN4aO+eFSnzXnjbBVB3eLrDlYKGt/CIhq6DDRrU5Q/sim5Kpqyh45KQFfzu2k74sV4f+a88jjXAyt55O+YdR6/9E+IGAWAfEveO30oyjSA25s1TxLcBpTZMjL/wvpcdtj+Z5WpyiV09JmvKdij+OJPm8IAeHjVjDPCdOKIY/5SUqAMeGPfWR5OhU80ootG+HhQ/FbRUBSgOD4lA7VeCXOwpbAKCXA0KkGXOyjQ6J3oo7G8DNSGkVUszkERB0Asf+vRi+mVtQ9FwYJW5zGm45xxE+NNqkiYT8AWBpVRxOVbQYB0Q8AYU9VlU5M+QUklAAzwt/IR45UiSNzZcJ+ADhqnHl8UX2hCIiduz6eXwqFpOhmO0b7fP4oNq5TjgkyJcCM8Ie5OBt9Sy42snUKFQOBUhHwZuPxZtMpzP9YfSoVly20W3TPdQodPJ0PZoT/Cc5iOWn7IHvRE24bzTm4qLs8BCT35eAAmJ8evOC14Bwoo2SOV0Reidbzj8i+WyCqlGJ8901c6P10BDAhp2NWWg5TzoHjBfaaCsOokwmljWuJ7cWCo8RRQ5s3i4DwFZ0wyRmhHH/Zk5Xb9tYU7kNlLbql0MjwbaYZ/vjn0JjNi8eW42boBB1RQkDyCKBSF1DNSARMnRDQsQSs8p2CkfAi2UgEBJ1TcRRw5BggGRBwCIgpADgBYJLCTJ0QkFQC4Olvkv6oUYInAaAAmB11NMwkAoIfAcJkNDnidaOEt37mmXDXUggg/A1T3t2d2KLjVF1MdxyNAwLWEIA5ztqI6LXHztG8aj2Fgd07oIckapqCABSAKWghLRAQREBKAcARQMFBW7HoTSkBEP4rUoZcUZInj+RajZKBwMYQkPTIhQJQDrFsQgmA8C+G4CQVAOJpxQCBhgKBnAhIKgAkVHL2DXVPQ6DguwJwxn/aUGdPfTi9fZCyPEIByD68aEApCIgqANDESyGDpp0FKgEQ/s3olfMCvlPOWKGlG0YAprgND+7MrhWkBED4zxzj3NlkFQB86yH3+KL+QhCAAlDIQCk3swAlAMJfmSbWrE5SAYDv0ZojhbI2jQAUgE0P76LOeSXA4tXBj9S2RZ1D5qwIQAHICj8qBwI1ApIKADAuHwGDVwfjat/yyerO09V6dz+wC6RgAdgAgaALOghAAdDBueRaDCkBEP4lE1LUdqlTAFAAIqDxEwh0IQAFoAsZhHMEJE22EwQBznfzQSn8fcK4T7IUQAEonDDQfD0EoADoYV1qTc4CcDy/SDHs0eVSG14uX5SKI9rdRmD0uDPz/pg8UADaOOMXEOhEAApAJzSIoK+2vVy+OJwqS46A2AbYCGWOEeZz0kAB2AiBoBvyCEABkMe45BokP9oyh7m7PMfqU8mYou01ArPHf8AiAAUAFAYERiIABWAkUDtMZvpzwc/njzsckk11GQrApoYTnSkRASgAJY6afJsPp+pBikGvVy5ufJOnBLka1qOD9qekYQGQGzOUvDEEoABsbEBX6E5RXwbEB6dWGPE8RUAByIM7agUCDQJQABoo8EJOf0/ngxRjFisXtwIWSbtS9AALQJHkgEbnQAAKQA7UbdZZwP3/XefB8V0AmyTV2yooAL3wIBIIyCMABUAe4xJqKFj4B6UAxwNLIDTWRigADAy8AoEcCEgqAPhgS44RnV6nmYt+Bo53jRAYUAKmD3+WHJI3S2ILIMuQotISERBVAE4Vrm41ThQGL/oJK/p5TxwPNE5xdfOgABQxTGjk1hGAArD1Ee7v3+FYfRqxsp4njJev6OfVCyWgf9ANxEoqAIcTjocaGGI0oQQEZCciLACWaaCMs/7tM96jlRUcD7RMenfgO6aHB43bCwKYiHsZ6XY/izzuN9WigOOB7UE39At8x9BgoCn7RUB2IsIUZ5GyvMf/PPP6VCGcN/3r4eXypcUx2HubsPW4dwpA/00gIKkAwBvXxBC3GuGd/l5Hm9LzCvA1lBScDGhRgI0fogoALD82BhmtKAMBKWEABcDW+Gf1+KcbBnPdMoivB9oixLu7O0kFwFxn0SAgYBkBKQWAPMwt93tvbcv3db/rVhB5aIvRW7+14mFv4225v5KnTyz3G20DAuYQEGTIn811dqcNklxx9dLP8+1ne7MpIjgZYIb6D6fqcy/d9CtzvVtDZjqJhgCBEhA4nCqpPWEoAAYIIJvpPSH8Axz5lIDLj0Ib8MyHgJgCcDy/5OsVagYCBSIgNhlP1WuBcGyqyRnv+H8cAvJwqh6lVoE95dLJgC+G2oZ4WQSw6JDFF6UDgdEICCoAl9GNQMLVEXBOf8fzS48w7DWlLsg3yvM+o1PiqPatPiAosEFgAW0N0Sysjg3KeAECIxAQvREO57BHjIBMkiwrbFI4JqywvRIgtQXVLSx6tidkRgOlBgTobgYpBQAnjwLKeAKBkQgIO4jhg0Ajx2HNZJn22F/nfAEy1zYFhMWaFDe+LNw9Mh4rpAQC4giIHs06nr8R7wAqaCEgOp593tkLLmCRFAq9q03QZ4t2NH4cjudvesekj8aG4nDSQ2MIUceWEJBkvlhl6VJKtmt+V2C8mU4r4LpgXRIVvQSIeJlyd1AdECgbASgAZY9faH1Gp7/VLtkR9UfpXj3CKTAQkcJTeIyhACiMIarYGAJiJrlTBa9cJVqRPM3RSR/Ptxf9LO1uFv8FgX4sxWGr+SXpdKuYoV9AQBSBTgbfvWrq9rBu5xk8Dy7asZ0ULuzI2TXWIivnbMcDV9jG2Am5Leqm5OmURQ1DZiCwVwQwKcsdeVGnqrYyd1UEJh73m4putuOBCxwZp/Zxr+kFFxuwNu6VqNDvZQhImuXwTfZlY9OX25+p1j5HP+u4X18/UnGZjgfipsDUYKwUJuqkio+PrTRKKGZ3CAibkOGYI0BR2Uzlikfnslg34LciQK11kXA4FoMWBQOB+QjInh2/fg52fguRM0Ygi7PcSX8sZWmzum5rtLc7VjvZEI/bnn/LLjT0aXPPY4m+bwgBSc2cjv1sCCoTXclyZj6jp3wWZUfR0mGCqBQagSOACiCjCiAwFQHJ+7nJv2Bqe5C+G4FMe+MiHv/dvWzHZNruUPF1aPd027/ga7Tt8UXvCkZAzDsX3+hejSqcINT/wp8Jx7hMDo9ZFZ/VCMdIQQdB2jXSRTQDCJSJgORRQBJcZaJiq9WHY/VJTFFr74Ff98YNHY0T9SLv6n/GrQ9b1Le8NYK0i/tGlg8PStgzAqLmOdzRvZi0ZB2oOpzhDF6Ok8X/IYPz42KCMVaAsJ8RthmNjTeaUxgCkgKGyi4MDlPNxcq3PRxZnAINWULaaJTxS1JxA38pgwbQSsMISE5QMl0b7rrppmXa9zdvUhXdskpvB8AfYMFMkVxgEO9a0DRkBQJAQHiVaV6gWKWADPv+Jpz+hsbDnwzQvQUR/gBDw9IZL7rFCOtMJ+6IAAKjERB00rmMbgQSNgiIWmXSq9wLKYJNA4y/CCutV0dIjhVWm7OoAicAZsGGTEBADwFhsyquBJ4wlF646a5wC3R2y3BTIFlIvpwwlLtP6q01aYWKK1fz3uEAuHsKAwCrICDrXIWrOqcMkrAydsuMCzZvy9Jt8oQEtrQmELPoCYCC6XYChEgKBOQREHXUwUQdPYDCV6beCv9TVbSDm19hPkpuYSXKxhXXIylalK8UaLUaCRuSAQFdBEQ19VOFVdOI4czwBbxNXHmbZ8ukwrbWKJoWvcAKYzBiDJAECAwiILxXB0fAgRHI4tm+oY/eZHCaLOLExADZiUdLOgDSnBHvACoAAntBQHSy4kbAXjISPSqVdrDanBk7w/YJnNB6qFp0UYHvjPQgjyggMAMB2XPncATsGhLZfdJ+Rzbyar9/qr66+T+dv74/VT/r+/f08tkrL8uex+pTX1113Pnrm3Y+VV9xz3xtB0oau65x3Xu46JYW/Ir2Tl7o/9oIiAoiTNjkcAn7XqSc/hCWtojMx6Wg+xOSRCgUKMpP4AAoNGoodrcIiAojmOxu6MqZSAU/k5rwXp8v5NYWmlsqj8YQ+9G39H2qyCokRXNwALxBHAFAYAECont2xAh2zCSp71fz9dv3ZNLOsO8vxYxR7qn67LYpnt6+D+O8Z3onNiQo/OFUvIDPIysQ6EQAjoCd0HRG0DE0x/SP52/DPnazL44VPpSDU0W3OgYfiYc9KAqi1kQcK+7kRYgAAosQkLxZrVSHqUbA16v2B8/MtS+fgSCVMydbwbZWFJ7PH52SQApl5OS4aHIrZha9phn+RIojiap2hYDoxD1VZo9NuRW893z3StBnYWuIFaGDdpSjWJDSSZYEb0WoT29YZFCiJ4rwUSaLQ442bQEBf6ualFB4zYmRW8kHIX90N5QRM1X+6I6YU5TUmKHcMhSE2nrQHKc8f82PR2rPO9F5hVMX2sOJ+vaEgKTzDglhaSwTgh7m+jKEGJQNmXH6TFat2vegfW+CxFzc8iJCAi+UCQRMIeDNjELMeL0LgZpLbGhv/vn8UbbdWLmLKoYygk+IhjdDCyKKwV63EU0xcTQGCMxFQPQCj2P1aU676qNVb9/7614lzxdDaEAY750GvJ/BvG0Eyf3/Uh2J5/A85AECWRAQvcLzVA36ATTCvl7Vw3wPgbx3gZy7/86/gG0h9H6ER3T/f0MfsMrC3FEpEBhCQPxCIOYHAGG/GXNybiGF+jUVRbrfIjgcPlVfBZ4ivP+/68vEAsZ4AgFxBIQ/qkKreqzsNRk26oKCIE8D0vP6UZzxoQIgAATcNZ504Q2YJjAADYAGrNDA5j5hDVkDBEwicHg6H6AAQAECDYAGzNAA9v9Nygo0aoMI0BE7MxMfKzArKzC0A7SYjwZeLl9ukNWiS0DAJgK4CherPyiBoAETNIDPidsUEmjVNhHwFgA46mHFl2/FB+yB/ZUGHnNebbxNLo9eAQGGAB3Jcxft4BO2YLxXxgssgIUlGqBFyYPGleKMNeIVCGwPATrvf388f+uv0cVHccDoLTF6tAX02E8DtFBx3zg4f7097oweAQEBBOr789++l7yu08SeIZhnP/MEPsBnWzTwCmVAQGCgyPIRcF/He3L36GNPf1tMD0IM4wkaSNEA3VJI1s2XS++1xeVzd/QACCQQaFb6uHFvzwySFD76sMv1//n8kT6oEv/77z+8O5yq3v8EqYkFDbXFxR/P38R9od/s65DXvmMu7HMuuCuLsU0gNlFRsA0EIPR3cWTrcxB4/rOrV4GNc9KTJiLNF65kBFydAgFlYYvKArYJJs0QJDaPQOPIB4a1RYYV9+kVJk2dKSn+UZuU2RphMb1L/nbKACmAOhSFWoDAigi4lUv9uVx47++FceIq1BVn0HBR3hIgKYRQtoW5Wx97xtHC4SmBFDkRaEz8OKefi3G6PfUsJuLn88ectLfXulW/Wol5nWte83of78lhGttpe53y9vrtVvvH6hOO16ns8X+mI5K1kH/74LCPmIHfO9azvJBggDdzlompvBXgPndLY+3o7ul8cHRYz31yZuSCCu/SeNS4Y4sgy8zbeaVub580UawKJBgdCW9iqA9+Nf9uisbv80q0q6tMMKGM/MDTSNfYrBz+9qGvq41y4E8/+Ps8cLxXUhk4nl+8VQBHCvuIE3HLEXCaf723vzJj2eXqoRH0jcf8wpV0hs8k4xvoy6fV4hIUtwJmO3o6a0VQDGoeAqvB2opBjSsU8sUzCgU0CGC1v4py8ng13Ve0ol9dW/erL5j+G8rdz4vqVsDzuv4ebssqKAZk1oZVcfniClaB/Ux+qZ7SxLw/VT87nCo9obK2RpynPDJ5PoRVvdT4xOVmuD4ZK414EDL+1t0KkD2e1mwlnN4++EuTsI0wj5e9Oh4e+QllJFNUbR0Bt5qAmX+cFk6rFeeMUzvk5RpbtzUzj0GM6+dt2TD95xrsnnoVtwKcQ2BPU0SiakuHVwpgKZg2d4mnP11+JDIwKLR8BO5P568zOJBNI+JbQaSd3910566mNaJVu9WSJjOkugS2MMqfQfl7oLoVcOp3CNRAI1gKvPWDfApgrRzmkYQTrHcaBFpCHe6jFJoCZJhAtYX62PpMrnqVTb+EFZiH4YmtSA+zHQIl4YMFc6TPEvkJHM/fSo4FyjaMAAT/yIkSFJbj+cXacPoz/2MVmDXSmVSCrI1L7vaoOdKt7BC4Fm6KWyFrzKm8ZUARWIvsyigHgn+i4A8KAD2N7aGpbtnA9F/GBL+7u1P2CTFlEcqgFOcV4Jw/LXmHIlDM/J7VUAj+BYL/OrHMrIAznPk3xehnTYIdZapPoqxC80MCLotDYNdQ+tM3Q21G/JWntbGAItBFWmWGQ/CvyASNbAN45ydNhyczik+Zs1C/1bo0kt8hMCAM8/9K/I4sfvjAVyCr8p7eDIjbtro03bnhBrYBFFd3F7efDK//8hgAbQUcz98o3dFvwiFQwfz/qOZfMZc/rZ8PpwZKmv1uEuzvHL+/fKd6p2ACzLoa1j3qVZEC8E1J9I+2thFQuyDKgEOg+Nz3c6Geg+7uj/1cUEQyxcjR5zaF45dDgEx+/ua+9p7O+hqhhfJfHWN7Oh9iohRfBWTeBtB1/Ks+YXqVjYDuVkDeI6LC5v/XFCU4fkN8qP46nwXeKNoGf7Pg6leZp7BF2EgE3Negtn4JBu1JkRY6YkUqzAiynQZQdvwzYdYdOQWQrAcB8ZXxdZGRzSFQXPEfYeFwyhZtu9QWWE0fHVGhn9hGeiWZ00NyiNJAwJuDt2yGqk37E/fdFRie+jaA8koOpn+NCaxYh57lKI9DoPicH7HwiIfT+WBsWxl4tHY0Oh6DTf72wuAhoZlpa4Lr11ffSviwhLDEVwMZtgEUb3ijMf28yYmz4075xcL68/W6+g9lZ7EcSVv9lpKOs95td5vggWTSUoyQfwQCTqushWSYcOU/VxD6MXTSDGGJghK3dei3uEITM3E4+wwNSZHxaqdHRpjL1wRQfH4c1/OFcYu3LfoMEA+fYSVZkw42XZYj8m1pkK9+r0zkghlxk6Aik/M4qSh6ZGnY9ETaceec8NFbPIjM69TwiSs2T+dDqt6lYbUld2OnCUhGYQGxlDTa+d2qfztOfp+dOUzYZCS+KjhVSa/g9sgt/3U40dHGlS73GConw9bGcoRQwhQEPC/RUCbVHALFz+YL8yoaP79FQ9u6W3AefIU1YMqs7Ehba+zVJzUBMCQg5sYfzy9uD1tZMxTfBlAweek5bzklQ23V1kHyCFZAQI+m5B0CxX0bVjT/jx3azfgL1NYA+AaMHXgOaVWuAAAgAElEQVSezq389Mx1MisCIgAFIclx4++lbwMortYutM3AscP7dhFQsI4FfiLuEFiq+X8MddE4uYVTyXKgbjsWFmMGPKQRJ+q5K/kx+dyAv30g60XoT66nAqMTZXDips3reIr2I9f4o95uBNROlQgrluImcwN8jEbR3wFS8tXu6kenu6nfaIwXWGWe66/Pu5rT9MRv6JJyECJP4auADisqmadQH4xOMzSLBMrL5Qs1BXPiPR5jB0jcQpbB/D/Udycjyr1b4JHaP9THXcZ7Yi7NAeQ1x97+FALxmrOM4CQBLcAkau9gNWcgnPmfQlAbSqvoYCpCY+KnYwwrxjWPePugpsSttxghGWduoZh1Whd4h/8jCdasoI2s3AtTOQWAJsbKZkI18yy1XWh1NnJ4kCwzAmoOgQK+QHsx/w+RSInbA7hKuDHDFeXlX+SnIUvaBvDbQFqWIOzLDXHXjcd7epNVkJ2l7PyyJpQlWvbW7H+qLG/RKcdPYM+nBPzxlTL2+2nPqeC9G3FmcapWO/Msbta8mvLg+JfiojsM03I6JsvWWvCWpNSv1eex5ThFoPYTkFfsrvxkbl37+56AF/5aq7y5A+OOhpUs+MOEUdoGWOzcIn6muTVZ5c9oB/wtPL97uvzO/VP11f3p/PX70/kff3t8+/3Dsfop/dM7hVEcpaG0Ftqs1QY/PzT40SpKp4LVYpV2ao1fVz0OpzIUgdfdbEUW4uy3uY87KKysF5vT1fZjV7RYdDGfXOGHl8u/f3iu/uH75+qfHU7Vnx9O1V8vOE1Bef+cyro/Vf8FlZ2rX9L1KljJ6oXI8/L7Jkq/30N6LOPyC1EEtn97oNoka630JlwjW7ipPyZ8/lv8yNDCq4H9/t18a820Md+UF+5PfnX57ffHt//hcKz+xeFU/dtI4P/gfy990tj8W6qDLAZUJ6evLbyL35wZaHSh46m457uAw6IF+ijCR6AQ5/LJ42la+G9Y8POBEvcaXsA4xJlaYL4CxxY5xlrv70+X333/XP3Ph1P1ywGBT4I7CP+gYE35HdKGZyiDnuTD8z9RW7T6LVmPohI6+1ig+DbZDr6HYV4R2JoSoGB+5kxpyvvnLezxj2WK4s5OM4WronJIe5uLfRXG4i2R7rtj9Z8fTtWfRkI/0DwX0uF97pPKDHnj8kN4eFL8n1LbJPqsWaa4c11QRGeeBVfgpYu38jTHa0ldThGwes3w8/KtoiXYrJZXXOhcJ1RgUsPPnd7PLL56oLGYeCeAogPWZU0v7NUmyMiCvnuq/sHhVP2fTPAH4dv1pHkQ4sKcmPI7pI2fqbJCmsv9sfq//vFz9Z+N7Ja5ZG6/eA5PmZpn5kpb3IpXuII8h6D8vSMaTqBh7ox6lsyv3DgoruxGAUqTp3hQ51A4yyO/zznNu95PvrHjNz8dKX0TlRMGW7ZX8sg/PFf/BxP8HING8Pr48Ds8KW14n/rkefl7KIeHxe+X+1P1v5d6mkCNJk/T5ooCP13tOG+2CTOzYrcQsXhioNTtAAViJaYz/r/e58/+gZ6Z9LlaNnEP4gke9pqrf6LH1UBUKOj3f3n5Tb/HH5z6guAdevI5Ead1cffHqormTkiXig9x4Ulpwnv85HH0Tk6Dv6C+KEC2WhWKdDnpuJ349kRhc2S1AWcFef8AW/fTlDYupoT/Ts39jKZbryomzpFezgr7mU6g0fHCFgjGf5BT3eH09q8iIR0L1yB8ebgLSwh4Ms3HQv8mLJGG13GTvsPqEPKE5+Xwl2//6ru/fPt7xmFvNU+Lh421SKrM2wItZK1BW/GHXyjZ2RYoRQlQOG4WmPrgc+zkWpFuiihKfCUxwoFFhaFdLURFHPv7+eXy7x2O1T89HKt/x4R/EKTxMxbIIb41LxJCvRVP9QyliePZ71BneIay+e/6/Vj9u9LuP5ffLnMWzFFWAPFtiRFztgjmtmIjPY+yc7XwglNWK8LSXZR3MrOgNe3vesXuYbmJUVjdDDI1cSUkCP9CGJs3O3Pv/lshGvp0NcHfCFwmnENc82RxvOwmPlYGWPpWGqacNOGJtMk6yDeA+npDlAYDvDm46WOq36uEjaBR8WOy1oVLRvowZA2we2OgZ2DZ906w6h+eKTp7nN0OTmqMlQRmAV7N/+T58h8djtWRCRMuPJv3SMg24T5f/Juv7G/iKM9AeSnBF8oJz7gM/jukiZ/0Cekj9XmYUvOnULudsodOFayqr/mRtt0CQ9aAR5MKtNpEua6C2gwKe/2TZpD4/nvPMSctWilBGfwnv7r8thf+JCiDsCTa7nrncS5NJMh5fGuOJNKF+Ju6eFr+HpSUVFiIY89Qbnhe21aIEqC2VdVjBVCwlu3m7P8kJplIbMIaMPO+lUR31gnKftZ/z59VnDmESqvwm713hdVMEGqD2xAzoVstWy38zy+RsL8KydtVeiuOCdrQZ74C7w2jvLEQj3+PLd+na4R8VE4TzvpJYT84S0ABVwqr8beEFUBFARnptLsa4RdekNvqrheczRxLzRXhMBtKmyJDT4NdinekQaIX31dMrGrE6wwWIuN08eO/uvzW4XT+FWMSQVCGZ4veuVDtemdl3Qj3EMfzhjAmmHmdoR3hyePce6KsOC3/zd9DWT/cn6r/h7AwOD2aJulsmTmHwJvTKuLOfxOO7TaA4OXO0QQtPAO/yfHM7behODECw+BPuw4RhUwQBebS2oNXcD4M9GH6QpP/6v+7/Ob9sfqXTPAG4RieXIA3YUPMJiGQAx70TJXDw1LvPGyoTSFteLq6WZtCePykdH/+819e/oblaaNwf0YYq5bVTPzmP+OKsmWaoLYp0kWgD/7Ma+VU2JvineXvNh0hrFNr1D4N82LYh681Zmfu5uMo9d5iolG3s/78+eXyG5EPRBCIAYv4dxzu4plgDfH82ZUmFd7UlyozFRYUka64rnCmhIQ6w/Py/qn654RN1sEZqFzJetVYARQU5rwCZADvUqKznn7L5Q+QzfSfMCuXQigW2ymuxHlnQBVrQ22GaxioSbxP1UMQoH0CkdIwQRoEZXhyYe/eE2lbaVh8Kzyqp4lLpG/q7opLhI8qj+FgY1+zg3AUBHLAyymwkaIY4tZ8msa7YxhMBvvFVJ5TcNpbARlN/yDYlclfRZF7Oh/ETZnXPTizq//3T+d/5IV/I0zj331CNBbWPWmb8jvSuPi+ON+uIGya8qJwik/GdZTNlZp0Xm1mNnE+KV0ORBbOLxNYh/FY55lwOpwIB5IzBLxczKEE6FpyxFeNV2Z+JXTsVTFSW/dVwbSpczmUYevQT+rjfr9mTD0Izvh5pXkmXLsEKitvWLi2rQq8HveeqiMO47/5O1MEQn+a8qN0IZyno/fw+5WwWpfC1ytN6fTMRWFOmraUrTdiuiU5JSDHR4W0eJ/aBOBKAIS/KBUrmucD85d5Gl3RvLtcfsM7/YV+B2FHv/l7LMRvfpPAjwRqK38i/qYOpjTc5O3IH9cZ+uGeUXt4fXH5rd9d+Qgry06BCqb5Fr5svNYLB08V5ani96xw+Xh9l7d+qhM/CFWUUKlwFXPjlUjXY2K8TC0NeMZoHI7VTxkT50Kwee8ShixfL26J/C59FN5ZX5Qu1NWkT7QjGTemnEQaXlZ4/+kMqFWyeKevgFGJT9z8p0ApGZQAWauOyn4xZ+oQ/gpkWleRZVuHj/Wyd909sAmj8t+cLn/7/lj9m2ilH4QcCQ/+HoQJD3PvkdBMhaXyhrDOFXxUbkjf1B/Fp+pt0nIlIcrXWT/rf6scwuy/Pl7+5gSoVZNmYO5hbBY/w8kcVcB2WlkGOpGzAijsS12JG8JfdcqoK3fLBP6VTk7VxTJDe398+2Mm5KjdjaAbEpJxPAnYVBgTvE3ZfWm7yojCW2WxOjj2rTRRfpcuFRbKSsSF8uqnZauOhpPeinMkYO6eRrfKVBmeYmWqSkDPFeyLuqx4BOZClyssaiwyz0JAVcFbj7mZXf17U3FbqNX9DmFBmA79Dun40+WJhWj82zP+uPxQzpjwZD19ikxL2LBx7mhbrNTwNv3w/nT53VnErJBJ7YpghmEXtqPDc50bVxgPy1WoKgESi2el4y8XAsryQG65bUU6A0oQ+0qD3LGt0hJwEePmcSSkm99MeDZhPC+LD8K9lZ/SsjStMkaEN2WytLy8Jr6jnlZ9URqel6er35/e/reVhmP1YjIeh+aYTXs3fsxy9UEyUqDyEcF1b0JV9PzHDX8ZCbY4Z0Apc9cKY/Dd0+V3mAB3wqxLeHaFdwlKnp7SxP9RPBeqTdoozWB4XEfid7IehgHVkUrTCova9QP9/vHz5e+sMCQiRRSlNBueLyKDY6xQz191jkSv+YEnJfMFmXK/NDZmu2tOx6q1ERAJxp8vzvDq//3x7Y88Vi0BNxa/SBAmMWZpQh3heZM+kTZOk8rbhLH88cp/TJo4z+DvFk6GrYIlWQEs+8rshdGqLabXmjOewGNmsf5vmKZMzIFinAENr2Zo9c8FJlv5BmEZP28EIheArKyQr2v+hXj3ZPlu0vM4/k71xr9Z++NyQn1xePN7RFk3ZbA8TT9gBbi19HAaGfX+cvnCBJPZeSPUrEZrjLfK147gmGJqShThDGh69V/9gWfIQbiFJwlG/j70O07rBGssIDuEdiOEuXBgeVPxN/Ul0oc04Rm3KaVApOqisFYZid8h3w+WV69ukZT/+/ABq/RzrRWhKU5VbmN07tNZwZlewfnPrBd3ueS1rOVqGmpi/5oLq5532QsvlsF35xWolnDjgpS/+z52po3iW+miOMf4ednsPZWvS1CPTsvKTwudq4B3ZbL0TR0sLJQR4trPY3VcOCyi2XVPSc2yBsidDxdFdpuFK10mtcwZUMUpzPBKbpukN9wrlXGfL/xJUJhlZofT29/nK9mEgAuCzj15PH8n4R79DgLxJh+vzysFrTpCGCuvVVYiPlVHUyYrpwljbQhlhydP07ynyojCeP76fU3HpuFpMDmFYcvZMkEwGQlkGIOAykJryTaAglZreiU3ZhC3mkbJ8bMRCEEIjXiappm+s+GRgJvS90YYdpXBw/k7E8xxfa7MKK1Lkwhr6o/HJ5G2pbhE8V3lxOH8N383/TVQBX4Zj+G431hkmWTTKltHS8ZewSPc7ErOJMUoNkrJRDWOgbWtBaZpJjL/B+EVnk1/mWAMceHJBWgT1iXIWTlN2T1COpQXnjxPKozHu3dW3016FteXj+KavFGeJtz3Ifyun4YdP8PUNGcFKACzgN0en+JK4xL/OuFvuJteye2RGOM+6ziqTNrPNE0zia2TIMCCQIx/h/DwvImPBCQXnkNpb+KZYhDiwtPVH9Xl4lhYK22irNCH8EymZ+WFdOEZ19cKb+ozflRYnKG3leGAUefTsvNkzG/2+ltYaZz34Sfx84o49mee3q0xM8t7/zSYHq8g+MKTr+j5e4hPCb4Q1zB2Jjhv4viKuhGUbR+CJg8rJ1V2CGvS8/L8exMXldUVzvscym+eURlNONUVxdXlLzFpKs04YYbewigxPjweDtZKY76kGoWTdtOtpsLMf55WsgRl5J2FgCFmZnr1T+Am/CYaoTjAqDnTbvJEArBJw8KbtEwJ4GGpPC6MldGk6RPwPeljQd2U15HHtS+Oi37HfQi/f3j/9MMfziJkxUzCvLPBd5CmcPRPcdTnVyV+mdQcpbnPmWmQ8IbNVKadeeYP5fZyqniqDtMLMb3pWqzycByO1V+EuREJNGp/I8RSaaL0Ie0gs+f5+DvVEf8O9aaeUdrB+qP0TTu7wie0J66b/6b3P1ce1lnVmVCcjW+XzAJ2o5kk5e2sbSDR/V/jx3k2SmOzuiWunY4T/uZX/wSu95nhAisphPuEZBDOPA17b5Ud0sZPlj4I5iZfFNeEszKasFTaKIwrNqGu8OwqJ45v0oU2xHVEv4uwHhqwAhQxZ2YxpQ1mEr6BdTotCDoAFjGBN0hjs7uUMG0HJq71tL/6f7n8rSDA2Gq/hU8kyJo4Hs7fWXlNWh/mhGaU9kaQRvmT8bwM/j4mL0/D8vJ6+HvoQxPG8ri4od8Nri+XvzWbmBUzZrYCmJ8zikNRRFV8Pq38Pl3mrtyAMPkvdLSwiNFAIxsEEt7t1/Ect4Jfkn669tq0XO+FOc12CrhoTjXpovAGKy4Q+XucPooL5bpnFJe0SAyU59oTlZMsO5QTpaX8oU2hb63fifQhXepJeYsQbtmsADj6pzfxV6xJ0uo+qZmMmaUm4KKwWfsRk1qPxBIISBJnEBwdzzKY/fH8e6z9LQHnw0NYeHJhHMLiZ2quuTQpoZkKG9km3pZWnYkyQxtb6aI+NnFx/vg3a1/IE8oPT962Oux4/j0JGpcoM4sVYI7Tl0TnUeYkBET9raZsu0sqAKVo75NGbgeJhfeoAvOPn0Ws/mn4D09v/3200g0CLDy5IIv7GX43aSOBGoeH9MlnJGRbefviojpTZTdl8XL4e1cZcZr4dwd2qTZcCOtSplwGK8B0c28pYG68nWbkrpmGbHzAS+tehtVMEat/GsfDsfppWM0OCDeuCAwK1Kgsl56HsfemrNAO/mTpnFCNfoe84RmnacKjfCkBPSUtx6L1Tm1ndYUyw/OnJc0dzXkDC2tJlNFuqxm5K9qQJR8naOOFX8oIKK9miln90zAcjtUvuMCNBFhKUIawINTC7+STCcNkfFzfmPRxntRvCuv653Xw90T60Mf4mSy7o6xr3mP1C2XSX1Sd6rzB0b9FY5Uzs/D16+MXU5IEmxNg1L0MAeUjgeMJdlm3VslNF9R4wRcE1Y1w44KNv3eZv6M0oTxefngPz5Cm9WTlhHTh2UrHBTfLQ2lcehY2JX8yLSvLtSH+3dOWSwmXAcVEpWIFgIN1DHtxvzndr/o+xS8ECkBxdKPWYIUPRAWhVKICEIRd69kn3IJwpck+kC7g0pWuVScvN2IkIV2rnJ66m/RROa38ob5UOSwsVVZfWBznfkMB6LTK4OpfNU4oU1E8x1b7PUkBOFXvVqs4NiHCRCVDOQqlKh8HLHELgAss/t4I7yAo/fxKpkkITJeOhTfl8TD+HuYvC2vqYmFNOSE9a1+TPm5rIn+cNlVuKyxRRlKhYO2i/HU92AJoYdnCaAqjV+AZqGI8AsL8dfyCStQHoJAzvOOHbT8pRY+pxIpi/Xs80WYehsPp6gTYCKrbVX0QlOEZC70UY2/Sthh9EIYJ3FLCNcrb1NOR1tWZiEu1pQnj6fl7wCMKc21IhYX01OZE/A/kcJl5uCdVr2L+D3SAOwAmjY2lxGbkrpmGWBqdnbdFef8/CKhirAD+i16NMORCLCV8Y8HGfjdlsDDCoyu8T5DexLEym/J4+1h8GIObMhKCOVlWIl0oM5W+FdbRjjoNjgEGHNNPfGm1SG5tRu7KeiO+fShydHbeaEm/EC6AEu9FWAEO14uAuCBz70yY8bg08w4rOfZk+Vt5OsJDHeHZyhPj21FGyJMqIw7jv8N7eIZy6NkKS9WbCgv5WnEFCTjV1f+VZopRnHfOVlvdF7WwTrkIiFoVM4oVf4M4W8Nexo9MjIwERxH0EivNLYF1ZcxBIDbCkKULYe7JwkMe9+wKD4LSz9NQFuVp3nle/h7mNg/reG/KCnno2ZE2tLuVh6cNZaTCeLtDuuY5lZllmmKiDP2WpgLe9RO+VplGfX61kretTm6V4MeALpMbgwxZERA2TbUZV5qxmbcC+C0S6ktL4I0QkEP9vynPC8IQHp5DgrivnqaMRsimx4HX0ZsnEupdaW/CU/luwgq4SyTTltl1jJ/PH7MyDVQ+GQFBmTv9dkhJbYQEymR0kCEbAsK0cGVaHUKnGCvAsfp1JEBvBFyIZ0KtSRPCwjNWJkaEJ7FM5At1xk+Xn6Wn38k0oR8snisHQ+1IpQ31JPP6+ijNX2ebCBMqzrr6r+cRjgROGK/cSWMLIptfffNhbNx0K6owAT/kBhz1j0NA+GjKWAKmdOaVxsOx+guauJEApbYH4Raecb+7wlNlubyJOnrDGUNp1cXL4e9M4LbaytPwd1Y+pXd19MQ3ZcZp2O90Gcfqz8ZRbr5U2Vf/XpEmHp4PBdQ8BQHJT67PogNhpy9op1OoI2NaScKMhEYjFDrCp2uxyri9P779EW87E2ZJQc7jg9Dk+RPvLeHN4pPhvHz+Tvni36ys5Dj0pWdxyXbE9bH0vK7OvL5tLv79c/XPlId1cnXCiyeOWf87jgROHrtcGQTN/xeS5ZP7Jb/vi9MAkwdFOQPb1+5nNN2m+7XzmbYC+JMAvYKsT/ixOFcG+90S2DycKw5ReBL7jjRNm1n8TRuCksDS3NQRxTXlhrzRM44Pv7vq/oG+Sqk8DSZVZ2X13+A8h/lP6jESL0VAeLFNc3Qe3xTVSqCdLqUb8fxmVjJXBcO0FeDHf3X5LSYAgzCjCcjfudDsCudpxrzflMPa0VIeGsFwxdSVz9N3pUmE83r5e9NmVm6Ij59j63f5/sfT5T8UJ/wFFWDOLABvp1mFT1hNdwAM4yBu/oV2GqA2+RQmzEZIJARLX9w8bVYJ4eAH4PsUhF0shHvDmdAkHJJpozStdD14hrLcM1GGwz0KT6UN5cT9atoRleHKHcBkuO5j9RdKwzirGkP+MhzvCzmYzeoQMokjIL76X/KBKPnGnV/IZCaOMiqYjID42Ecr0B6h1WZmxu8F8J8F7hOQKUFHYU2eGIseYXpTFksbyoufMZ78d0gbwvp+x3EpZSCU456sbWPCb8onbCcTsmIG8QXT3DnzjCOBimQwqSrxRdaSRbbGHvAsD8VJECPxHAQOp+oxFkSGfpu1AvQd5+kSgFz48zT8nWEfBGN4toQpS0fhrTSsvBDuniw8lBXib4R6X1pWd2d+SpMo46beZDrDK1mzq/+gNOBioDlsUDSPvz480L7Mc+kCW0UQGJ7YohRgtHB5B9DOz5mOnQSPRqFzzTocq6MXhkEQhmfcvya8RyiGPCFteLpwlq8JZ2FxmlAWPZv0QXBH+W7iQ7pYOLN8PA9/T9bH2tBKy8oL7aUPANk2/z+fP3J8rL1joWWLY3iF8VWYTpbzSRUtxbhZ1xbpyLfGrCkzrGboucS0JQyhdwRrCbUg7JLCjfcrvUJulZUo4yooWVmpdHFY/NszpKY+Hs/fuxhXIk2yLJZ/XLzhLwCaX/0TTcDpWnjWTyte53K1FU7aaR1rgYY6jYCkUhfBzIwztMPx8neDwCdBlxCKTmB3hTPh2Fo5d6WPwhuBGpUTlITw7ErXFR7ypZ43eYbaNBTv2x7K/eG7p8vvSNH80nKLUJjrOWP6COXScSglv9Ki+rKaf50igZvd2y2FuJa2069eU0zeXphpK8DbH3MlIBJoLSyZMGwEHqVn4a30E+NcmR1lddYXpe9KF8I72xqVQ/1o8qT6kUr//vj2x0vpWip/AdtlV9pZ4hEuBeDOyu3zEfI84jpezJo3OW5Nx0/FVSHdEPjlzmjCVHfFvVKXEHWc17BZ87u/fPt7kTDrFXxsgrfSJcK74lNCeEraPsYztZyb9H1Y+D628rD0P1g+xqZjyl3sM3MdW/DXbPxWy5ru5tPafnWKhP64muki21CXWTHdssYEzpVpxILX0m/DVoDDqfrTSLi1hFxXHBN+KaFO4+LK4em6xo2n4e8hfRR2Uy6P5+8hP38m4vv629W3Nt0dqz+xOpuKWv37OYut1nzUpOJQX4/zcue/GCbVc+Frmi/ijuB3JwKHY/WJM/RC3s1+V8ILiBshyARlK46Ft4UgU7hSaVhYUx4LuymrI67JOzTuLH/IE55NXSwNhcXx8W+Xj+Xh8Wa3BRUXRQ2uQ2MzGG/YatbJmDYQobiNLucgrUrwUAJUyV5xm2c9ZlbAqub9U/XPgwBkAq7BIBVGTJyH8/chBt+RlgvUpu7QrlBmlLfJE4Xz/Py9SR/KG+rHQLl09O+T6iSYUFmR1rKgSBr/nsKEYSgiqarwl1Tw1E1eUALUCPxwqh444y7s3awV4L89Xf72/bH6NyPxTApRlreJZ8IzhIUnF8r03oQn8ri0LLyVtyO8KS+UHaeLf7P2t8oP4Tx9eCfMCDu1CTCxoqJ8ZYLgD0/DitXEYTCfPINTtazFTN1MDCVAhchFP/wUGI/k0zCdHI7VT72wc8IzCLmusFR8EJZB6LLfLSEf4qMybgRvV/zIcK4ENGV35L3pc0e6ppy6byucYRaaOarboVJzBs6AQtRxLTYDnch/LC2Lqdgwc78Od7lvGQg1YvYreTkbZWo/v1x+4/5Y/ctIaLfM/HGc/90StLHgHPrNy2RpW2WyNFPCm7Ss3Jsx7YtL1BvK/IGwIsyszqiiV/9eoYAzoCx13Z+qnzEav5kbQnGyq/8AWRZzMV21ufRe49ABPFsIiPt2HM8vQgTfnliGFcWf/Ory24dj9eseHBoByNN0CNGQNvQ/+bsjr8vD4/h7jwXB1RGlDfXTM7QhPPviusqiff9fWz4KrGjSlb0mVnKvuMVd9vdDdc8/WIg0eZ87z6jF1EMH6yeOCK48n1QsOi+XL8WVjCud6GjBM8bhcDz/XkpQpoTqyLBY2Ma/gxBuwlPlcoUj9d6XJ4pr6qFyojiuJIR2uWcrnWEHNcVz3K8qVjnDWM+YXiayZBH+p0rfB+pwqt6lmIVCGCkBuCxoJXJXIFi3L6VIL/L7YAuwf398+yM/R1rCskNgBkHZSssFJn/vKKOVl89Pnpe98/T8/VZYX5UuimvSsrJu8sRxvD3vn374wwXQimfVWv0H87z4VgOcAVejGa8cfub0rPaeS5HLshVQM51Xy7eDrUZVwgWprGjYRT2wAtzd/fyXl79xOFZ/FphDn0CkNEPxfeXEednvRliH/PGTpU0qIam2JfKEvMlnK/2x+jPCRpjkZxevMleIt5Fl1W91qigcWEzNpomQ0V3vm8cifsl6VNZNilwdJ+b49PZ9GAQ8pyMgbmaM9hlVtvR4MboAACAASURBVBs8E52Ohl6O3//l5Te9UyAXxO69JRTZCjsK5/lSwrUVH+Xl6UO6+NmkSeQNaZs0fPXPFImQLn5SvhDmyiAsCBO9EZhek4KlrMaTK8z11hnHefX3YG2YjghyEAKeh8r6azA+wOYX0YK+6T8edkXTbpr46fY6OAfGwzLqt/TVlCnmkoORjgJDOdGP/+ryW4djdYwmdIvGE8L3xiLA0/D3WMjyeng6/h7SpMJ8XCO4WZomrCdN0y+Wj8J+OJzOvyIslOGfVF1OxVV8vkRK+iRgdp44owW8nk+5TP/xuKt93rBLEyIrxNofP4g7ubHfzmzVheda4QnzohoztaAdD9AMfeL2cKz+NRPWQZiGZxCc8e8bRSAI7wEhfFNOyBcJ5la9HXEhTaotrXo68pPH/7+2/JnfMHyKd5/cOLAqLbBu6g19x/MWAc/DHsPcyfR8uG1ZxhBxTXVYKL1iS2A8AYhrrz0ORip7m6fqkrJAjEdIJ+VPjpe/ye4IaAlOphgEYRvHx+E8nr9Tuvh3SnDH5YXfrScT6FPKbLWB+kx910F5fi1KApiw6XReFXcGfD5/nI/QvnJmNvnX87CHt2YdDWmT8khN6zNpaFmBKKBy8Zv/esxTag5VpDQWQAs/+X8v/4H/ZoCb4EzA3ghpHpcQ6k4gR2lqptHvUHiTLyrjJj6ai2MUgZCGVv7/gvpcwDS5s+C4qmBhzb+XbJwYan83Ex9Ls3sUXpWx91sEYA3omVDiHzIZsa+oZQUgy1QPFGai6Oa7w7H6RUKo3ygFXvgGgdoVPyj4IyHfpOfCfSgNj+fvnWUcq19YvuWPE4S4k2zgYQMrOhW+ypwPOQZ4vyMl8J24FSbQQv/T/uk3v7ecyysyZmKwBiRmsPye5rh73BUnVTF7nD9+rv4huzGwJeS5UKX3UQK3zVBceYl8TT2JuDCnQpquMkI6erbSunYfq19/91T9gwQ5mg1So88RVirxLdYBJcTsIAk2zNCqv55bPVZVQRimF63iYNZmbJz5xO+wBrAh9KuJGKN1f488laG2wurZX2XQmHn1XxDk3w4IAtWNU0JIh/jwbI1nIn0rvk+ZYML8Jk+kkIS6w7NJT/v9lr/slxp4BbN7jc9IC5UKTx2hiKSw2mLY/fH8rfg26XgZdiFeWRTOisy9YTQRQ4rDyWuzmJWg1GCLM7aJKwk1v5HCJpDbEji9ffCfEnZCtUOQtwQuT8PfE0K+s8yufFH4YH7X9mP1Ty1f8JOaZyom95r5T9p7l7dIjLPcpTDbSpj38M9zo1+XQlAY72powaAScHGmtJEr1KYjG3oRF7gTzVRuf62L8NcMH+GXYHGYyVPeXx/cKegTwj1WfuPfrbK6FOdI4PMykvl5empzCV7+qTHX8k+ZekpFXHk/VY8pPPYQ5pW+h665kC28VOEfiMakEnCqXulzjaGNe3l67ZYz8rXfX+dgKe+TUH9ueCrDndMXqTzvT5ffJe/5BCO6EcZcEDMTfitdKk0U1kUbTTnJ9MfqT6itUjhIl+vniLwPE7vyd2yfVLbvdnifCh0fN2Xu9wufkvlVi6aNKgH1vds72hYQP/t/qmZdTqGgmARhRibXoo+IHk5vf58pAo0w9opB/Jv63QpLCO1WPFMwmnCWJ4SFZ8CV7iT/E2pba+IX+ENLGSWeOAcehfbNmsNz+pI7j7c+5r7Q5zqHuMVzpG9IbgxH129WCahBpz2fzfsHiO8hLlg9aJldSzkWODSxvj2+/afso0ItgcwEtmMu8W8m5FPxvCz+3mJUTZkbEfyEt9p21AJTu/gR3lM1y4o3RK+W4v0429rn58J/pnJoCeNkW4wdEWwxNM8UN6sIKDCORfuHio5XNO6bUvbeP53/0fvj2x8fTtVfc+HeCGnOXJhFoCM+pRTwsL++P779r3RcMTnJCw4UV5Cv47CI/sTN1RP9eEoZcm9ptCv4iT62KvwDkRSgBARHwaJNxQHv8BQ/R3xa7kGsaCXqvHY14FXq87/71eU//vZ0/u7+eP5fDsfqL7xCEFby4Xmj/HYqA39Z/d/vn374QzoW9ePny98pFZehdis42AXMF9Oe+FbecxmXZw2NaYh3gv/5/JErxwbfye9kkWIY+mv+6TUxm3svVy19M4qAivPQSicrxE8phPHduqbNuMDhePm7h+P59w7H6qe01dL379Kczv/l+9PlP2FFbPpV1fq0YJssDILSnQBfhPpKfTqc7At+Ugzt3/C3NhH4SWfbHBOERU1ExWpn4ivriWf/+2jJ78+F1ZLkc9IZ7L42I65sBOStY/UplDX9T8QV5YIVZM9DypAtp+qRFJWyZ9CC1oubs4IQX+dZpI+AOLNYec9QwdPZKRabOWazYP7tPavKarrmPaueQClJqdeisfvT+WvFjzctX5wcq0+0ENbCx2w9npjlz96uowTQwH+mPVGzgLKGKZj/V/ca9ltEyyfYmPEu/FggG2q8zkBAS2CsrWwqzGv6kqZ54URtdNf20r0KY+a7mTTLfaZmkLvdLE4TL20Qj+cXd4mE4YkivlIQchgihqkyoVfcvrA7u9CyFALic+MqbES2m8QtZYa3AfwigW7uK2nhSIua/Tj7pSZdX5jTaskscp04OqvA5fW9un1Eg6tJcSaxsvk/0Idf4WhN7mL9OwJeeE5DQJW+hASpuAJjUDl2+/tlygiSZY+kuEyj1B2m9kdytJj/2kqGme0Bz+TW7t+1POH79cUZXFD8ZlzLusNpuakuq/keCc4R8flN88OAdZOEJl3drnhPw5XHBR6x8Ln2FtCmJmOqM945x/5RwS7CoO0BItqMGp+CABW/NlRr0mOCpmbhNsMUT5qQIBG1LomfYBCyXoyhLOfUV+5qv1Yi6m1tURoYg2WxadT2grsE+Rrhx+pTDqdBcfO/wvEVVWadUVkrdoIW2HDxUzFXnrH40p8heMVv+FTeBtjCar/ZwoaX/xD5jouv931K8/L0Z3+vzIA0QtrWeNA49yluHhQ0bcZUoeWpTfXEdeP3thBQXlCorPzEHeGEtwGIVzlP/lNVytn9oS2CV1LMtjVzMvfGCzR732tuC/ghwuDxj5InCKTN/5omc1oVNFr1fLw59t3vmLiZZ7pc9Z6OdHyLnvWu0y11G8At7OpL1nTGRJp3UPn1qh+OflLTuHjfgBQR+i2CNR1uxM3/yuZycSZ3HReRI1tS8wHljkdA0ZJEznNqQkBhm2zRh774CHn+/aDl26O4cHjBqp+PtPB74ScFelagy/0FxM3/Cz5nOpcsfJ+0Vgrizo1zcUC+eQiI75VfFciLpnUsoCEuUBcoNJsV+tcxf1hz8RbGFM8BBJxJr3Qv0SsRxUqBu1uAPGEHYLiJljb/k/J1U6lCgOIX2y4afhoKkKGKu7s7ZeUxiwVJ/ljjtDm/A6FP/Poz+IQBFuO0+9JuEewW/LEiQL8bZWCMpiluLl+wGlhKLlvy4F6KBfKPQ0BeODKH30zH5rzATfGOtcIGtwHcsT3a0982L675caZF0DiK32kq7+GrZSZea2JNL+fqM5DcZxT2Ch5kBJLkp7DfycZj2qpHst8oex4CuvSS9xSJuOCNFH+ywNb38LvbW7fPd0+V294ZswibR63ItRgBb+7b0mkBJpDYSuNqQahPE/gz+fJ7nfmForiD4xXbVb/gtpi4UcAkBBwv0FyNKtyL0QeAvKXj7cP9U/WVr6fcS9qu83uIt17jybIRKUB9Y4G4zAhs3D/gSpicmGtmJzsxDUwCN7Z6HwHB3QCZ5/Lc6uUFYkshz+44qrANkOY7nAdt773IT8DPnTOby+dNgFu5YCL3BMxq/ufEqXqhC+4G4NAX8a5s+s/i+JcaCPFtgO0J+DRPpcUU5n2KxMoMgyLQWq2kiX5wcuc3/3PqU2R2Zhg87z/e0wjom/7Ph3RL9EOVrR4z+cgavEioDBL8mRw59allhzVCEVgwcQyY/znJqq7ynvVuduN9xPt0BFStQ8auj8Y2wEz+BsE/faKVnAOKwOSJYsb8z+lO0SGQVjsqd7vz/uF9GgLqAtCYUkxoKVrGyrcAQPBPm2BbSw1FYKQiQF6wmb2cU7Sn6hBIzEL4wyipPiJsPAKK90RkufFvDBLYBhjB0yD4x5DSftI4RWC7twquqanTed/P96fqZ+5IkAGBqGzyze7tvZ9ZOa2nqnSg+DXMIRRICaZLeGhOqn7vYNBnaIQg1i8DXv1DBLXneLeirL9QtabQ3HZZpE0/nz+6rxtmshIomz2xFWCMSaib/jNuB5Hi7eYaLVho7ukL0fL4mVELprFphOYEBMjU61cUu7jhSoCJPAalQMNS4LdydBgTtgLCNDHz1DT9E11rdbwR9vWiRPaOj+0pEq+Ohxv009CiH9SzAgL+4zqYfEsZRL1aqbcPTuevydqywvA0RYh/A6Hdf2wFNMjnfVE1/dMFVALbXs6MTyt7MuNjZb9MkSc+83Q+SIxTXkpH7VkRcKtMbA8sm5xtIRrK+kxMz/kVkGIwcxuBJrzwdxBCe8MTWwFZZ+Tdnbrpf+HlMESjzar+VNGV5bQnDStjmi+EeTbuWfNmzMnMc3Lz1deC5u0D9t/EnXweG8XgeP52zFaC6ieDsRWQda67eVhblcYJiOVCZvS10K0VfS2YIOiX4387zm783z4QLWQlRlS+TwRgFRBXAm4nfc1IrlaDSDlQ3Q8+VdgKyDT1lY+73XwYqhHyT2/fMw98bBVKCPq4TKz2M806VJtEgJiBX32CAcSTVfu37qqQFBSYHZOzQi7QKd66dPUIIZ9N2a8XAdfV/qq+Q3JUipJ3iUCtDFQP2CLIzDC0BAQxJpgg1eZ6BtN/lxUK4fJz7NU790LJVpthqGg1BNgWARx95JlFToaMrYDVZk1/Qcqm/5w0tee6P8OTv38eILYwBOjzkl6bhTKwTWXgoT7JUP3s3vsl1B7f1VeFkWrW5tIKP+DmnoQl3TxZ33RHnvN7Foxb7vuj20Zd+XhwVmJG5UAghYBTBnD18JaZWV/fSAEkr/DWfxByrWekSLQEo7sRjm6Fq76ae3QyRZtDYV1tuAn3Qpv3x6/eW/3G9bW7Vmgg9IcmHOK3i4Dbz6RLK2plAJYBrO76FAfEgT62QAMQ+tsVaejZEgSwTbDr1dAWmDv6ACXllgZogVPfzgcP/iUCAnn3g0CjDOgfa7udwGBqwAQ0ABoYTwO19z6u5N2PwEJP5RDwV56SAxTuGRjPhMCwgRVoQI8GiDcRj8KRPTlRgJL3joC/ZwCKgB5jgxAB1qCBbhp4JJ60d76M/gMBNQRwyRB8BXAcDjRgggaO5xc1xoeKgMDeEfAWAKxIulckwAbYgAY0aQAWgL2LJfRfCwHnTas5uVEXhAloADTQRwMLP5OsxTtRDxAoHgFchQrTrwnTb59AQNzeFAZchV28ZEEHikBA+CQAORfCwRACbG8CbOv9lZ7Xj0UwTzQSCJSMgLs5UFI4PV1+FPCh4zzvj9UfuFsKcRfB1gUE+ic5r3TLfqy/OfL2gR/J80eJ5cYZX8QMrBNPICCDgLscSI6ZvPa12isftVJQ32OPq4vlxkKOUaPNW8KWvqvw4D6iM+L8/eFUyc1Z+AH0sU/EAYHlCLgVuRQDP1afprbQnUg4nr/x7SJmtCXmir5gPC3RQC3s6XY9ZqmbMmf9N0dE+kQ8YEpbkBYIAIGJCMh+Oe3tw8TmJJP7Y4q1peD5/FG2zVA4oHRtjgY+kwnfK9Xv1rxkx1sKRBQAmudJhoBAIAAE1kFAlNnPXFWM7RkUg80JKilBspdyH2lFLiHou+aktB9AV70IBwJAYCECwpO3d/9/YdN7s3coBnJ7lTBr70XAWugn0fF1RX88fzPXfN87iSZElryImNBNJAUC20JA1Hw3Y/9fA13yYg6nEZifAY4pQomxINzrNtQnZNz+vKNREvIjHPI05k+qDtEtuafzIVUnwoAAEFiIQH20R8qMvM7+/8IuTsoeTiXQzYiO8V79DWA9gIKwtoJASudnojOviL7LvZKfNFlYYt/+tfGpy3s+f2RV4RUIAIG1EBD9AJDw/v9aGEwpp1EQnBXh7YNnfPS5Ulqt0T8Uhb0rCtfV+1W4+xV8qQJ+aI4IHyXGhUBDA4B4IDAVAekLgKa2Z0vpOxQFUhBkVkkoVxtXJ9zDWXm3rbTjS2vAS7bEvdCXXSDgmJac4MDxnYiKHJPE7Yfagnr9+mgMdyzsI7JufopaEw37PzQA4AUIlISA5L4dlV0SFlptFT51sb6wk1MQy23rBre21qB/+BOtgSLKAAJKCEje4GXZY1kJ3s5qJBWvji2GZg81HI/01h93GsK9+5sXqW1d/57BB1+HZU9/KU1XXQ6jsG/uT200bWbfidf+yBS1q3Ngdx4heqLoGY6AOycvdH9tBERNdjCR9g6X6LGp9Kp9c59WzfAJa2xr9VC1V9BkLDvH80tP1YgCAkBgCgKiTjuYrIND4fHXPTGwoQ+r0DHNDmuHjACi0x1QaofpOq18rjMmwH8QfyQAAqMQkNXWp38AaFSjN5ZIdAzSjPh1C8fQvB8FlCeD80F4S+adwS6jSUCgPATcHmtaSCzW1rFPOp4eMpixH0teyXrLifatjZvbPhlPodNSwhFwGl5IDQSyICA7USto6hNGVXjVdKvQFexQJUy3t1idqsaBcsKQ7jYpHAF3O/ToeEkIiAod7NVNIgXvma9r0j4VeE3z6e2D+r4/jvxNo+X6xEZKkVojDMrYpNFAYiDQgYAYI4UDYAfi/cEZnNouJfkDZLk/AR+h6Sfajlgx3nKqLh1VIhgIAIGxCAgzUxyVGjsQUboM5u0iPNuznJgoeJskIiv1n6LWRVhk1McTFW4MAcnVJhwA5xNLJgc382ZVUYGScoTFVb/zifju7k70gjFYZRaNDTIDgTvJEwCkXADi+QgIW2fS+7CGV7sZrCJFbY3MpzS5nJL8BQsMuXFDyTtBQPgWOpwAWEhHop7UqRUvhRlU3CQtVd371OU5Ry4kt9WzC99vgS3G1UcMBe4KAUmT6q6AFOzs3le+WSwhR1xgtQZJ+62stLWpSwEdH25+y2oNDFEGEBBDoHv1s/Bb9TgBsNqYZfIHMOEUmOVYJPb9V6NdKkjyOyOrNhSFAYE9IeCZq5R2DvPcisTkV8HK9wNUWW8KzKb4wLt8Rcq9uxPdZmRfg1y10SgMCGwdAeH9OVyZujIBHepP4kopbOlyMzoF5tn6gOPqymRLCsCDmKXxhJtG1x4vlLcTBGQdzOBAJUFGwsw0rQRkuClQljY7trcyKjsStGKlTMmTAEQnVvqJdgCBohCQnZjQzKWIQdSk2uWApfj54CyWDtzzL0WuZAF4J2UBwFFAsWFDwVtHQFSQYG9OjHz83ri2P4DK54Mz+TqQw+OXYgO284KFT3HA12jn9IXuz0QARwBnAmcgmzBTTW8FCHvHZ1JsLmRxMDCkm26ClAWAeNimgUPngIAUApiUUsjqlJtln/wkczIgk8f/BSZkLVqtHqX4jU4PUAsQ2BgCUhOSthY2BpXZ7mTxlBdwlsvSD9CpGl1LbjeqdQIVAYGtIADHnG2MZK6VM51GWAvBLCcbhLcz1sJmK+UIjzGuHN8KoaAfOghAAdDBWaOWLLflrfTNgDx3/NP3Di4/0hgb1FEjgBNHoAQgYAgBUcYLpyr1kc50dG6RIJVUQnu3twx+7EidYJQrFKVPjKfyaKK64hGARl78EN50QHhM0ycDTtWs44GZjvtdyNfgBjgEiCMgqezBkVN8+FDB1hAQFRY4U52NXLI4003cT8923A9HxvLR5cvly16rTNcFVOPCV/NHyQYQKgYCmgjAK1cTbb26MjoFjvpwULb2TVRS9EZsPzUJKgA4dbQfMkJP10BAUAF4XaN9KGM+AlZX2NmE/8xtivkjgJwpBA40DuNW9F3bTV3hUABSgCMMCHQhgMnYhcw2wrPcFEjMvWePPcv2BLUJTqkmiBqLDhPDgEYAAfeN7i5temk4tHEjBCZ60qNvJZdQAnIJfziIGSHGO8dzPgtZAC52eomWAIECEJCaiIdj9amA7u+micIXsPQoi9fPtGa6srjXGrEbAjDUUeINUnzHUDfRFCBgHwGpiYgVl72xl2S8vXT0dD5ks0IIfbPA3uiW0yLJk0floICWAoHMCOBMbuYBUK4+o/Ndj4Wgkoyjz/t+oQwzqhtAQFIBIJ42UD2igQAQIASgAOyPDrJdF9znKyATN+tiov1RhH6PoQDoY44agcANApIKADTxG7jNBGQ7GSAj6NMWBFwLa4be4oaA78SI4DcQyIAAJmIG0I1UmXFPPi2w11UOcCOcETpLNQN8J4UKwoCAMgIwxSkDbqy6XEfyeh0GlyoCOH1ijMpumyOpABBPu60RIUAACNwgAAXgBpLdBWQ7GbBU0Kfzj7qGeHeDbKzDUACMDQias08ERBUAfGe9CKLa0MkACP8iKA7Ox4UME5q5dQQkFYCtY7el/jklgD6Sk15Va+zZL60DHv+FEaQUrWELoDBCQHPzIQAFIB/21mr2JwOkPtKyVMD35Yfwt0ZMI9oDBWAESEgCBCQRgAIgiW55ZRd5PBAf+CmP0Oo7SPqUutlxsAAUSQ5odA4EoADkQN12nUUdD8RZf9vE1NM6WAB6wEEUENBAAAqABsrl1ZHtoz3TfBBw1r880mpaDAWggQIvQCAPAlAA8uBeQq2m7wh4Pn8sAUO0sRsBKADd2CAGCKggAAVABeZiKzF6R8DnYgFFwxsEoAA0UOAFCORBAApAHtxLqdXgHQE4618K8Qy0EwrAAECIBgLSCEABkEa4/PLN3BFA9xTg077lE5TvARSAzQwlOlIqAlAASh053XZLXt06QRDgO++6wy5a24Rxn3QkkHiaaMNROBDYCgJQALYyknL9MLQNAPO/3DCrlwwFQB1yVAgE2ghAAWjjgV9tBAwJ/7AKhBLQHqIif3m6CmO66hMWgCJJAo3OgYCkAkBm4xx9Qp3rIOBuBbT5fYBHats6vUQpORCQ3FKCApBjRFFnkQhAAShy2MQbXcB3AXD/vzgVyFUABUAOW5QMBEYjAAVgNFS7SViA8A8mYygBhVKlpAJAV1kXCguaDQR0ERCdiNgC0B3MFWorSPhDCVhhvHMVAb6TC3nUCwQYAqITEZo4Q9r+q6cFfA7Y/lAV30Lhb03A96h4CkEHVBCQVADgjKMyhKtUUtQXALs+GASFcxVa0ChEdOsRDqIaQ4g6toAAjuNsYRSX9WETwj8oBVAClhGDUm5JBUCpC6gGCGwDAakLOQ6nCh9tMU4imxL+Xgm4f3r73jjsu28e8QYpvrN7cAEAEJiCgNREhAIwZRT005r+3G9Y0c99PuNzwfoUNb5GQQXgdXwrkBIIAIG7w6l6FFECjucXwGsPAbft83z+KDLmcwW2RD7qIz4eZI8A7+7uDnIXTMHqaHLE0SizCAhq4xeznd5pw7zPh4zCJyHEl5eJq4MN0rqg8gkFwOB4o0mGETgcq0+CExJHcoyM/eHl8qWYtWe5oA7n+iWepAR8aWQYdt8MyZNHh1P1sHuAAQAQmIKApEfu4Xj+ZkpbkFYGgQIv+FlbEcCtgTKkNblU4glSCw4cPZ48HMiwdwQkPcExIfNTlx/fEi/4EVACcE1sbooUXXDg9tHcw4v6S0NA1CR3rD6VhseW2nt/qn4mtdqaVO7T+SCpaE5pC2GypTEurS+iW464BKg0ckB7LSAwhYFOSouTANmG18wxP3Y5jxUlwGGDEwJZaFPwBACcjrOMKCotHoHDqZIzEYPRqtKHKU9/JvwDCGaUADr+CtoMw6Ly9LS59tZOXR4WGypjiEo2iIDkUUA4AuoRjHP2kztjPY1xJ4R/QMKQEgDnwDAoCk9JB0BcPKYwgKhimwhImovhCKhDM16oyllyphz16xH+AQ3ve2Khva+EXWgXnnIICDsA4gig3NCh5C0jIPx5TlzOIUw8dP55km/GFGE+Le2kFbWp44m4PliYSu/o1lGxbwDA0ig+fKhgqwiIngQgAYK9VhHSMbXfT34kM7ywTSkB8AsQoVMqVHT/v+YxuOxJbPRQ8OYREF1B4kKg1enHmOCcJfwDKMZuKVzUl9AnPNsICPt94CNAbbjxCwhMQ0DUPAfz6rTBGEhNn7wVVdimmf1X8aY3Zs244LPCA0Q4MVrSz4juFpjYHCQHAkCAIyC8jwwNnYM9890JSdlvN0zz9F/ZZG6wf5+pTTOHC9kYApJHjeFozIDGKxCYg4CwiY4ECz4MNGdgfB7vp2HBa96fu64+SQlH0dXiNOsG9ZUwB+0uoV3B+/+9JQzjs2B8kBUIkJMOfS1u6gpwfHpsA8ymMjNX+gb6UBhLYYvUeLr1fcYVwrPJ905coYOVZv7gICcQCAiIfy4WEzVAPerplTK5o1NBoE94appbFaxSUxUB2hKAt/ko6q0TuW2dCfQ1eRGC/f8Jo4GkQKAHAfFVFy5c6UG/HeUd/eyY/ImJZxg/c1sfp+oVDoJtWu37Ja/EvX3oqx9xQAAIjETAM9upq6Ip6R9HNmW3yQw6wtH4Zj0a5448Wrni+LqahYPgiFmqYFWERWbEOCAJEBiFgKS3Lhx2+ofA35Vua9VPnv4zLvjp7+n0WG9KfpxsIr4K7CmK6ti0r7iBrnsshe/+v9CXBbtrRwwQAAKTERD9XnfNjHE1cDQqbq/f1vG+IABXOeMfdXfRT3GHsjkKA40dfANuxlXy079eEcT9/zeoIwAILEBAfs/OnTTAsR0/Rib3+kkIKnj6zyVT4Y/KBOVn6hO+AWxAVfgIbhhliOMVCKyAgLjXbr3C2r0vgL/K15SH/9W8bt+xygsYa9slpDSY2DJZgRUsKkJ89Q/z/6LxQWYg0ImAhplV8zhZZ0czRJCCZe5c/9XsXdSlN0adA4Pl4IHGOgOJZa9SyUID83/2kUYDNomAwmmASAz1IQAACDNJREFUmknubN/0/nj+VsHJMgigqc8iV67OYmXTf4Lwf6Ux3yST6OiUv7tiKu1NT78z3tEBN4KBgAwC4ia8etW5C4dAr1BZ82C/Mt3aia3o1arSqvOK2dVqMiaMxn4Xfi+iHxW7Yr4LviHD2VEqEBiBgCJD3awpz62Gns8fr3vrglctX5njGIHUpNnSVozRY5QN1u6EzYZXruIXiQUaz3Ah1QiWiSRAYDsIqJnyaFJvbEKXIPjdVsQGvai9c6VdawvROymFG1MEVLz+awXgda++FduRLuhJEQhoOAM2q2MDl80sHZRCBD+tSOl8/2ZvUHN+AcYtL47uN6IIeKXraukIK3WB55YsVkv5DfIDAVEEnEATmMSN0G+XXeytagUJfmLSm91yiSeD4aOCbWFJikChCrDytgtW/zGR4zcQkERAyannyhAL2g7wzn1Gz/Lf+BsUq2Atoe8itgSuijDRUjHOgopmf8cfsPpfMhOQFwjMQMALuauAvjIrsTDL314n87I/zmd7n7k9Tps2+Q+RdTFbAmHMjucXd0Ok4XsEstxlseFtqyEaRjwQyIaAuhWgZoSmzqU7RaiEfeUgRK7P3Zj8hyZIMVsC17FzDoP3p/PXQ33Tis9mUXk+f9TqI+oBAkCAIZDDChD8BNxKI9NK6P6p+sodbbL3Kdph60vd5mLMyYzcRF+9X0sp2zbXca7H84FoUhSgjsKd5etU/SzMS+Un9v47xgXBQEAFAbUzvnz1c31/9YqAqOd6zeTOX/vTDxbvmb8KhCs2t2EbuNhHmqgV77m4HZ++sRsX90o0SpYBollJrEhh8ub+jPPB/rcpJMcAZQOB7Ai4fdRTlZEJNE5tj35/dLEy4JgbXc9bm/ZL2tPvEiq7dPSbOzmymbPHCfmuMU6FPzqFgGh5hdMEbl48vX3vjouu39ZU+/vCdv/hsLn0jXxAYFUEtL1+R5gZSSEhc+4DrVLIPJr8P56/dfG1CZPSb0HYx0zzMzHuVQd8B4V5xfZhBK3FeFv/TTT+OdA9Oa4m5wbNmXpeEAY0Nywo+RxbbGPtYB6ii4UgkMkhkDMEvLdXZa+HE0ykS6eP83Mp0dejTQvbmhtw/FtK1sgPBNZFwJtNra0StsX4xjN1rPpXJG+yBhTuG7CdeUDKmLB/w4qkg6KAwH4QMLgVsB3GN074Y69fcLptyDeg3Hmxgi+DIImgaCCwbwQynwool7GNE/Dd/YOHv9rEgzWgcbztpsel9JzMjy0tNSJHRUBgLgIbdaZTZnYjmSzO9c8l00X5yLESfi8jaTQpzCfmPVafFg0YMgMBIKCDgGeO8AdYg/F1l/GKO9B16LmvFjgJThTk3fTcp2DTldWi9xr0jTHigAAQmIgAnAIFGWNt7sfRvok0KZncbwtA6Z0n4CH8JYkTZQOBHAhACVhdCaAz3Dj/nIOYR9TpLF+knK0vBPsE5Jbj6KpfKLojaA9JgIBJBKAErKAE0D5/QZ9DNkmIio1y2wL15TlbFs7SfXsl3qE4bKgKCAABCQSK/NqajVUc9vklCFKpTPgHzFZ+IfyVaBTVAAEVBGAJmMQMneCH45MKaYpX4hRg3CY41mJADn8w+4tTJSoAAsoIkEDDEcFeRYCcyB7AAJUJU6k6KAK9tE8KAt1gCW9/JXpENUBAHQGnBNRf2Ru7IthDOqz41SkxX4VQBBKKwPP5Y74RQc1AAAioIkAfqjH4hTFtZQOCX5XqbFXmfWO2+AXKKfMI11fbIku0BgjoIOCOTe3TW/qRmL8OyqjFOgK1s+AOjw/i+mrrpIn2AQF5BA7H8ze7sAbQ1geONskTVKE1kEK8kwuFsOovlEbRbCAggoB3EHzY3CUqzvv77QOcm0TIZrOF+u2Bz5ubD7WTKxz9Nku56BgQWICA2xYo3UmwPvL1gNX+AkJAVodAvU3m/GXK9hWgOY3jfaBqIAAExiBQoDn09VArLriqd8wAI81kBPxdGg+Hcu4UCE6uONc/ebSRAQgAgTu3NfB0Phxs3rH+2e3ZYl8flKqMQGMZsDgvqE00Z3GmX5kqUB0Q2DACjuldlYEcX16jPVlagX0D5rZhQiuwa0ST3oGQaFR7brw6BR1Cv0DKQZOBQKEIOJMoMZ3a9L6ew1RtYv3syqXyscIvlEL22+xmbpDCSkdt1902wNzYL2mh50DALgJuy+BUvau/yPb2gVZFQ//+GOI7OCnZHVe0bB0E6q2D6l2wGAzOjfrCrno+waS/ziCgFCAABIAAEAACQAAIAAEgAASAABAAAkAACAABIAAEgAAQAAJAAAgAASAABIAAEAACQAAIAAEgAASAABAAAkAACAABIAAEgAAQAAJAAAgAASAABIAAEAACQAAIAAEgAASAABAAAkAACAABIAAEgAAQAAJAAAgAASAABIAAEAACQAAIAAEgAASAABAAAkAACAABIAAEgAAQAAJAAAgAASAABIAAEAACQAAIAAEgAASAABAAAkAACAABIAAEgAAQAAJAAAgAASAABIAAEAACQAAIAAEgAASAABAAAkAACAABIAAEgAAQAAJAAAgAASAABIAAEAACQAAIAAEgAASAABAAAkAACAABIAAEgAAQAAJAAAgAASAABIAAEAACQAAIAAEgAASAABAAAkAACAABIAAEgAAQAAJAAAgAASAABIAAEAACQAAIAAEgAASAABAAAkAACAABIAAEgAAQAAJAAAgAASAABIAAEAACQAAIAAEgAASAABAAAkAACAABIAAEgAAQAAJAAAgAASAABIAAEAACQAAIAAEgAASAABAAAkBgEgL/PzFZe/KK3CYPAAAAAElFTkSuQmCC;" vertex="1" parent="QO4F9BHPAcaRKNSe1WLH-29">
          <mxGeometry x="11.200000000000001" y="3.8" width="56.2" height="56.2" as="geometry" />
        </mxCell>
        <mxCell id="QO4F9BHPAcaRKNSe1WLH-3" value="Create contact" style="rounded=1;whiteSpace=wrap;html=1;hachureGap=4;fontFamily=Verdana;" vertex="1" parent="QO4F9BHPAcaRKNSe1WLH-29">
          <mxGeometry x="44.800000000000004" y="280" width="190.4" height="60" as="geometry" />
        </mxCell>
        <mxCell id="QO4F9BHPAcaRKNSe1WLH-1" value="Sign in" style="rounded=1;whiteSpace=wrap;html=1;hachureGap=4;fontFamily=Verdana;" vertex="1" parent="QO4F9BHPAcaRKNSe1WLH-29">
          <mxGeometry x="44.800000000000004" y="140" width="190.4" height="60" as="geometry" />
        </mxCell>
        <mxCell id="QO4F9BHPAcaRKNSe1WLH-43" value="Delete contact" style="rounded=1;whiteSpace=wrap;html=1;hachureGap=4;fontFamily=Verdana;" vertex="1" parent="QO4F9BHPAcaRKNSe1WLH-29">
          <mxGeometry x="44.800000000000004" y="600" width="190.4" height="60" as="geometry" />
        </mxCell>
        <mxCell id="QO4F9BHPAcaRKNSe1WLH-42" value="Edit contact" style="rounded=1;whiteSpace=wrap;html=1;hachureGap=4;fontFamily=Verdana;" vertex="1" parent="QO4F9BHPAcaRKNSe1WLH-29">
          <mxGeometry x="44.800000000000004" y="520" width="190.4" height="60" as="geometry" />
        </mxCell>
        <mxCell id="QO4F9BHPAcaRKNSe1WLH-41" value="View single contact" style="rounded=1;whiteSpace=wrap;html=1;hachureGap=4;fontFamily=Verdana;" vertex="1" parent="QO4F9BHPAcaRKNSe1WLH-29">
          <mxGeometry x="44.800000000000004" y="440" width="190.4" height="60" as="geometry" />
        </mxCell>
        <mxCell id="QO4F9BHPAcaRKNSe1WLH-40" value="View all contacts" style="rounded=1;whiteSpace=wrap;html=1;hachureGap=4;fontFamily=Verdana;" vertex="1" parent="QO4F9BHPAcaRKNSe1WLH-29">
          <mxGeometry x="44.800000000000004" y="360" width="190.4" height="60" as="geometry" />
        </mxCell>
        <mxCell id="QO4F9BHPAcaRKNSe1WLH-44" value="" style="group" vertex="1" connectable="0" parent="QO4F9BHPAcaRKNSe1WLH-29">
          <mxGeometry x="28.000000000000004" y="680" width="224.00000000000003" height="190" as="geometry" />
        </mxCell>
        <mxCell id="QO4F9BHPAcaRKNSe1WLH-45" value="&lt;div&gt;&lt;br&gt;&lt;/div&gt;&lt;div&gt;&lt;br&gt;&lt;/div&gt;&lt;div&gt;&lt;br&gt;&lt;/div&gt;&lt;div&gt;&lt;br&gt;&lt;/div&gt;&lt;div&gt;&lt;br&gt;&lt;/div&gt;on(contactUpdated)&lt;div&gt;&lt;br&gt;&lt;/div&gt;&lt;div&gt;&lt;b&gt;Actions&lt;/b&gt;&lt;/div&gt;&lt;div style=&quot;&quot;&gt;&lt;ul&gt;&lt;li style=&quot;text-align: left;&quot;&gt;create&lt;/li&gt;&lt;li style=&quot;text-align: left;&quot;&gt;update&lt;/li&gt;&lt;li style=&quot;text-align: left;&quot;&gt;delete&lt;/li&gt;&lt;/ul&gt;&lt;/div&gt;&lt;div style=&quot;text-align: left;&quot;&gt;&lt;br&gt;&lt;/div&gt;&lt;div&gt;&lt;br&gt;&lt;/div&gt;" style="rounded=0;whiteSpace=wrap;html=1;fillColor=#e1d5e7;strokeColor=#9673a6;" vertex="1" parent="QO4F9BHPAcaRKNSe1WLH-44">
          <mxGeometry width="224.00000000000003" height="190" as="geometry" />
        </mxCell>
        <mxCell id="QO4F9BHPAcaRKNSe1WLH-46" value="Websockets" style="text;html=1;align=center;verticalAlign=middle;whiteSpace=wrap;rounded=0;" vertex="1" parent="QO4F9BHPAcaRKNSe1WLH-44">
          <mxGeometry x="91.86516853932585" width="40.26966292134832" height="37.99999999999999" as="geometry" />
        </mxCell>
        <mxCell id="QO4F9BHPAcaRKNSe1WLH-47" value="" style="shape=image;verticalLabelPosition=bottom;labelBackgroundColor=default;verticalAlign=top;aspect=fixed;imageAspect=0;image=data:image/png,iVBORw0KGgoAAAANSUhEUgAAAgAAAAIACAYAAAD0eNT6AAAAAXNSR0IArs4c6QAAIABJREFUeAHtnQ/kntX7x9++kiRJkkwmySSTZJIkySSZSSaZJEmSJEmSRDJJkkySJDNJJkkmk0wySSZJkiSZTDKTJEl+P+91P+vZs+fPfd/P/edc57wO83z2PPefc17nOtf5d53rkkgQgEDqBM6RdImkLZJulrRT0sOSnpH0iqR3JH0k6eBA//ZL2iPpRUlPSrpf0u2SbpB0haQLUwdK/iAAAQhAAAJjEzhb0pVVB/qYpFclHZD0laSfJf1f4H/HJX0v6ZCkfZKeqwYLN0naODZ43g8BCEAAAhDom4BnxNdKukvS09Xs2Z3i0cCdexcDk78kfSvJKwovV6sa2yRdLunMviuF50MAAhCAAAS6IuDZvDt6L4nvlvSJpGOFd/JtBwr/SPquWjnwoOk2SZd2VVE8BwIQgAAEINCWwCZJO6p9+Pck/SDJnVbbDo/76rH7XdJnkl6T9FBld3Bu20rkPghAAAIQgMAyAp55evnes/rP6eSTHOQckfSBpCck3SjJqzEkCEAAAhCAQG0CZ1WzyscleWb/Cx1+kh3+qhWTvyUdrk5JePDG9kHtJsCFEIAABMog4I7Bx+o8u3eH4Y5jVefC7zEZeTD3frVK4COLHuyRIAABCECgEAJeGt5e7SH/RGdf9GDHpxDsO8HHL+2/gAQBCEAAApkR8LGyRypnOVb6zOBhME8GPCC0HwYfRcSGIDMlQHEgAIEyCHhp99ZqWd/W+fOUPd/BZZkM/Fk5ZLLHxcvKaDaUEgIQgEBMAhdIelDSh3T4DHh6kIEfJb1UnTCI2ULINQQgAIGMCJwv6QFJH2O8R6ffQ6e/aIXALprtufD6jNoSRYEABCCQPIHzKk97Dn6DxT7L+Is66aG+t/8BrwzYAyQJAhCAAAQ6JmBPb/dWe7J0+nT6Q3XuTd9jI0JHSLymY/nncRCAAASKI+Dz+ezp0+E37YhTuN4rA45+iAFhcWqLAkMAAm0JOEzs83jgY09/wD39PgcMjg/h7arbJZ3RtlFwHwQgAIFcCfyvcs7j2T4BdZjx99khj/lsGw8+I2lDrg2ZckEAAhCoS+AiSQ716uXSMRUz74b/kDJgOxbHmbi5bkPhOghAAAK5ENhaxXnHoI+Od8iON8V3fV+5IvaRVhIEIACBLAnYtarjt1vhpaiIyRP1MrYM7JG0OcvWT6EgAIEiCVxcGfUdp+Nn4IMM1JIBByhyPAISBCAAgZAEtkh6G2c9tRT+2DNP3p/m6odXy+zemsBEIVUgmYZAWQRszb9D0iFmenT8yEBnMuDVMx+N5fRAWfqU0kIgBAF76ntUkgOmMJuEATLQjwzYaNaral5dI0EAAhAYlYD98r8g6Xc6fgY+yMCgMvApkQlH1X28HALFEjinOr//G0p/UKXPzLqfmXVkrgckXVWsJqLgEIDAYATOrJb6f6Xjp+NHBpKSATsWumIwTcCLIACBYgjYh/kDkuzKNPJsibxTfznLgN1o75V0STGaiYJCAAK9EbBV/92SfqDjZ+CDDISRARsLvirJrrZJEIAABBoTcPSyb1D6YZR+zjNbytZu5eZPSS9Kws1wY/XHDRAok8A1kr6g46fjRwaykQEb6z4h6awyVRqlhgAEVhHwvuE+lH42Sp9Zc7tZc87cfpK0c5Ui4HcIQKAcAnbi42XCv+j86fyRgSJk4EtJXukjQQAChRKwZf/DkjjSx0wx51kvZVss317x48RAoR0AxS6XwG2SvmO2V8Rsjw5wcQcIm39X/uzN0yuBJAhAIGMCdhRiF6IoPhggA8jAtAx4JfAhSV4ZJEEAAhkRcDjRlyXZUch0o+dveCADyMC0DPjo75UZ6T6KAoGiCdwo6QgdPwMfZAAZqCkDdiTkbQG7/iZBAAIBCXhP782aDX56BsDfzAiRAWTAMmAPoNcH1H1kGQJFE7hV0i90/sz4kAFkYE0Z8Lah3Qo7AigJAhBImMCFOPNB4a+p8Jn9M/ufJwMOBLY1Yd1H1iBQNAEH7TmG8mcAUMmA/cDbBaytu628f6yOfn4t6bCkzyQdlHRI0ueS7BzGBmDfS7LHuKOVPP2OTCFTUzLwFrEFiu5nKHxiBC6W9NFUA503eue7uLO6P6oO+0NJVr67JT0j6ZEqUuM2SddJunyA6G9eBt4o6SpJNi7dIen+ys/885Jel/RuNbDwgAO5y5OBtxcdLIwEAQiMSGC7pOMo2vAdjevQAZjelvSspHsq46vo4Vx9pnyTJNuk2OukBy8eyHiVwZbmDBBiM7CRsY8YkyAAgQEJuNF5toUCjcXAS+vuAD1bdid/raQLBpSb1F51maRbJD1WnVjxVgRbDrFk2oO5LakJFvmBQK4E7KTDjY7OP00Gtpr28vf+6iy1O3oHXmGmVL9FepvBA4NHJb1R2SjYngGZT5OBA4l5EEeCAAR6JGCFSNS+tJSgl7I9c7XjFG/J4FO9vwawWdKD1VaJDRsZEKTF4GNJPolEggAEOiTgRnUAhZeEwrd1/SfVXr2PRZ3VYT3zqGYEvIVwb7V9YKc1DAjGZ+BTJxwXbCbHXA2BhQS8FErI3nEVmzv8JyXdsLCW+CEFAjaa3Fk5rmGFYNw2Y4NPEgQg0JKALahfIoDPKLM6n4d38CRbr7N331KAE7jNJxAc4e79yicCKwTDDgrsc8J1QIIABBoQ8Nl+O2tBYQ3DwOeafQTPBnvRj941ELOiLvWA2n7tfczSNhtExhymbdmPBT4DimpqFHYdAjfj0W+QgY8jJO7iCNM6ohr6XhtrervApzUYaPfP4JXQ0kLmITAAAXt4Y2bSnzKyLYUDmxDhbABhDvSK8yU9IOlT2l+vgyGvvGwIJBdkFQKDEPBsBHe+/XT8dixjF7p2metlYBIElhHw9tsTkrx/zcpA9wwcrwRj2mUSyG9FEbBfdXuIQ9l0y8Ae9+7EiK+ottR1Ye10y14bvV1E++yWgQdZJAgUTcCBVHyuHOXSDQN7SPRxPQz5im5WnRf+f5Vnwn044upUV9n+wgGmSBAoisCZ1bI0Hf/6Hb+tjPdW0emKEiIKOwoBx26wR04fFaX9rs/ADpwcyZIEgSII2AjGsddRHusx8DFJu4XF9W4RzSbJQjoMs4NyeRBKe27PwKug3q4jQSBrAldL8plzlEU7BlYUtuK3T3gSBFIh4GXs+1gVWFuvPZVKhZIPCHRNwF7l2O9v1/EflWTlcF7XlcLzINAxAfvBtwEqg/x2DOyQi9M6HQsljxuXgPcMOd/fXCH4KJaDvdhmggSBSASuqIIUEb2zebu3Pwa29iJJO3ldSOA1ZgONZ0P2ieAgSCQIRCfgEyn2OOnz76wK1GfwnST7ZCBBICQB7wsSwrd+g7dytDW/z16TIJAbAQeVstHqjwwEag+EbC+1JTdBoDz5E7Cl/1c09FoN3Vsj9tTn2O4kCOROwPvbdjuMc6F6kwPbTdl+igSBEARsoW6jNZb7VjN4V5L3SkkQKI2A7Voe4VRQLT3pScJjpQkI5Y1HwBbAnAle3fF/IMkukEkQKJ2AtwbsvfI4k4aVgwEfASZBIEkC23ETurIB27r3miRrj0xBYFwCtnp3NNDfGAgs1SM+JmjXzCQIJEPgDhrt0kZrz4dY9ScjrmQkYQIOTfwC+mSpPvHWIQkCSRC4hzP+CxuroxzelUQtkQkIxCJwiSQHH8KWaD4Dn7DCP0gsmc4ut7bmpYGezsDLmN7XPCu7GqdAEBiWgLfMiB1yuo6x3j2IjhlWGHnbfwQepvM/bfDztyQ7PnLENBIEINAdAQfL8YoaE45TGRwipHB3QsaT6hGwZy8a4qkM7P98Uz18XAUBCLQg4BW1JzAUPE33eoWEOCEtBIpbmhPYTed/SgP8XpKPP5IgAIFhCNhQ0GGImYT8x8BxQy4cBj9vKZXAGzS6k0rHQU6exRCn1KZAuRMgcL0k+8xnIPAvgx8k2QsrCQKdE9hDQzupaL6QdHnnhHkgBCDQlIAt4T0QJ+rgf4MAbJCaShHXLyXAsv+/jcvW/Q8tJcWPEIDAGAQ8IPfAnNUAydsBhBMeQwozfOfTNKoTSsXuex3alAQBCKRLwAN0vAlKn3NEMF0hjZIzh+8sfUT9s6QdUSqMfEIAAif2wT1gL1132U+Aoy+SINCYgD3Yld6A3mcprbHccAMEUiFgL6W/F67HPBAidkAqEhkkHw7s4xCUpQ4AHNHw/iB1RTYhAIHFBC7FNuCES+XFhPgFAlMEbpJkj3aldv5fSbIfchIEIJAHAS+DP1/4pObNPKqSUvRJwH63/yy08/eKx4vsmfUpXjwbAqMSuFGSbXpKndy8NCp9Xp40gc0F75f9IslORUgQgEDeBOwyt2QDQQcpI0HgFAIbJf1a6MjYPvztWpQEAQiUQ8CRTG3rU+JqgI0jSRA4QcAjYvuzL60h2M7hMWQAAhAoloCdB9l9bom6j/glxYr9fwW3ccxnBTYAL/lf+x8G/oIABAolcI6k/QXqQB+PxJ15oUI/Kfa7BQq+PWQRNWsiAXxCAAIm4DDDpR19PoIuLFf4fSymtKUvW8HiGatcmafkEFhG4AZJxwrTiz72fPYyKPyWH4G7CxNyL3dty68aKREEINAxAYfTPVyYfjyAt8COpSjhx5Xm6Mfxwi9LuD7IGgQgkBYBhxh+pbBBwBtpVQG56YPAVYWd9bdxj418SBCAAASaEvBxuZK2SW0HQcqUgJe2jhYk0K9lWo8UCwIQGI6AV0xLCi9853BoedNQBM6SZGOPUkaznO8fSrJ4DwTyJ3BlYZMnjkhnJtPvFdL5/yXptszqjuJAAALjE/AK6teF6FH7SblgfOTkoAsC3tcpYebv4zsOZkSCAAQg0AcB2xMdLESf2kEcR6b7kKIBn+n9qxKcW/xECN8BpYpXQaBcAu4U9xYyCHi13GqOX3LHtD9egKB+QTCf+MJKCSAQjMAzBehWrxwTOCiYYDq7Nvr7tgAB/agqa8AqIssQgEBwAu4cc19htV0VW6vBBLUEoz+XkT2qYIJJdiGQGYGdBQwCMAoMJLQlGP29E6g+yCoEIJA3ge2SPFPO2dgao8AAMlyC0R8uKwMIIlmEQGEErHv/yHwQgFFgwkJdgtGfIxiSIAABCKRI4LoCvAbemyJ48pR/BKunqGQIQAACiRPYnPnpqz8lXZp4HRSXvaczXnqyle0DxdUoBYYABKISuFySDedytQnw0ev/Ra2c3PLtCH85H0W5L7cKozwQgEBtAmcHdfLlEOS/ZjwIsB8E0sgEHLf6h4yF7MmR+fJ6CEBgPALuRN8a7/Vrv9lBhHKNJOhJ59VrE+IBaxF4JePOf/daZLgZAhCITOAWSY7vEX2/2ZH1vG+e43bA95I8CSWNQGBrpkLlhrJnBJ68EgIQGJ+A95Z92sd64PHxs9NJDqyr/85UX3sSShqYwHkZG5m8PTBLXgcBCKRBwHptEm3vyzSy1Fkubs/YVuvmzijxoFoE3s90NLkf69Ja9c9FEMiNgI2Zj1R6zbNlW9Lnlu7OdBDgEw8evJEGIGAhynE/6RN8+w8gPbwCAukRuH9mn9zHmnNNLmuO+tuxWUg9E9iYqbtJnyv1cR8SBCBQDgEH87KV/3SH+E0Bq4C5hhL25JTUI4FPZxrLdMOJ+reX/c7vkRmPhgAE0iOwQad7L/XRMh+dKyHNDnyi6u/pfB+XdGEJlTdGGe0QZxp2Dn/7jOymMWDyTghAYDQCN1RH/GZ12K7RcjT8i736MTF4nOUQ+f8fDI8y/zdeIOn3zAYADp95ff5VRwkhAIEpAnbuNc9zqc+Uu1MsKZ0j6bvM9LoHL3eUVIlDlNWjqsijwnl5R0iGkBzeAYE0CLiz8ymfebrAA4ItaWRz8FzYris3l8EuD9u6HYnSnQsazbyGFOU7/Eh3JBw8BgIBCPhI3zKX5S8GKEOfWbRL3dy8Be7tE1gpz/bZSrvDjNKx18knjn5KkV7KCQFp24qTSz/iTvaEmOToKMgeEElrEMjNUvSzAvf51qh+boVAWAJ26euZ/apJwXVhS9h9xh+rwWsVz5R+9wkvjne3lJNbMxMGLwHiLaqlMHAbBAIRsNHyoRr6Cz/yp1fqGzW4pdTJr8oLdXx6Ha/8xqOmiVvMVYAj/P6HpM0rS80FEIBAdAI25jtaoxP7mdnh3Kr2SYjDNfhF0PuTPF4zt6R8uZDAa5kJwG0LS8oPEIBALgTs5tbHeyeKf9nnjbkUuodyXJSZ7ZePOpZ2xLO1WHhPbFnDifZb6Ra+rQWBGyEQhID3+x3Cu65u8jI3aTkBO0uqyzPCdZz8Wl7fJ391GMwIFVonjw7wY+VAggAE8iTg/X4b99bRB77GkePsE4C0mkBORoE+5mifB6QlBO5p0JDqNrixrvMeH0Z/SyqbnyAQnIDPr7udN9ExtwQv89DZf7ch3yZ1MfS17wwNL9L7zqpGx0NXSh/v8z6g43uTIACBPAnc1WC/f6JjfKyZ1IyA+4VvMxoEYBC4oP6fy6iSvZJBggAE8iNgYy4f7Zp06nU/7dCMFcF28nBpRrFgfMKBNEPgkhYNqm7DG/o6DHxmKpf/QiATAk33+6d1z45MGIxVDJ+kmuYZ+e+7x4KY6ntz2eexW08vWZEgAIG8CLTZ7590Ug4CRFqfQC7Hw20ISj9RyYND4k4aSuTPvyVdub6M8wQIQCAxAo7cWfd8/6wO+02SVw5I6xM4MyN7gF3r48jjCd9kMgB4PI/qoBQQgEBFwEd4X15TP9lYkNQdAXtUbTsYmx2cjfl/jgVKsuesMSuhq3d/2p188yQIQCABAo7nbj8e6+iIjxMoR45ZeHTNelmnTru8d1+OlVO3THaG4b2QLoGO8azjki6sW2iugwAEkifgrbx1Y5H8LskubUn9EDiQQd/h/qrYY4HPZlKBOPbop4HzVAiMQcD7/V6eXXcycd8YmS/onbaryGECaS+SxSUvr3mEvG4jG/t+Qj0WJ7oUOFMC3u933I4udApbgsMIydaO6quLOl/nGduGwZXOW17IoOLsnYqjHOnIFDmBQFsCXez3TzoAjLva1kK7+9o4ZZrUVSqfX7Uresy7vF/exRLb2JVX7N5NTLEj1xCYS+CKDvb7p3XRQ3Pfwpd9EThb0tEMJpTFOIranUFlvdqXNPNcCEBgMAL2LvdHh/ro88FyzoumCWzvsA6nB3ND/u3j8NmnizM4w+nRpkedJAhAIC4BO2LpUsF7VdMuzUnjEMjBm+zOcdAN99bXO250XTbgus+6fThcvAkCEOiYgAfvH/agh3w2nTQeAW8tRzcs/16SjVGzTB4d211u3Y42xet89pQEAQjEJLCxJ1eyLP2nIQ8PBu9f3OfdmwbK7nOxN3jleHS5oXssPBECEBiAgGOO2GlX1xMLu6V1uFpSGgQO9VDHXcvMsuf9JMkhp7NKmyT9E7xisO7NSiQpTEEEHulx9ZEYIGkJkvua6CvNXsnIKtnn8bJRT+q/Hc6qNigMBMog4P3UPT3qni/LwBiulNG9zP6c0yrA5T02wKEGDo5ARYIABOIQsHMfu1ntS0d4lmndRkqTwI891n1fMjX93AfSxNo8V28Er4jXmheZOyAAgREJdO3cZ1oxT/5+csTy8erVBOxYZ1JXET9/WF3E9K9wwIbI+zF2EuIykCAAgRgEbu3Yuc+8zoOl/xiy0OcK0Dy56Pq78EfOnws+CsPAJ0ZDJ5cQMIEh9n5Z+o8ja1cF739CHy91oJzfAldAlscx4rRdcgqB2gSsaz4YSNc8XTtXXJgCgT6NQLue8c97no+vhkz2jDWvQFG+C7/8ElJqyDQEmhGwb46vB9I19teerae2ZtjDXH3RAFtCffZp74chPZVRNxIfZegTTJ/P9t4RCQIQSJuAI3L+OpCesR+TK9PGQe4WEPCqTZ/9RZ/PttyFizFxV3DgNPQFLYmvIZAIAeuYIQ2MbV9AikngzOAT0nAn0YZakutj5OVjiyQIQCBNAl5ddDjuPtr+omey9J+mLDTJVeRJqd1NhzmNtnXgxrmo0bb93ntGJAhAID0C50r6ZGD9wtJ/enLQNkf26Nq2Xxj7vmfaFnro+z4KDPn5oWHxPghAoBYB+3gfw7ubjzKT8iBwS+C+6Zgkn3ZJOtkD19gjpbbvt9Mfuw8lQQACaRHYPlKs92/TwkBuOiAw9ApS2/5o3n33d1D+Xh/xUuABAOd7exUNHg6BVgTscneMSKJ+55ZWOeamlAn4XP28zjXCd1+kDNbGOVEd/3h55eyU4ZI3CBRGwJbb74yorF8ojHdJxf1wRLlad6CR7Am1OwNDtdMiEgQgkAYBG+KOabD1fU7hWNOo0qRy4U503Y54rPt3J0VyKjNRjf+O0tinapE/ITAuAS+7/zKigmbpf9z6H+rt744oY+sMHo5L8upYUunikfbp1gE5uTd5w4qkaprMQKA/Ajsl+czzpG2O8Wk7JlL+BHyqZAzbki5k2u0kqTREFK4uwM0+wzGX8e2dlCiRmUIJ+AjubPsc+v8+Zpjc7KpQeRii2HsTkLk2Mv7xEHCavCOq3/+7mxSSayEAgc4J2Ph2fyKK+LrOS8cDUyZwaSJy12YQ4LwnkbYFheh9Rmb/SYgQmSiUwEZJPmvfRgF2fU+yxlWFysZQxX4vEflrKs+7hgK06j1RAfp8MQkCEBiHwA2SfPy2qeLr43qW/seRgRTeGtUvgCewoyd7zotoSGGvf+eNTo8MQKBMAg8OHMlv1aCBpf8y5XBS6i8TGYiuktPZ3736Pmp6Iig4lvtGFRteXigBb7k52uasIhvz/44sSCqbQFQfNu+PXW12mDFm423zbq9YXDI2ON4PgcIIeMXtUGL6wsbLeAAtTBAXFPdIYrJZp2/7e8yV7KjelOwAggQBCAxHYKxIfquU6I3DIeBNiROwN9hV8pLi76P5sbEVYopAVuWJ/b7EWyLZy4qAQ7D+nqCueD0ryhRmXQLnBI1lM5pPgJ8SbNSrOv/P15US7ocABGoTGCuS3yo94KV/K3wSBKYJvBiwT/OW9oXThRjib/vrXtXIUvx9xxBweAcECicwdiS/VbqHpf/CBXRB8e2XYpXspPj7QwvK09vXEUdKv+L4pzd54MEQmBDYIMlxy1NUlM7Tm5OM8gmBOQQ+SFh2F7WpT+eUo9evHEFvUWZS/d6+xkkQgEB/BLwymLJbcOft3P6Kz5MzIHBbwL7Nfe5g2wBRPSc5YiEJAhDoh4C31/5MXHnaIJEEgVUExgxH3XYC7VMMg6RXEm/k8wB+MggZXgKBMglEOBG0p8yqodQtCKQQmXJeP7bsO2+79Z7sySsV/93LYMz+dlfvZHgBBMojcFZCkfxm2/z0/z2jw+q/PPlsW2I7ipuWnyh/977KvTUgmN+I8d22HXAfBBYSsLL5Oog+YOl/YTXywwICXjWO0vFP8tl7gLvXAkLB7/8CCedrCLQkcK0kn6qZKJ6UP1n6b1nJhd/mVeOU5Xpe3hzUqNcUpdFPw7miVyI8HAJlEbgnsUh+02199m+W/suSzS5La18WKXqwnJXx2f/3tg1wVcAR0eEuJYJnQaBgArb/eTmYDmDpv2CB7aDoEQ3e7+ug3HMfETH0r+OOkyAAgfUI2IDuo2Cd/971iszdEFBEj7f7+qq3aEYRo4ZK7KsSeC4EBiZwqaRoYb9Z+h9YSDJ+XbSYN9628Gpdp8nHfdyhzu43pPz/A50S4GEQKI/ATUEjpLH0X56s9lXiZ4P1e+6T7ayv0xTRPaKNlUgQgEA7Ao8EHPRb+bH0366+uWs+gc0BBwAetHSaoh3/+wvHH53WPw8rh4CXD98IqPTc+bP0X46cDlnS74K1h869AqYc4GPeNsT7Q0oH74JAJgTOl3QomLKbbv8s/WciiIkV4+mAbeKCrhj6HP10I4vw986uCs9zIFAIgU2Sohk8Tesilv4LEdQRinlZwD6wM/f3jjI03dBS//sPSTZaJEEAAvUIeOYc0enJRBex9F+vnrmqPQF72ZvIW4TPzgbEtqaPUOBJHt9pX8fcCYHiCNh/+KTtRP3cVlytUeChCUTzg+NB8drpDEk2qIukGG5fu9Q8AAL5E3Db9mA5Utuel9fOZjr5VzklXIOAXezOk7+Uv7t6jfKeuNXngFMu4GzeWP5ft8a5vwQCNvb7PFjbnm3r/j9L/yVIazpltHX9PDlM9bvH1kX3TLACf7hugbkfApkTiG7sN61ssfrPXFgTK96uYP3h2qfhovn/fjgxgSE7EEiJgFf0Ihv7TXf+b6UElrwUQeCGYAMAR+9dK/0ZrMCe3ZAgAIHTCfg0zz/B2vN0hz/9t5f+zzu9iHwDgV4J2ElWtAH05W2JRIuEdKRtQbkPAhkTiOzZb7rTn/6bpf+MBTbxor0XbBDdOjywfYFPN7rU/341ccEhexAYmoBnyZE9+83TOSz9Dy1FvG+awAPB+sU3pzPf5O93gxXUAYtIEIDAvwQcxvfHYG14Xoc//R1L/0j32ASiHQd0KO9W6Vgg5eFQxWe3KiU3QSA/AjZW+i1Q+53u5Jf9zdJ/frIasUTRggP52G+jFM338cFGpeNiCORLwGGwPSBe1pFG/I2l/3xlNlrJXg7Wvho7x7MSiaQk7KaRBIGSCdjYb3ewdltXx7D0X7Jkp1f2W4O1s5eaIowWD3xtl4dNAXE9BBIi4O2vaD476nb+vo6l/4SEjayc2G5uIr9jX2uvn41SpD0O+yogQaBUAhslfRtsRtJEIbL0X6pkp13uzwK1Ofv/qB0h10eHmjTQsa91tEISBEokcK2kSMa6TXUFS/8lSnWMMr8QrJ+0YXCtFM3d4dO1SsVFEMiLwM5Mjf2mBwks/eclszmVxoZ107Ka+t8P1oX/ULCC2b85CQIlEYg2+2ijHN8uqUIpazgCPlrXRq7Huue1uoR94ViZbPpe722cWbdgXAeB4AS8j7c/UPts2p4n17P0H1xQC8m+nexMZDb1T3sErZUiGTccrlU6xX/BAAAgAElEQVQiLoJAfAL2QPZlIIWzjkLcHr+6KEEBBPYEao8OYlQr/RGoUHbIQIJA7gRs7OfQnut0qlHufSf3yqR82RC4P1ibvGQVefsPj6IonM87VhWI3yEQnEAJxn4TneMTDYT5DS6wBWX/imD95bZVdeOAOpPGGOHzolUF4ncIBCVgz3724BWhHXaVRw92SBCIRCBSzI0nV4F9KpDC+WFVYfgdAkEJnJO5Z795A4YPgtYV2S6bQCSj3JUna/YFGgA4XDEJArkR8DZcJOvieZ150++OS7ogt4qkPEUQ2BWoz/xmVY1EcgH8zKrC8DsEghHINYzvqgHBvcHqiexCYELAdmir5DuV331s/oxJxmc//YMvSCWzq/LROMThbIH5PwQSIvBwAZ795rVpBzEiQSAqgWiGgFcuAr0lUOdvRXLZooLwPQQCEbCxX7Tom/M68jbf+WzyhkB1RVYhMI/AX4H6zrvmFcDf2QK3TSMe4x4DJ0EgOgG7E7WHrjHaUArvrO2fPHpFk/+sCURy0PXsopqIdAKgcXzjRYXmewiMRGCTpJ8K7vw/HYk7r4VA1wQieQTcu6jwkZYhX19UCL6HQAACjnLn5e8UZuFj5MHeRjcGqCeyCIE6BB4L1JYXxgT4OFAhbDBFgkBEAk8EM7btY4DwaMSKI88QWEDg5kB9588LyiA71umjsffxzBsXFYLvIZAoAUettJ/7PtpDpGeyfZeogJKt1gRsyBqlDfqknw2PT0n+4u9AhTj3lNzzHwikTcBObhy5MoqS6CufNt61oyMSBHIj4DgWfbWbrp9r+6NTkqMEdf2Svp539JSc8x8IpE3gKkleduurPUR67kpf5GlXJbmDwEICnwRq41tnS+El9SiK5LPZzPN/CCRKYIekPwO1rT51gI9Knbb0mGi9kS0INCVg6/o+20+Xz35gtnB2xdnlC/p81sqABrOF4/8QGIGAz9v22Q6iPXuhB7IR6oZXQqBrApHa+3OzhQ+d+dnC8H8IjEjgLEmRIoQNMZAgbseIAsmrByEQaRJtY+RTUqTli/tPyTn/gUA6BC6W9DUz/1NWPhyBjKX/dGSUnPRD4KZA7f60kziR3JH6zCUJAqkRuFbSr4GUwBAzf58sYuk/NUklP30Q8OmWIdpUF+/4ZRZAJCtlggDN1h7/H5vAPcGO0XahROo84/mxK4b3Q2BAAnXaRCrXnD3NJVIYYJYTp2uOv8ckYFl8OdDIf0jl8/2y2ONjVhrvhkBPBI4E0gU++n8inRco0wvdGE4KwycEBiJwjqSDgdrOkJ2/JxQOL06CQEkEHOBqyHa2zrtOtk8vqa/zoCHvXRjIoCQpo6yjE/B+n2e4Q8p+pHd5VYQEgdIIRDKmd0CyE8nGS1GUy1uTTPMJgZEI2Nr3t0BtZui2/aMkH4UkQaA0ApGO0981qZxtgZTZC5NM8wmBEQg4il0ke5mhO3+/77oR6oVXQiAFAvawN0aba/POkxF17w6U6cdTqGXyUByBMyRFWt5roxC6uOe14iSDAkPgPwJ3BOpLTzrn8qymi8Y/xDPsbYkEgSEJOJKfHWcMId+R32EL6FOOFg1ZSbwLAgkQiOQM6JUJL/sFjqJ4bptkmk8IDEDgCiL51dYNVn4kCJRMwE6vovSlJ90Bvx4o09eXLF2UfVAC2yX9EahtjKl49gxaM7wMAmkSsCvwMdthk3d/PEH4bqBMXz7JNJ8Q6JGA98cw9qunzOxW9Nwe64JHQyAKgTMD9aUOz30ifRIo096PJUGgLwI+vvZeoPbQZMTf17W39lUZPBcCAQlEWTW0zc6J5GhdfSmHLp/rGRkJAn0RIJJfcz1wch+xr0rhuRAIRuCnIP3pnxOuR4Nk2JHWSBDog8D5kvZJsqfJzyR9IemwJC+TObyvB8nfVt7/fpBkZzdu6HZN7fbjZfBjko5XToI8C3AD63IAnNqzXF5W5PqQRp4ZmYD1RmptdVF+TjjsstJadEFK338XWSrIOwSmCPi4nGMJeO/cgw93pBdKukiSVyI2SnKwDrvp3iTJti+bq9C6V0m6WtI1kuzF0453bpB0oyQbyfp7/26LZJ9i8DP8LD/Xz/f7/F6O7E1VCH9CoCMCHwXpT923W+ecmLWk1NEvygtxADqSUB4DAQhAAAK9EHg70ADgRETAKH7NHXmNBAEIQAACEEiVgL1hLprEpva9VxX1e5AMMwBIVeTJFwQgAAEImMCLQfpTD0a8XRjG2clJxwXIGQQgAAEIQCBBAvYhktpMf1F+bDcUxlqZAUCC0k6WIAABCEDgJAEHrFvU4ab2/QkfHn8FybCtK0kQgAAEIACBVAk8GKQ/9WDE0QsVZQBwINUaJ18QgAAEIAABSXcHGgDc4xr7O0iGGQDQviAAAQhAIGUCtwfpT70C4NWKMEFPPky51skbBCAAAQgUT+DmQAOAx1xbqRkmLMoPA4Di2xYAIAABCCRNwJ45F/VhqX3/tEmmlqlF+dmfdLWTOQhAAAIQKJ2AXXAv6sNS+/55V1ZqmVqUnw9KlyzKDwEIQAACSROwe91FfVhq3+82ySinADgGmLTckzkIQAACxROINAB4xbUVxRXwJ8WLFgAgAAEIQCBlAo7emdpMf1F+7Lb4RBzzRRek9L3jtJMgAAEIQAACqRJwgJ2U+s1leXnOEI8GyfDhVGucfEEAAhCAAAQkbQnSn3pg4LgF+jFIhr9GvCAAAQhAAAIJE4h0DPBJc/wuyADA+SRBAAIQgAAEUiXgCHvLlt1T+u1RQ/TMOqVMLcqLVypIEIAABCAAgVQJ3BKkP3U/+5Ahem99Uaeb0vc/p1rj5AsCEIAABCAgaXuQ/tR9+/2uMVvXp9TRL8rLMcQLAhCAAAQgkDCBHUH6U/ezjlwon69f1Omm9L39FZAgAAEIQAACqRLYGaQ/dd9+pyE6zG5KHf2yvKRa6eQLAhCAAAQgcE+g/tShi2Uf+8s63ZR+OxP5ggAEIAABCCRKwJb1KfWZy/Jyqxm+GyjDFyda6WQLAmMR8LGjgwn/+7haZXQ4b0823qt0zjuS3pK0V9Kbkt6Q9Jok+yd3kJKXJL0gyRHLdlVOSxy+1GeXn5DkWOaPSHpY0oOSHpB0nyTPwLy36aXYOyR5T/Y2SdskWeE5XvtNY1UW782egGV1Waeb0m9bXRt7AmX4quzFhwJCoD4Br4hFceSViuJz8LO76iPmSgg0IuBBbCqyviof17hkDgiw6sJUfmfk3kgWuThzAi8Harsp6JBfJF2duUxQvHEJRFpRv9SovJyWQuOskwcv6ZEgAIF/fY7/E6jt1mnffV7zpaSLEBwI9Ewgyqk6t7VzzcL7Zn02vC6f7b0+EgRKJ3CGpO8DtdsudUCbZ3lWhgFx6a1mmPJ/E6RdevJwIvkoQJtGNcY9T00yzScECiZgw7gx2l+0d1rJnQh4UrCsUPRhCXibKUI7cRTgE+mGIBk2VFsGkyBQMoErJbH0v1rJ2nGYLf5JEBiSQJS2eTK67hWBBgA+MkSCQKkE/icpyhLjmLMgn4zYVKqQUO7RCJwXqC/10eET6cJAmfZZYhIESiXwTKC2OtYAwEZYJ4ybShUSyj0agcsCtc9905TGaqxN3/vFdKb5GwIFEbhc0t+BFEzTtt3F9XYg5FUSEgTGIHBtoPb56jSg40EybgMLEgRKJOBjbF10kjk+wwMjnPuU2CrSKrOD60RpX89Oo4t0pOis6YzzNwQKIGBL9iiKZeh8elJwwqNZAXJAEdMmEMmnjl1on0yfBVIwNlokQaAUAvbWZfe1Q3esEd6Hc59SWkGMckZyA+xYGSfT+4EUzC0nc80fEMifwOeB2uaQgwac++Qv+9FKaCP1IdvAOu86EQhoAtgGAes8bMh78QY4qTU+cycQKbToUDrA56xxCJa75Mcs33eB+lEbFZ9MjwfKuL2gkSCQO4GNkv4M1C6HGADg3Cd3qY9dvkindE5xje0gO0M04C7e4TjiJAjkTuDTQG2yi3a96hk498ld4mOXb0Og9nraaTpb0a5qgKn87j1REgRyJuBtrlTaWwr5wLlPztKeR9muC9RmbfR/SorkDfC00cspJeE/EIhNwCFrvdSdQsebQh5w7hNbnkvJva3qU2gvdfLw9rxK+SNQAfAFMK8G+S4HAh8Haod1lE3ba7yfek8OFUoZiiAQyVfHc/NqJFKQkc3zCsB3EAhO4F46/xOzqF8l2a0qCQJRCLwRqO3ePw9qpDOMpzgxmFcYvoNAMAIXSPotkBJpO7NfdZ/DlF4crO7ILgQOB2q7c8NkR/IFMHcJAxmEQGAC+wMpkFWdeNvfzYDtvcBCXHDWI3nrnBsqO5IvACsKEgRyIRDJgKht577qvlOCk+RSsZSjCAJ2qrNKvlP6fW7EzEi+AI4UIVYUsgQC50k6FkyBdKnM7OxoRwkVTRmzJRCp7/x5US1E8gVgBXT2ooLwPQQCEdhXcOdvZXRVoLoiqxCYR8CrV10Oivt81qF5BfB3NkLq88VdP/v6RQXhewgEIbA9WJvrsg3boZd1DgkC0Qm8F6gdv7UMdqSlSIICLatJfkudQMlL/3slnZF6BZE/CNQkYDfVXQ6O+3yW/RUsTJGckPjUAgkCUQm4E+yzoaf4bEfyeyxqhZFvCMwh4FMrKba1RXnaNqcMJ796KVBhFu5lnCwNf0AgTQK3BGpnixRJ0+/t4+CmNKuDXEGgNYFIMQDcZh1ldGGy682mDXus661QSBCIRuAcSY5nMVa7GeO9XiK9NFpFkV8I1CBgr3pjtKk27zy+qjxbAhXGAK5YVSB+h0BiBF4P1sbaKJrpew5Ksr0DCQI5EngzUHt2VM2lyYY53qebbsAp/z3Xp/HSEvIjBMYjcGOgttVFu39Z0lynI+NVAW+GQKcEvg/Uph1Zc2X6NlCBPPoiQSACAfut8Ln3LjrW1J9BJL8IEkke1yVwfrD2fF+dAr8TqFAefZEgEIGAR9+pd9xd5M+R/GwYRYJA7gRuD9am7exvZYoU19gKy6MwEgRSJnBDMEXRdiDwFZH8UhZD8tYxgReDtetavjd8TrCtAhjjvts6rlQeB4EuCZwpKZKjkLZtmEh+XUoNz4pA4LNAfeV3dYH6nGBbJTDGfS/ULRjXQWAEApF8a7Rtv7tG4MorITAmAQ/sbevSts0MfZ9jjtROvwcqmEdhJAikSMDHaiOdqmmqlIjkl6LUkachCETb1nuqCZRILoGttOyOkQSBlAh4vy3SEaGmnT+R/FKSNvIyNIEnAk2S3bbtfbR2ihTe0IUjMmDtquXCgQh4a6pppxrl+sNE8htIinhNqgRs8xKlvTqfPoZcO0XzVf507ZJxIQT6J5Dz0r+PCXv/kwSBUgnYuVWkbXKfzmmU7K880t4lgYEaVS8X90gg16V/6wMve5IgUDqBaPv/r7SpMI8aoixxWDmd26aQ3AOBjgk8F6jd1G3fnu002kPsmCmPg0BKBKK18Z1t4HnUUFdBpHDdjjaF5B4IdEjgymArZ3Xa7U+SNnXIiEdBIDqBL4P1jUtDAC+qjDuDFdJR1kgQGIuA9wW/CdZmVg0AvLWGp82xJIr3pkjggmBt/GhbiBcHK6hnKiQIjEUg2smZVZ3/G0TyG0uUeG/CBO4O1i++tQ7LI8EKe8U6heVeCLQkkNPSv72bPdySA7dBIHcC7lBXDZ5T+v3BdSokWmEfXaew3AuBFgRyWvr/TZItnEkQgMB8AseDDQA8OWmdPHpIaTSzKi8HWpeUGyHQjoB9UKySywi/22vhpe0QcBcEiiDgcLoR2vIkjz69s1by6GHysAif9k2Ok5K1qpybGxC4PFhAkEVt+CNJ9v1BggAEFhOINti3t8K1U7QlD4czJkFgCALRjgPNGwA4prm3MUgQgMByApHC/7qtd+K4y2EE5ymOVL/bu7wO+RUCnRB4Mli7mNde7+mEBA+BQP4Eop2Kc3u/qotquTeYorMhk92xkiDQF4HoS//HJF3bFxyeC4EMCUSL/vdrV3UQzfGBRz63d1V4ngOBOQQiL/1/K6mVZ7A5HPgKAqUQiOQa333gni4r5utgqwCOWEaCQB8EHg/WFqaX/m3s1ygsaB8AeSYEghHw6ZjpdhThb3vy7SxFi23+h6SzOis9D4LAvwSsCP4KqAyssF7G2A8xhkArAs8Ea/OdB8fbGgyAFV6nI6BWYsNNuRH4PGA7sGc/jP1yk0TKMyQB+8iIMOuf5NF6qtPks/U+Yz95QYTP9zolwMNKJ2AvkxHkfjqPePYrXWop/7oEbEk/3aYi/O0Vi87TB8FAeKkW5yadi0GRD/TSf7QBMJ79ihRVCt0xgeeC9XseoPRywuehgCAcuYkEgXUJRFv6P8jgd90q534InCDgKLMRZv2TPNpxXy/psmAgDMRWzyQIrEPAkfEmjSvCJ2F816lt7oXAfwSuD9b2rZ/e/i/73f8VbTRka8hLusfAEwsh4PPyUZb+CeNbiFBSzMEI+Cx9hEH/dB57NfjdHRDIs4OJCy/KjcCnQeTdUb9uyg0+5YHAiARsPxZl8D89ALioT2Y3BlGI00B+7hMIz86WQJRQ2D9K2pRtLVAwCIxDIEr7n+7rPGHpPR0NOAi4tXcqvCAnAl7696x6unGl+PchSeflBJ6yQCARAtG831o/2VC/92SPYikqw2V5widA72KR1QsiLP076iVhfLMSOwqTCIGrA/Zxtne7cAh+1wWF46BGJAisInB/4vLthu54BCQIQKAfAq8krgPmTXYHPfEW7TSAgaE0+2ksOT3VBjQpL/07xsUtOQGnLBBIjIC93rqdzetkU/7uviE5RgsO5Ir7YUhAvCskAY+iU23kRyRtDkmVTEMgDgE7j0tVByzKl48AD2oLFHGPxPDs2IEEgXkE7k244dsT4fnzMs13EIBApwQ+SVgPLBoA2E3/4CniNsC+wSnxwggEvPTvwDmLGtiY39vY74wIEMkjBIIT8ArbmG297bvvGoP7roCw8Aw4hqSk/86PE5RlL+s5AiEJAhAYhsBbCeqBVYOC0YLeXRkQlmH6GCMJAhMCKe75eTUCz36TGuITAv0T2CDJg+5VHW5qv7/bP5rFb/guIDBbeBImeHGdlvSLj4amtvRPGN+SJJCypkLg+YB9mQcjO8YE+FRQaBwJHFNq0nn3/sTk16cQGJymIx/kpAwCZ0lyGN3UZver8uPJi/M+WrLxlPfVV2U0td/tzhgvaqOJTRIv3pmY3L6ETCYhF2SiPAKPJKYL6vaXr6VQVR8GhecOgFQmAS/9H0tEbr3v2GsIzzKrmFJDoDYB+9io2+mmdN2W2iXs8cLbg8L7skcmPDptAqks/f8q6dq0UZE7CGRN4I6g/ZeDFSWRfEb5l6AQHd6YVBYBG82kMIp3A764LPSUFgLJEfgqEX3QVCcNEvmvbm1FdA1s4J4JksohYHeZKSz9OzrlqMY75VQ5JYXAQgKeADbteFO5flDXvwsJVj9sCgzymlWF4/dsCLw9spzaYPaZbGhSEAjEJmAX26l06E3yYYdFyaUIMdTnQT6QHEky1AcBR9GbV/9DfWf/E9v7KBjPhAAEGhPYOrI+WEfvJLl1bUvmdQo15r2sAjRuP6Fu8Nn6Me1UfpZ0RShiZBYCeROIOvt3DJ4kk+MopxxLfdkAw77gSfkScECdZfXf529WND52SIIABNIgMPZq4Dr65ok0EM7PhR0TrFO4Me+9YX6R+DY4gTEbO5H8ggsP2c+SgI+Aj9nXtH23bYiSDgvupfS2hRv7vs+yFPWyCzXW0r8bKpH8ypY9Sp8mgW2B+6j300R6aq4OBwacpHHFqXj5XwMCb44gi/bPfXODPHIpBCAwHIHI/VMIvXLnCEq3q9UDVgGGa4h9v2mMM75E8uu7Vnk+BNoTuC1w3+TIu2GSLRW76pSHfo73jEmxCZwtyZb3Q8qODUmJ5Bdbbsh93gTsfXNIndDlu+6OVDVRoyu5wjyLI1JgJGk7Pa+vD9zQieR3eh3wDQRSIvDAwDqhy87fk5lQfZLdnHovtEsIQz7LAxhSTAJDLv3/JcnBREgQgEC6BM6VdDxwf/RYumgX52xXYOAevHB2e3HdpvrLkEv/dix0daogyBcEIHCSwCvB+6KQW4vuQB3rfMiZe5fv8jIyKRaBVweSN58jvigWGnILgSIJOE6Nj+V22TcM+SwH2gub3ggM3kJzZVjy5WX8uoFk7V1J9npJggAE0icQNUaNBxmeQIeeaEQffXEsMP0G7hy6Q/6x5wGAB4RPxsBBLiEAgco+Z8jZetfv2pNDLX7Qs2LuGvrs8+7KoRIyL8PunmXMMS5COOHIvJ4pHgTqErAh+tBHgWf7jnX/f1ndwqZ8nX3srwtizPstRBYmUpoE+l7698qCV7JIEIBAHALPBu93PoyDenVOo4ZenAw8nl9dRK4YgUDfS/+fSPIRIhIEIBCHwKXBO3/3O1kFp/Py6aQzjfhpYwziuaenAOyApy958rZCKOcb6VUPOYLAKAQ8cO9LLwzxXOc/u2SDuiHg9fWOL7KrkdgF2tLT8R4P9rD7iC0b5L5cAvcE72fcf1m3ZZei2wK4YvAQmIZYnlG5bO56sPerJIe0JkEAAvEInB/c45/12f542Ovn+KPgo7M/JG2oX1yu7ImAnWN03fk7UAh121OF8VgIDEDgrR70Qtd6ZtXzsvY949nVKgCp/56VdeYAjbLrV/QhQ+9LshthEgQgEJPA1gz6FjsZyz55iSP1Tn5V/ggAM56YftOx/Dw1XlF4MwQg0AEBH9M+0rFeWNUH9PF7EceNr+rJeKuPCln0zKMcD+ug2TZ/RJdne3Hu05w/d0AgRQJ9bAku0v19fe/ti2KSlzr6AjnUc18rprbSKKj3xroKLvU9zn3SqFRyAYE1Cfh4dld6Yai+Y/Y9djN+yZocQt1+eQarAK5E7zuR+ifg8/hdLf3bhiNkeM3+MfMGCIQiYEdgNt6d7VCj/d9B84pLOVhsOia8wx6T+iXgffp1G7VH2c/0m02eDgEIDEig7xgg6+qcOvd79eLiAZkl8yoHOqgDKPVrsj63mYC0eLVo3SU+7/ffmkBZyAIEINANAbfn1PuGOvnzIKbY1Kcr1zrwu7rmoWJrsN+Ce+n/yzUbOvv9/dYRT4fA0AQuzMDhj/ue3ySdNzS8lN7nvdhjayr4rjrxdZ7zl6TNKYHNJC+PrSkb7PdnIggUAwJTBD5dUy+so+u7vBfPspIezKQyv5VkoxRSNwQc0csDq7YNblc32eApEIBAQgTWnRS01Sdd3+eVSYKNVRC6svDuupKaPu+VhBpK9Ky0DSFtd83s90evffIPgdMJdHkUuKlu7/p6dNRU/eYQKGgiINumysWf7QjYpmLCs8nnj4RtbgecuyCQOAF7+3P7bqIPUr32QOKsR8me/bGnWmFN8uWIckUe6+hIajZK8iy+CXNf+zHeGTuqAR4DgfQI5HBsfKLTinD521SE1t3zncBN4dPL1+zvNJWAf69vY+DzHLzbweYuCAQgcF+LCUEK/cC8PLwcgPdoWXwxo4r2EUdSMwJNG7pXCm5r9gquhgAEAhHw6ao/M+kXfOINL6RLhC+XY4GTkd/2JWXlp1MJbJBkhz0Tdqs+2e8/lR//g0BuBM6V9FMDnbBKZ4z9u0+8kVYQeCCjCrejB29tkFYT+KhBvbPfv5onV0AgOoEmOmHszn3V+33SjW3hmhJ5uEFnsAr82L9/JckWrKTFBO5qUN8O/UlDWsySXyCQA4FczvtP+p8bc6iUocpwdQf+3yfgU/jcMxS4gO+xW0+vlKyqJ+8D3hGwfGQZAhBoRuCaTKLFTnRakdH+mlX56VfnZBBoQbj39CLyjaQPanT+P0hyUCASBCCQNwFHV3WU1UnnGf3Tx8Jty0BqSMDL5jkZgFiQr2rIIPfLd9Ro6N4HxHI2d0mgfBD4l0CbY8ApDxLupGLbE7i5RgeRcuXP5u2oJFu7k/6NgrUsENQ/kp4GFAQgUAyBtzPT93j860B0cxMKW4Oe3QGX6I/Yu6SxH5d0U/QCkn8IQKA2AQ/2ZydMkf9vHyVM9mpX/+ILz88k9vO0MHtkWLIluwNhTPOY/tunJnClvLg98AsEciNg495pHZDD34T67VBKbUCXg1BMl6FUy1AbxCwy8tlHSOUOWw2PgkD6BK5fM+z3tE5N5W8fYy95gteL1B3McBDweC+k0n7o63Pq8S9JjgBIggAEyiFgJ2l1jgCn0rHXycffRCTtR4Avycgn9ESQbOh2ez+4knyq9/UnZZ982jByS5K5JVMQgEBfBLy1m0t434ku8+fzfQHjudKTczqQafgR/7aDm2sLqFwbPh6Zqb9DknzulwQBCJRDwEe8v5jRBRF192ye7a8Er689y7E7jVnw0f9vZxG5O7rZPVNvjpbIPlnPjYXHQyBBAu/P6ILo+nuSf3swJPVMwBbiTaLGTSon9U8bxl3WM7uxHn/dVIP38ZiStj3GYs57IZAaAQ/4c+388VkyoLQ1CR6Tesc/nb+fJdnWIafkJbHJXh8ufXOqWcoCgWYEfMpnWt/l8vdnzTBwdRcE3slUmOz+OKdz8I7e54a+H5e+XYg9z4BASALLHH9FHgj4FENO+jqMcNk/fG6xAiYNwTPli8LUxOKMek/Mx2KeWnwJv0AAApkTsM+TiW7L7ZPtzBGFN7ewkdON47vgFvJnVpa+W0eUD14NAQiMSyDnzt+rGqSRCTyb8ejScQPOG5lv29c7CtbGtjdzHwQgEJ7AKxnrZq8+E9MlERH9PGNBs298O80gQQACEIhCwA5xplc0c/ubI38JSaIt53M8GjhpNN4OyMEmICGRISsQgEBPBHKe+Vsnc+SvJ8FZ57F3Zz7i9FG63I4IrlPf3AsBCKRHYE/mevjT9JCTowmBnA1OPPK0n4BcnQVN6pBPCEAgHoEzJL2XeedvZ224Lk9YNi2EdsowWTrP8dNugzcnXAdkDYbcUNgAAA9rSURBVAIQKIuAnX19lLnedcRSgpYFkGuP0BbFm89lQGDnExihBBBGsgiBzAnYH0vuky73G95iJgUh4M7RI7ZcOvx55bBP/euD1AfZhAAE8iPg00k+pTRPP+X03Wv5VV3+Jbq/AMF0I9uef1VSQghAIDECGyTZT0lOHf28suDnPzHBa5Kd3I0CLbD/SHqgCRSuhQAEILAGAYcuP1pA54/R3xpCksKtJRgFTkatL6YAnDxAAAJZE7gxc58rE32K0V8mYlyCUeBEaH0Mxz74SRCAAAS6JuAw7A7uNdE3OX9i9Ne19Iz4vBKMAieN8VDg+AEjigivhgAElhDYVUjHbz366hIO/BSUwD0FCbBdB18atJ7INgQgkBaBtwrSnQfTQk9uuiTwQkGCfEzS1V3C41kQgEBRBM6VZNe3k9XF3D/tbj1q9NWiBHOdwr5fkEDbV8DOdWBxLwQgUCQBuxwv4ZjfZFBj52q4WS9A1B3DuQTnFRPB9uduST4RQYIABCCwisC2Qiz9JzrSFv83rILC7/kQuLCQc6wTAffn55JcbhIEIACBeQT+J8nHiaf1Rgl/3zkPBt/lTcABdbxEXoKAT8poxxaMdPOWa0oHgTYEfFzaJ4gmuqKUz+fbwOKePAjcWnnSK0XYXU6f4308j+qjFBCAQAcEri1wRdS68IMO2PGI4ASeLHDUa+HfL8mRvEgQgEC5BB4tyLnP9ETPdmAOY0yCgPYWOgjwsZcrqX8IQKA4Aj7it69QvXdE0kXF1TgFXkrgk0Ibg0fFjywlw48QgEBOBLzk/1Oh+u53Jj05iXJ3ZfHxwC8KbRQeBBzglEB3wsSTIJAgAVv5P1Pokr91nI2+r0uwXshSIgS8LFaaj4DpfbFfJW1NpC7IBgQg0B2BjdVR4On2XtLff9L5dydMOT/JriBL8oA1qwT+kfQSUQVzFnHKVhiB2wpz7DOr0+zox2GMSRCoRcBnYh1QZ1aQSvr/15I21aLFRRCAQIoEfMpnT+F6zMeeb06xcshT2gRsJfpD4Y3HA54H064mcgcBCMwhcH3Bhn7TE7Udc9jwFQRqEbiYRnRiFeQzSZfXIsZFEIDAmARsx+R49t7Km+4IS/vb5b99zIrg3XkQuETSz4U3JisP76PZgvjMPKqVUkAgOwLu8NBV/w5+iIKanXiPVyCHibQf/dJG0fPKa9uIa8arCt4MAQjMEPB2pd3azmuvJX53zwwf/guBtQk4eJCPyZXYoOaV+RVJXm4kQQAC4xGwjY6d28xroyV+9/B4VcGbcydgq/ijNLaTysbLjeyz5S71lC9FArbJKdlx2ezgxnv+zPxTlNTM8mSbAPvQnxXAkv//kSRzIUEAAv0SsMfSFyqbnJJ1znTZ3fmz59+v3PH0KQIbOCJ42gDIRoLPSbKCIkEAAt0T8AyXFchTJ18+57+9e9Q8EQLLCVwo6VtWAk4bCHhbgNH4ctnhVwg0IeCInSz3n9rxewXA7n1vaQKSayHQJYHzJX3JIOC0QYAbp30HXNElbJ4FgcII2CPp65zpn6tfHNjHzo5IEBiVgN1tfs4gYG4j9d6cTwt4oESCAATqEXDUPofoPo5ematXfuMocj1B4qphCHgQcJDGOrexejXgmKQnsQ8YRhh5S2gC3j5ja/H05f6J0Z8HRVeHrmEynyUBe8g7wCBg4SBgMhB4Cv8BWco/hWpPwDP+u+n4l+oO6w87Y8MleXs5486eCZwh6W0GASsbskfxdivs0MskCJRKwPriXknfozNW6gx7IHVsFhIEkifgWe5kyYrPxSzswcxHB7ERSF6kyWCHBNzxP4A/kdo68lNWDTuUPh41CAHv5dH512Pg4zy7JdmnOQkCuRI4qwqvTcCeenrB+vPNXIWBcuVP4LrKAI6BQL0G74GAQ5luzF80KGFBBBwzw0awBBSrpwcm+vLpgmSEomZKwC5yf2A1oNFqiL177ZXk2AskCEQl4HP8uzjO16jtu/O3V9E7olY6+YbALAEbu9kxzmRky2c9FvYj8J6kq2aB8n8IJEzAxmovS7KzGtp6MwY+Mky48YSFm6y1I2DDn3dRCK0Voo9Y3tgOPXdBYBACl1V71p7B0vE3Z+CVUoKKDSKqvGQsAs+iHNZSjva6eB9OhcYSX947h8A2BvdrtWkPlmzpz2mgOcLFV/kR8P6WDd6YJbRn4COE9pN+bX7iQYkCELi02t/Hor99G57ovz2SvEJKgkAxBBzh6wiDgE4GQd9IepQZRDFtZ6yC2tvnXZXbb9unTDowPtux8FaJ/SGQIFAkAS95fYIi6UyRWqHsq0KE2r0qCQJdELDveQe1IjhPu45+3gDJRyIx9utCOnlGaALuqGwxPK+R8F17LkcrpW3DQQYDoZvIKJn3yRPb6xCYp30bXKS/vsDp1ygyzUsTJmC7AKyHu1c2VkKebbwmaSuDgYRbwPhZ21K5psY3fz/t0G2R/f7x5ZwcJErAS40YFfWnfKyAfpX0RrVNgOFRog1hwGzZiPQF/PL3vgLpyc2DA9Yrr4JASAIXVkdiFi2f8X13A4TfKo+DdxJsJGRbaZvpW6vYExjhdteWluklD7rtFp0EAQjUJODgOMsaFb91z+egpMckba5ZR1wWg4AH1fdIeh/vfIPrFPvt2BBDTMglBNIicHO1ZE1n331nv4qp94FfknQTZ5TTahQ1c2ML82ckHWYgPXin77bleB7mzzZbTYHlMgjMI+CAIh+gxEZRYpNBgp0OuQ6eqAYEZ8+rKL4blYD38h+ujoF6yXlSd3wOz8IufTniN2pz4OW5EbD7W3dEKLTxGdgJzFfVyYJ7JV2Rm7AlXh77i7fdhldoHGSL0zPjt4mJXvJpGwbIiTcgsheTgN2PElUwHWU3UXr+tEHhR9Wy5+2SXFek9Ql4/9hGe09We/g+0jnNnb/T4OF6cT2RIACBHgnYqc1T1R4byi8N5beoHuw5zoaFL0q6uzIuxCnR4saxqYoD/5ykDyXZmdMitnyfDhsbVxLIZ7Fc8wsEOidgpyU4LElHCTbpkOwJzYGMHL9gR7VfelHnEpLmA23TYn8Xt1V79vaCeYjtrZADHW9JeguMBAEIjEDgrOo8c5POh2vTHjTYgOrjymOaXdHa9sOnQdxpeu/73BHkrM4rz5G0UZJd6PrkhI/dPV05XfLWyHccwQvZyS/SFx60WR5JEIDAyARukOSOY1Fj5fv82NjS3Z2qbUK8XP5WNRj00avHK69r3nbwCsMtkq6vOmcvs3tffTKQ8CDSs3Irc/s/sDW9O3DP0B35ztHa7BvBz/Vsfa+k/dWs3X7y2ZPPT7aW6Ys/JD0ysr7j9RCAwAwBhyq1S1Ofv13WgPkNPsgAMtBGBrwyhVOfGcXLfyGQEoErJX3DIIBBEDKADHQkA8eqLZ2U9Bx5gQAEFhCw9y3vv3I+mplem5ke9yA3ExnYJ8mulEkQgEAwApdL+rKjWcBEIfBJ54AM5C8DnOsPpuzJLgTmEfC5cx83s/EOihsGyAAysEoG3pwyEp2nU/gOAhAIRsCe6YgpgPJfpfz5vVwZ8UmircH0GtmFAAQaEPCRQYwEy1XydPDU/awM+EjpQ0Tua6BFuRQCgQl4W+B+XK2yJcK2UNEy8Gd1dHjiEyKwSiPrEIBAUwKO2rUL+4CiO4HZ2SD/L2OF4B1JFzdVGFwPAQjkR8DOPezhzWFu6QBggAzkKwOOQ2G30iQIQAACpxCwEyHCDeer/OnYy63bHyXdeUpr5z8QgAAE5hCw/3giDZbbWTBQyKfuHZLasRxIEIAABGoTsKGgI7p55kCHAANkIJYM/FYFcMLAr7bK40IIQGCWgN0KP8iJAQZBDARDyMDEsv/82YbM/yEAAQi0JeCwsQ4z68AgzAZhgAykJQOO+/GqpIvaNnDugwAEILCKgJcUHRv+dwYCDISQgdFlwCd39kjauKrh8jsEIACBrghcIOlFSV5yZDYIA2RgeBl4V9Kmrho0z4EABCDQlIB9CLyEMyEGQQwEB5OBtyX5yC4JAhCAQBIEvDXwlCSHEWU2CANkoFsZ8Eqb9/gd1IsEAQhAIEkCZ0p6QJIji9EJwAAZWE8GfI7f7rqx6k9S3ZEpCEBgHgH7EbhD0mEGAgyEkIHGMnBE0qOSHK+DBAEIQCAsAccY/4hOoHEnwOx5vdlzRH4O1W0HXPa/QYIABCCQDYHN1ZGliIqZPJfXGQ9Z5wck3Z5NS6cgEIAABBYQsMGg7QTYHqBTHbKTTe1ddrP9tCSfpCFBAAIQKI6AVwV242GQ7YFCtohsze9jfN4WI0EAAhCAgCSfHtgp6WNJ9m6W2myN/FAn68jAV5IelnQerR0CEIAABBYTsFvTZyXZEnodpcu98BtTBnyEz2f3tywWdX6BAAQgAIFFBG6U9AoOhhgIBRkMOkaGl/ht0OdVLRIEIAABCKxJwH4FbpL0mqRfg3QGY84+efdwqx9/SHpH0g5JjppJggAEIACBngh4MGAjqtcxHmRlYKTBoDv9fZWzK5z19NTQeSwEIACBZQQ8GLhF0huSvOfKzBcGfcmALfjfk3QnHvqWNUl+gwAEIDA8AXtPu0HS85K+ZjDAYKgDGfipMuTbRqc/fIPmjRCAAATaErhY0v2S3pdk46y+ZoY8Nx+2f1VHUR+TdEVbweM+CEAAAhBIh4Atsm038JKk7xgMMBiakoGfK3sSW+6fk47IkhMIQAACEOiDwCWSHqoMufA3kM8Mvs5qzDFJ+yU9IemqPoSLZ0IAAhCAQBwC3i7wMa4XJX0myUvBdToTrkmb09+Svqz28e+WdFkckSSnEIAABCAwBgFvGVxbxWT3cS9WCdLu6CcDMfuI+EDSk5XfCJb0x2g9vBMCEIBAZgTsonh7FcHtXUnfs0ow6iqJLfS9lL+rOpp3eWbyRnEgAAEIQCBhAvb8do2k+yS9LOkgzok6HxT4BMehygvkg5Kux1gv4RZB1iAAAQgUTsA2BbdKerxyUuSBAdsIy7cRjlYd/R5JT0m6TdKlhcsRxYcABCAAgUwI2LbAS9UeHDg8rFcNvGf9rSR7mpvsZef4aYM8b5scqAI8PVp18pvxoZ+JdFMMCEAAAhBoTcB2BvZm6BMJD1TGbPZdsFfSh5K+kPRjQo6N7BPfe/GHq479rWpQ87QkL9ffIckRHZnJtxYJboQABCAAAQicTmCDpCurQcPN1cqCDRU9gLDPeh99u7fyiGi/B49U2xK2kncn7aV2n4f3bNwrEh502J7B9+2snuOleK9Y+PkenPjsvLc4SBCAQGAC/w+tKFs8xaVW9AAAAABJRU5ErkJggg==;" vertex="1" parent="QO4F9BHPAcaRKNSe1WLH-44">
          <mxGeometry x="11.200000000000001" y="12.666666666666664" width="29.64086956521739" height="29.64086956521739" as="geometry" />
        </mxCell>
        <mxCell id="QO4F9BHPAcaRKNSe1WLH-50" value="" style="endArrow=none;html=1;rounded=0;entryX=1;entryY=0.25;entryDx=0;entryDy=0;exitX=0;exitY=0.25;exitDx=0;exitDy=0;" edge="1" parent="QO4F9BHPAcaRKNSe1WLH-29" source="QO4F9BHPAcaRKNSe1WLH-6" target="QO4F9BHPAcaRKNSe1WLH-6">
          <mxGeometry width="50" height="50" relative="1" as="geometry">
            <mxPoint x="1.4" y="240" as="sourcePoint" />
            <mxPoint x="279.9999999999999" y="240.29999999999995" as="targetPoint" />
          </mxGeometry>
        </mxCell>
        <mxCell id="QO4F9BHPAcaRKNSe1WLH-75" style="edgeStyle=orthogonalEdgeStyle;rounded=0;orthogonalLoop=1;jettySize=auto;html=1;exitX=0;exitY=0.25;exitDx=0;exitDy=0;entryX=0;entryY=0.5;entryDx=0;entryDy=0;" edge="1" parent="QO4F9BHPAcaRKNSe1WLH-29" source="QO4F9BHPAcaRKNSe1WLH-45" target="QO4F9BHPAcaRKNSe1WLH-42">
          <mxGeometry relative="1" as="geometry" />
        </mxCell>
        <mxCell id="QO4F9BHPAcaRKNSe1WLH-76" style="edgeStyle=orthogonalEdgeStyle;rounded=0;orthogonalLoop=1;jettySize=auto;html=1;exitX=0;exitY=0.25;exitDx=0;exitDy=0;entryX=0;entryY=0.5;entryDx=0;entryDy=0;" edge="1" parent="QO4F9BHPAcaRKNSe1WLH-29" source="QO4F9BHPAcaRKNSe1WLH-45" target="QO4F9BHPAcaRKNSe1WLH-41">
          <mxGeometry relative="1" as="geometry" />
        </mxCell>
        <mxCell id="QO4F9BHPAcaRKNSe1WLH-77" style="edgeStyle=orthogonalEdgeStyle;rounded=0;orthogonalLoop=1;jettySize=auto;html=1;exitX=0;exitY=0.25;exitDx=0;exitDy=0;entryX=0;entryY=0.5;entryDx=0;entryDy=0;" edge="1" parent="QO4F9BHPAcaRKNSe1WLH-29" source="QO4F9BHPAcaRKNSe1WLH-45" target="QO4F9BHPAcaRKNSe1WLH-40">
          <mxGeometry relative="1" as="geometry" />
        </mxCell>
        <mxCell id="QO4F9BHPAcaRKNSe1WLH-2" value="User" style="shape=umlActor;verticalLabelPosition=bottom;verticalAlign=top;html=1;outlineConnect=0;hachureGap=4;fontFamily=Verdana;" vertex="1" parent="1">
          <mxGeometry x="160" y="290" width="30" height="60" as="geometry" />
        </mxCell>
        <mxCell id="QO4F9BHPAcaRKNSe1WLH-27" value="" style="group" vertex="1" connectable="0" parent="1">
          <mxGeometry x="990" y="330" width="230" height="410" as="geometry" />
        </mxCell>
        <mxCell id="QO4F9BHPAcaRKNSe1WLH-16" value="" style="whiteSpace=wrap;html=1;fillColor=#fff2cc;strokeColor=#d6b656;" vertex="1" parent="QO4F9BHPAcaRKNSe1WLH-27">
          <mxGeometry x="10" y="30" width="220" height="380" as="geometry" />
        </mxCell>
        <mxCell id="QO4F9BHPAcaRKNSe1WLH-17" value="&lt;font style=&quot;font-size: 16px;&quot;&gt;DB&lt;/font&gt;" style="text;html=1;align=center;verticalAlign=middle;whiteSpace=wrap;rounded=0;" vertex="1" parent="QO4F9BHPAcaRKNSe1WLH-27">
          <mxGeometry x="130" y="40" width="60" height="30" as="geometry" />
        </mxCell>
        <mxCell id="QO4F9BHPAcaRKNSe1WLH-21" value="Amazon DynamoDB" style="sketch=0;outlineConnect=0;fontColor=#232F3E;gradientColor=none;strokeColor=#ffffff;fillColor=#232F3E;dashed=0;verticalLabelPosition=middle;verticalAlign=bottom;align=center;html=1;whiteSpace=wrap;fontSize=10;fontStyle=1;spacing=3;shape=mxgraph.aws4.productIcon;prIcon=mxgraph.aws4.dynamodb;" vertex="1" parent="QO4F9BHPAcaRKNSe1WLH-27">
          <mxGeometry x="180" width="50" height="79" as="geometry" />
        </mxCell>
        <mxCell id="QO4F9BHPAcaRKNSe1WLH-34" value="users" style="rounded=0;whiteSpace=wrap;html=1;" vertex="1" parent="QO4F9BHPAcaRKNSe1WLH-27">
          <mxGeometry x="60" y="130" width="120" height="60" as="geometry" />
        </mxCell>
        <mxCell id="QO4F9BHPAcaRKNSe1WLH-35" value="contacts" style="rounded=0;whiteSpace=wrap;html=1;" vertex="1" parent="QO4F9BHPAcaRKNSe1WLH-27">
          <mxGeometry x="60" y="230" width="120" height="60" as="geometry" />
        </mxCell>
        <mxCell id="QO4F9BHPAcaRKNSe1WLH-33" value="" style="group;fillColor=#fad9d5;strokeColor=#ae4132;" vertex="1" connectable="0" parent="1">
          <mxGeometry x="675" y="440" width="157.5" height="380" as="geometry" />
        </mxCell>
        <mxCell id="QO4F9BHPAcaRKNSe1WLH-13" value="POST&lt;div&gt;/contacts/&amp;lt;user_id&amp;gt;&lt;/div&gt;" style="rounded=1;whiteSpace=wrap;html=1;hachureGap=4;fontFamily=Verdana;" vertex="1" parent="QO4F9BHPAcaRKNSe1WLH-33">
          <mxGeometry x="2.5" width="155" height="60" as="geometry" />
        </mxCell>
        <mxCell id="QO4F9BHPAcaRKNSe1WLH-14" value="GET&lt;div&gt;/contacts/&amp;lt;user_id&amp;gt;&lt;/div&gt;" style="rounded=1;whiteSpace=wrap;html=1;hachureGap=4;fontFamily=Verdana;" vertex="1" parent="QO4F9BHPAcaRKNSe1WLH-33">
          <mxGeometry x="2.5" y="80" width="155" height="60" as="geometry" />
        </mxCell>
        <mxCell id="QO4F9BHPAcaRKNSe1WLH-15" value="DELETE&lt;div&gt;/contacts/&amp;lt;user_id&amp;gt;&lt;/div&gt;&lt;div&gt;/&amp;lt;contact_id&amp;gt;&lt;/div&gt;" style="rounded=1;whiteSpace=wrap;html=1;hachureGap=4;fontFamily=Verdana;" vertex="1" parent="QO4F9BHPAcaRKNSe1WLH-33">
          <mxGeometry y="320" width="155" height="60" as="geometry" />
        </mxCell>
        <mxCell id="QO4F9BHPAcaRKNSe1WLH-12" value="PUT&lt;div&gt;/contacts/&amp;lt;user_id&amp;gt;&lt;/div&gt;&lt;div&gt;/&amp;lt;contact_id&amp;gt;&lt;/div&gt;" style="rounded=1;whiteSpace=wrap;html=1;hachureGap=4;fontFamily=Verdana;" vertex="1" parent="QO4F9BHPAcaRKNSe1WLH-33">
          <mxGeometry y="240" width="155" height="60" as="geometry" />
        </mxCell>
        <mxCell id="QO4F9BHPAcaRKNSe1WLH-11" value="GET&lt;div&gt;/contacts/&amp;lt;user_id&amp;gt;&lt;/div&gt;&lt;div&gt;/&amp;lt;contact_id&amp;gt;&lt;/div&gt;" style="rounded=1;whiteSpace=wrap;html=1;hachureGap=4;fontFamily=Verdana;" vertex="1" parent="QO4F9BHPAcaRKNSe1WLH-33">
          <mxGeometry y="160" width="155" height="60" as="geometry" />
        </mxCell>
        <mxCell id="QO4F9BHPAcaRKNSe1WLH-38" style="edgeStyle=orthogonalEdgeStyle;rounded=0;orthogonalLoop=1;jettySize=auto;html=1;exitX=0.5;exitY=0.5;exitDx=0;exitDy=0;exitPerimeter=0;" edge="1" parent="1" source="QO4F9BHPAcaRKNSe1WLH-36" target="QO4F9BHPAcaRKNSe1WLH-10">
          <mxGeometry relative="1" as="geometry" />
        </mxCell>
        <mxCell id="QO4F9BHPAcaRKNSe1WLH-36" value="ADMIN" style="shape=umlActor;verticalLabelPosition=bottom;verticalAlign=top;html=1;outlineConnect=0;hachureGap=4;fontFamily=Verdana;" vertex="1" parent="1">
          <mxGeometry x="930" y="140" width="30" height="60" as="geometry" />
        </mxCell>
        <mxCell id="QO4F9BHPAcaRKNSe1WLH-48" style="edgeStyle=orthogonalEdgeStyle;rounded=0;orthogonalLoop=1;jettySize=auto;html=1;entryX=-0.002;entryY=0.179;entryDx=0;entryDy=0;entryPerimeter=0;" edge="1" parent="1" source="QO4F9BHPAcaRKNSe1WLH-2" target="QO4F9BHPAcaRKNSe1WLH-6">
          <mxGeometry relative="1" as="geometry" />
        </mxCell>
        <mxCell id="QO4F9BHPAcaRKNSe1WLH-52" style="edgeStyle=orthogonalEdgeStyle;rounded=0;orthogonalLoop=1;jettySize=auto;html=1;" edge="1" parent="1" source="QO4F9BHPAcaRKNSe1WLH-1" target="QO4F9BHPAcaRKNSe1WLH-5">
          <mxGeometry relative="1" as="geometry" />
        </mxCell>
        <mxCell id="QO4F9BHPAcaRKNSe1WLH-53" style="edgeStyle=orthogonalEdgeStyle;rounded=0;orthogonalLoop=1;jettySize=auto;html=1;" edge="1" parent="1" source="QO4F9BHPAcaRKNSe1WLH-3" target="QO4F9BHPAcaRKNSe1WLH-13">
          <mxGeometry relative="1" as="geometry" />
        </mxCell>
        <mxCell id="QO4F9BHPAcaRKNSe1WLH-54" style="edgeStyle=orthogonalEdgeStyle;rounded=0;orthogonalLoop=1;jettySize=auto;html=1;entryX=0;entryY=0.5;entryDx=0;entryDy=0;" edge="1" parent="1" source="QO4F9BHPAcaRKNSe1WLH-40" target="QO4F9BHPAcaRKNSe1WLH-14">
          <mxGeometry relative="1" as="geometry" />
        </mxCell>
        <mxCell id="QO4F9BHPAcaRKNSe1WLH-55" style="edgeStyle=orthogonalEdgeStyle;rounded=0;orthogonalLoop=1;jettySize=auto;html=1;entryX=0;entryY=0.5;entryDx=0;entryDy=0;" edge="1" parent="1" source="QO4F9BHPAcaRKNSe1WLH-41" target="QO4F9BHPAcaRKNSe1WLH-11">
          <mxGeometry relative="1" as="geometry" />
        </mxCell>
        <mxCell id="QO4F9BHPAcaRKNSe1WLH-56" style="edgeStyle=orthogonalEdgeStyle;rounded=0;orthogonalLoop=1;jettySize=auto;html=1;entryX=0;entryY=0.5;entryDx=0;entryDy=0;" edge="1" parent="1" source="QO4F9BHPAcaRKNSe1WLH-42" target="QO4F9BHPAcaRKNSe1WLH-12">
          <mxGeometry relative="1" as="geometry" />
        </mxCell>
        <mxCell id="QO4F9BHPAcaRKNSe1WLH-57" style="edgeStyle=orthogonalEdgeStyle;rounded=0;orthogonalLoop=1;jettySize=auto;html=1;entryX=0;entryY=0.5;entryDx=0;entryDy=0;" edge="1" parent="1" source="QO4F9BHPAcaRKNSe1WLH-43" target="QO4F9BHPAcaRKNSe1WLH-15">
          <mxGeometry relative="1" as="geometry" />
        </mxCell>
        <mxCell id="QO4F9BHPAcaRKNSe1WLH-58" style="edgeStyle=orthogonalEdgeStyle;rounded=0;orthogonalLoop=1;jettySize=auto;html=1;entryX=1;entryY=0.5;entryDx=0;entryDy=0;" edge="1" parent="1" source="QO4F9BHPAcaRKNSe1WLH-18" target="QO4F9BHPAcaRKNSe1WLH-45">
          <mxGeometry relative="1" as="geometry" />
        </mxCell>
        <mxCell id="QO4F9BHPAcaRKNSe1WLH-59" style="edgeStyle=orthogonalEdgeStyle;rounded=0;orthogonalLoop=1;jettySize=auto;html=1;entryX=0;entryY=0.5;entryDx=0;entryDy=0;" edge="1" parent="1" source="QO4F9BHPAcaRKNSe1WLH-45" target="QO4F9BHPAcaRKNSe1WLH-18">
          <mxGeometry relative="1" as="geometry" />
        </mxCell>
        <mxCell id="QO4F9BHPAcaRKNSe1WLH-60" style="edgeStyle=orthogonalEdgeStyle;rounded=0;orthogonalLoop=1;jettySize=auto;html=1;entryX=0.5;entryY=0;entryDx=0;entryDy=0;" edge="1" parent="1" source="QO4F9BHPAcaRKNSe1WLH-5" target="QO4F9BHPAcaRKNSe1WLH-34">
          <mxGeometry relative="1" as="geometry" />
        </mxCell>
        <mxCell id="QO4F9BHPAcaRKNSe1WLH-63" style="edgeStyle=orthogonalEdgeStyle;rounded=0;orthogonalLoop=1;jettySize=auto;html=1;entryX=0.5;entryY=0;entryDx=0;entryDy=0;" edge="1" parent="1" source="QO4F9BHPAcaRKNSe1WLH-10" target="QO4F9BHPAcaRKNSe1WLH-34">
          <mxGeometry relative="1" as="geometry" />
        </mxCell>
        <mxCell id="QO4F9BHPAcaRKNSe1WLH-64" style="edgeStyle=orthogonalEdgeStyle;rounded=0;orthogonalLoop=1;jettySize=auto;html=1;entryX=0;entryY=0.5;entryDx=0;entryDy=0;" edge="1" parent="1" source="QO4F9BHPAcaRKNSe1WLH-13" target="QO4F9BHPAcaRKNSe1WLH-35">
          <mxGeometry relative="1" as="geometry" />
        </mxCell>
        <mxCell id="QO4F9BHPAcaRKNSe1WLH-65" style="edgeStyle=orthogonalEdgeStyle;rounded=0;orthogonalLoop=1;jettySize=auto;html=1;entryX=0;entryY=0.5;entryDx=0;entryDy=0;" edge="1" parent="1" source="QO4F9BHPAcaRKNSe1WLH-14" target="QO4F9BHPAcaRKNSe1WLH-35">
          <mxGeometry relative="1" as="geometry" />
        </mxCell>
        <mxCell id="QO4F9BHPAcaRKNSe1WLH-66" style="edgeStyle=orthogonalEdgeStyle;rounded=0;orthogonalLoop=1;jettySize=auto;html=1;entryX=0;entryY=0.5;entryDx=0;entryDy=0;" edge="1" parent="1" source="QO4F9BHPAcaRKNSe1WLH-11" target="QO4F9BHPAcaRKNSe1WLH-35">
          <mxGeometry relative="1" as="geometry" />
        </mxCell>
        <mxCell id="QO4F9BHPAcaRKNSe1WLH-67" style="edgeStyle=orthogonalEdgeStyle;rounded=0;orthogonalLoop=1;jettySize=auto;html=1;entryX=0;entryY=0.5;entryDx=0;entryDy=0;" edge="1" parent="1" source="QO4F9BHPAcaRKNSe1WLH-12" target="QO4F9BHPAcaRKNSe1WLH-35">
          <mxGeometry relative="1" as="geometry" />
        </mxCell>
        <mxCell id="QO4F9BHPAcaRKNSe1WLH-68" style="edgeStyle=orthogonalEdgeStyle;rounded=0;orthogonalLoop=1;jettySize=auto;html=1;entryX=0;entryY=0.5;entryDx=0;entryDy=0;" edge="1" parent="1" source="QO4F9BHPAcaRKNSe1WLH-15" target="QO4F9BHPAcaRKNSe1WLH-35">
          <mxGeometry relative="1" as="geometry" />
        </mxCell>
        <mxCell id="QO4F9BHPAcaRKNSe1WLH-69" style="edgeStyle=orthogonalEdgeStyle;rounded=0;orthogonalLoop=1;jettySize=auto;html=1;entryX=1;entryY=0.5;entryDx=0;entryDy=0;" edge="1" parent="1" source="QO4F9BHPAcaRKNSe1WLH-35" target="QO4F9BHPAcaRKNSe1WLH-14">
          <mxGeometry relative="1" as="geometry" />
        </mxCell>
        <mxCell id="QO4F9BHPAcaRKNSe1WLH-70" style="edgeStyle=orthogonalEdgeStyle;rounded=0;orthogonalLoop=1;jettySize=auto;html=1;entryX=1;entryY=0.5;entryDx=0;entryDy=0;" edge="1" parent="1" source="QO4F9BHPAcaRKNSe1WLH-35" target="QO4F9BHPAcaRKNSe1WLH-11">
          <mxGeometry relative="1" as="geometry" />
        </mxCell>
        <mxCell id="QO4F9BHPAcaRKNSe1WLH-73" value="" style="edgeStyle=orthogonalEdgeStyle;rounded=0;orthogonalLoop=1;jettySize=auto;html=1;" edge="1" parent="1" source="QO4F9BHPAcaRKNSe1WLH-15" target="QO4F9BHPAcaRKNSe1WLH-19">
          <mxGeometry relative="1" as="geometry">
            <Array as="points">
              <mxPoint x="750" y="850" />
              <mxPoint x="750" y="850" />
            </Array>
          </mxGeometry>
        </mxCell>
      </root>
    </mxGraphModel>
  </diagram>
</mxfile>
